<?xml version="1.0" encoding="UTF-8" standalone="no"?>
<!DOCTYPE svg PUBLIC "-//W3C//DTD SVG 1.1//EN" "http://www.w3.org/Graphics/SVG/1.1/DTD/svg11.dtd">
<svg width="100%" height="100%" viewBox="0 0 1017 762" version="1.1" xmlns="http://www.w3.org/2000/svg" xmlns:xlink="http://www.w3.org/1999/xlink" xml:space="preserve" xmlns:serif="http://www.serif.com/" style="fill-rule:evenodd;clip-rule:evenodd;stroke-linecap:round;stroke-linejoin:round;stroke-miterlimit:1.5;">
    <g transform="matrix(1.06951,0,0,1.06951,-29.5496,-40.7386)">
        <g transform="matrix(1,0,0,1,-36.8022,-12.7258)">
            <path d="M86.091,181.737C81.088,164.076 114.877,468.596 116.251,479.5C118.143,494.506 127.035,493.77 127.323,494.347C127.467,494.635 316.721,646.636 381.919,695.534C384.652,697.584 896.22,574.976 938.77,566.467C958.852,562.45 1008.26,552.253 1008.26,552.253C1008.26,552.253 797.435,392.184 777.506,368.152C773.917,363.825 760.978,143.153 744.503,113.131C738.811,102.76 89.129,181.737 86.091,181.737Z" style="fill:rgb(255,252,229);"/>
            <g transform="matrix(1,0,0,1,-10.9071,6.85722)">
                <path d="M94.121,175.057C93.664,174.762 126.408,461.88 126.408,480.275M97.6,174.186C229.226,160.396 672.274,112.835 759.405,103.248M759.405,103.248C759.362,101.354 781.682,302.068 790.594,366.23M126.592,478.811C125.83,475.817 612.576,395.591 647.701,390.102M675.804,384.748C707.002,379.215 764.522,370.878 790.594,366.23M130.458,482.78C130.344,482.69 384.605,682.13 391.772,689.298M391.772,689.298C418.121,683.423 482.296,668.639 560.083,650.671C738.93,609.358 989.733,551.216 1018.19,545.832M790.594,366.23C790.439,367.589 1014.27,545.832 1018.19,545.832M446.85,156.905C447.603,163.349 449.26,173.543 450.071,180.568M468.611,336.209C471.288,360.085 472.356,364.847 476.33,398.444M488.736,430.007C497.202,437.657 515.564,451.46 545.339,476.179M609.454,527.461C629.312,542.159 706.237,604.451 719.209,613.9" style="fill:none;stroke:rgb(1,0,35);stroke-width:9.35px;"/>
            </g>
            <g transform="matrix(1,0,0,1,-10.9071,6.85722)">
                <path d="M456.428,238.407C458.326,252.452 462.349,287.704 464.156,299.407" style="fill:none;stroke:rgb(1,0,35);stroke-width:9.35px;"/>
            </g>
        </g>
        <g transform="matrix(0.862501,-0.0978004,0.0797861,0.804487,-28.8008,-6.78758)">
            <text x="191.376px" y="348.496px" style="font-family:'ChalkboardSE-Regular', 'Chalkboard SE', cursive;font-size:153.167px;fill:rgb(214,0,0);">o<tspan x="268.382px 339.465px 377.714px 458.614px 540.697px 655.953px 694.202px " y="348.496px 348.496px 348.496px 348.496px 348.496px 348.496px 348.496px ">rigami-</tspan></text>
        </g>
        <g transform="matrix(0.62662,-0.0996402,0.0996402,0.62662,160.792,65.4729)">
            <g transform="matrix(1,0,-0.0152728,1,8.09356,0)">
                <text x="186.225px" y="529.932px" style="font-family:'ChalkboardSE-Regular', 'Chalkboard SE', cursive;font-size:207.733px;fill:rgb(214,0,0);">th<tspan x="397.63px 449.506px " y="529.932px 529.932px ">in</tspan></text>
            </g>
            <g transform="matrix(1,0,-0.0152728,1,8.09356,0)">
                <text x="558.767px" y="529.932px" style="font-family:'ChalkboardSE-Regular', 'Chalkboard SE', cursive;font-size:207.733px;fill:rgb(214,0,0);">g</text>
            </g>
            <g transform="matrix(1,0,-0.0152728,1,8.09356,0)">
                <text x="687.787px" y="529.932px" style="font-family:'ChalkboardSE-Regular', 'Chalkboard SE', cursive;font-size:207.733px;fill:rgb(214,0,0);">!</text>
            </g>
        </g>
        <g transform="matrix(0.933938,-0.0447249,0.0447249,0.933938,-536.698,-213.522)">
            <g transform="matrix(0.954122,-0.299419,0.356731,0.936136,-270.925,339.847)">
                <text x="947.052px" y="881.263px" style="font-family:'ChalkboardSE-Regular', 'Chalkboard SE', cursive;font-size:95.8px;fill:rgb(214,0,0);">+</text>
            </g>
            <g transform="matrix(0.965156,-0.27566,0.361887,1.02893,-276.569,253.755)">
                <text x="1010.95px" y="861.58px" style="font-family:'ChalkboardSE-Regular', 'Chalkboard SE', cursive;font-size:95.8px;fill:rgb(214,0,0);">i</text>
            </g>
            <g transform="matrix(0.970629,-0.255723,0.340619,1.03616,-261.424,232.174)">
                <text x="1029px" y="856.229px" style="font-family:'ChalkboardSE-Regular', 'Chalkboard SE', cursive;font-size:95.8px;fill:rgb(214,0,0);">n</text>
            </g>
            <g transform="matrix(0.977681,-0.227275,0.310221,1.04567,-238.248,204.873)">
                <text x="1071.23px" y="845.065px" style="font-family:'ChalkboardSE-Regular', 'Chalkboard SE', cursive;font-size:95.8px;fill:rgb(214,0,0);">s</text>
            </g>
            <g transform="matrix(0.985694,-0.18953,0.269803,1.05682,-209.912,162.172)">
                <text x="1106.47px" y="836.692px" style="font-family:'ChalkboardSE-Regular', 'Chalkboard SE', cursive;font-size:95.8px;fill:rgb(214,0,0);">t</text>
            </g>
            <g transform="matrix(0.993041,-0.146234,0.223318,1.06761,-177.206,111.29)">
                <text x="1144.38px" y="829.174px" style="font-family:'ChalkboardSE-Regular', 'Chalkboard SE', cursive;font-size:95.8px;fill:rgb(214,0,0);">r</text>
            </g>
            <g transform="matrix(1.00033,-0.0828289,0.155019,1.07964,-127.954,32.5718)">
                <text x="1184.47px" y="822.911px" style="font-family:'ChalkboardSE-Regular', 'Chalkboard SE', cursive;font-size:95.8px;fill:rgb(214,0,0);">u</text>
            </g>
            <g transform="matrix(1.00375,-0.00219656,0.0677812,1.0886,-60.1129,-69.8521)">
                <text x="1230.09px" y="818.855px" style="font-family:'ChalkboardSE-Regular', 'Chalkboard SE', cursive;font-size:95.8px;fill:rgb(214,0,0);">c</text>
            </g>
            <g transform="matrix(1.00004,0.0861855,-0.0283266,1.09034,23.1234,-183.206)">
                <text x="1268px" y="818.241px" style="font-family:'ChalkboardSE-Regular', 'Chalkboard SE', cursive;font-size:95.8px;fill:rgb(214,0,0);">t</text>
            </g>
            <g transform="matrix(0.991465,0.15656,-0.10522,1.08563,97.6035,-274.887)">
                <text x="1306.42px" y="821.642px" style="font-family:'ChalkboardSE-Regular', 'Chalkboard SE', cursive;font-size:95.8px;fill:rgb(214,0,0);">i</text>
            </g>
            <g transform="matrix(0.970285,0.257025,-0.215572,1.0692,216.952,-397.617)">
                <text x="1325.23px" y="823.724px" style="font-family:'ChalkboardSE-Regular', 'Chalkboard SE', cursive;font-size:95.8px;fill:rgb(214,0,0);">o</text>
            </g>
            <g transform="matrix(0.916039,0.410349,-0.385415,1.02035,435.974,-577.342)">
                <text x="1365.61px" y="833.688px" style="font-family:'ChalkboardSE-Regular', 'Chalkboard SE', cursive;font-size:95.8px;fill:rgb(214,0,0);">n</text>
            </g>
            <g transform="matrix(0.836001,0.555532,-0.548106,0.942991,697.257,-732.368)">
                <text x="1405.7px" y="851.521px" style="font-family:'ChalkboardSE-Regular', 'Chalkboard SE', cursive;font-size:95.8px;fill:rgb(214,0,0);">s</text>
            </g>
        </g>
    </g>
</svg>
