<?xml version="1.0" encoding="UTF-8" standalone="no"?><!DOCTYPE svg PUBLIC "-//W3C//DTD SVG 1.1//EN" "http://www.w3.org/Graphics/SVG/1.1/DTD/svg11.dtd"><svg width="100%" height="100%" viewBox="0 0 671 448" version="1.1" xmlns="http://www.w3.org/2000/svg" xmlns:xlink="http://www.w3.org/1999/xlink" xml:space="preserve" xmlns:serif="http://www.serif.com/" style="fill-rule:evenodd;clip-rule:evenodd;stroke-linecap:round;stroke-linejoin:round;stroke-miterlimit:1.5;"><g><path d="M148.859,187.48c-15.053,0.446 -30.572,11.392 -42.869,18.626c-18.495,10.88 -58.522,39.639 -69.645,58.707c-5.881,10.082 -44.826,50.333 -10.383,97.585c16.99,23.308 36.565,45.134 71.958,54.398c17.114,4.479 105.36,23 182.693,-14.867c33.036,-16.177 33.274,-67.593 32.326,-78.715c-4.135,-48.518 -25.491,-99.126 -125.869,-135.355c-5.61,-2.025 -33.371,-4.981 -38.211,-0.379Z" style="fill:#fff;"/><path d="M439.195,212.969c-10.312,1.123 -35.926,18.947 -45.968,24.526c-40.056,22.253 -80.117,58.565 -73.095,107.722c0.719,5.03 17.645,44.309 27.002,52.496c37.317,32.653 98.583,34.541 156.095,38.42c12.454,0.84 83.081,-4.938 107.082,-14.538c9.071,-3.628 39.348,-26.582 42.124,-33.135c16.915,-39.929 -9.502,-77.246 -17.754,-99.253c-8.485,-22.626 -14.206,-56.593 -34.266,-73.309c-28.905,-24.088 -76.531,-30.93 -113.387,-24.229c-10.542,1.917 -40.775,18.276 -47.832,21.301Z" style="fill:#fffce5;"/><path d="M318.497,19.37c-8.991,-0.029 -39.968,17.386 -48.643,22.724c-32.246,19.844 -105.997,74.416 -51.654,144.882c21.476,27.848 57.138,61.485 118.239,53.676c10.768,-1.376 74.823,-13.784 94.299,-25.957c3.722,-2.327 37.678,-28.339 41.425,-38.811c11.302,-31.588 5.828,-40.068 -15.596,-81.326c-8.147,-15.689 -10.633,-29.77 -20.052,-48.079c-14.764,-28.699 -50.961,-34.688 -69.774,-34.688c-7.424,0 -42.593,1.927 -48.244,7.578Z" style="fill:#d0c1fc;"/><path d="M318.295,18.872c1.832,-1.671 6.179,-3.053 11.615,-4.122c12.779,-2.511 31.62,-3.459 36.831,-3.459c18.938,0 55.357,6.069 70.219,34.959c9.418,18.308 11.904,32.389 20.051,48.077c21.527,41.455 26.979,49.985 15.623,81.725c-1.139,3.185 -5.018,7.801 -10.016,12.748c-11.534,11.417 -29.003,24.685 -31.615,26.318c-19.518,12.199 -83.709,24.649 -94.501,26.029c-61.335,7.839 -97.14,-25.912 -118.698,-53.866c-54.602,-70.802 19.389,-125.675 51.788,-145.614c6.083,-3.743 23.115,-13.415 35.876,-18.871c5.406,-2.312 10.061,-3.859 12.827,-3.925Zm0.201,0.998c-2.657,-0.009 -7.257,1.547 -12.634,3.847c-12.715,5.436 -29.684,15.073 -35.745,18.803c-32.092,19.749 -105.604,74.021 -51.52,144.151c21.394,27.741 56.912,61.264 117.78,53.485c10.744,-1.373 74.664,-13.739 94.097,-25.885c2.599,-1.624 19.97,-14.825 31.442,-26.181c4.862,-4.812 8.669,-9.276 9.778,-12.375c11.248,-31.436 5.753,-39.867 -15.569,-80.927c-8.147,-15.69 -10.634,-29.771 -20.053,-48.081c-14.665,-28.508 -50.642,-34.417 -69.33,-34.417c-5.183,0 -23.926,0.942 -36.638,3.44c-3.242,0.637 -6.089,1.374 -8.209,2.226c-1.352,0.543 -2.402,1.124 -3.043,1.766c-0.094,0.094 -0.222,0.147 -0.355,0.146Z" style="fill:#d0c1fc;"/><path d="M213.623,191.437c-20.592,-25.23 -24.651,-54.327 -16.031,-78.526c13.35,-37.475 46.08,-66.078 82.302,-84.27c36.097,-18.129 75.571,-25.871 102.253,-22.253c21.356,2.896 34.994,8.413 44.688,16.338c9.775,7.991 15.627,18.499 21.017,31.784c6.671,16.439 12.747,37.345 26.382,62.945c16.058,30.151 9.291,56.184 -10.418,77.04c17.923,-8.204 44.428,-16.333 82.353,-8.126c60.373,13.066 74.674,45.434 84.082,74.7c3.741,11.637 6.586,22.772 11.649,31.734c22.794,40.343 25.105,69.537 16.589,90.572c-8.083,19.966 -26.049,32.983 -47.114,41.294c-30.17,11.903 -66.621,14.176 -86.419,15.169c-60.745,3.048 -114.734,-5.628 -147.669,-17.629c-14.912,-5.434 -25.646,-11.685 -31.194,-17.746c-15.747,-17.203 -25.28,-33.608 -29.859,-49.141c-1.734,9.772 -4.787,18.531 -9.391,26.313c-9.624,16.268 -25.985,28.497 -51.675,36.645c-24.594,7.8 -57.997,11.913 -102.476,12.507c-37.905,0.506 -84.253,-17.056 -114.134,-45.283c-30.712,-29.012 -44.342,-68.988 -15.638,-112.227c17.412,-26.229 55.625,-61.37 95.42,-80.507c27.352,-13.153 55.461,-18.628 78.349,-9.554c3.788,1.502 9.711,4.313 16.93,8.219Zm102.973,118.418c4.809,-14.989 14.116,-28.943 26.565,-41.776c10.288,-10.606 22.74,-20.459 36.471,-29.532c-18.006,4.767 -36.8,7.846 -54.965,9.065c-14.063,0.944 -28.441,-1.517 -43.836,-7.879c17.17,16.773 30.627,35.885 33.732,55.313c0.814,5.091 1.495,10.027 2.033,14.81Zm227.458,-113.711c-52.906,-11.45 -82.119,11.343 -96.495,17.613c-36.554,15.944 -73.083,36.402 -97.22,61.285c-15.479,15.957 -25.826,33.7 -27.247,53.315c-1.53,21.114 7.335,44.181 30.38,69.356c6.526,7.129 21.451,14.047 42.04,19.833c32.293,9.075 78.205,14.852 128.945,12.307c19.067,-0.957 54.194,-3.02 83.25,-14.484c18.42,-7.267 34.447,-18.285 41.515,-35.744c7.718,-19.064 4.632,-45.336 -16.027,-81.9c-5.367,-9.499 -8.498,-21.259 -12.463,-33.593c-8.572,-26.665 -21.669,-56.082 -76.677,-67.987Zm-307.41,4.088c33.922,27.547 61.099,39.165 87.354,37.403c49.451,-3.318 103.987,-20.639 131.676,-49.095c17.4,-17.881 23.615,-40.32 9.734,-66.382c-13.842,-25.99 -20.05,-47.197 -26.822,-63.886c-4.692,-11.562 -9.573,-20.846 -18.08,-27.802c-8.589,-7.021 -20.781,-11.605 -39.703,-14.171c-25.177,-3.414 -62.361,4.174 -96.421,21.28c-33.935,17.043 -64.863,43.58 -77.37,78.689c-9.374,26.312 -1.179,58.944 29.632,83.964Zm-43.637,-7.717c-20.571,-8.156 -45.747,-2.552 -70.33,9.27c-38.106,18.325 -74.75,51.91 -91.423,77.026c-25.442,38.324 -13.047,73.712 14.174,99.427c28.053,26.5 71.548,43.028 107.133,42.553c43.218,-0.577 75.689,-4.46 99.586,-12.04c22.802,-7.232 37.549,-17.766 46.091,-32.205c11.622,-19.644 11.856,-46.092 6.45,-79.922c-3.135,-19.615 -18.325,-38.583 -36.408,-54.968c-27.93,-25.308 -63.082,-44.308 -75.274,-49.142Z" style="fill:#010022;"/></g><g transform="matrix(0.999411,0.034326,-0.046442,0.997028,0.563503,1.913102)"><g transform="matrix(92.348727,0,0,92.348727,230.570174,327.813517)"></g><text x="134.899px" y="327.814px" style="font-family:'ChalkboardSE-Regular', 'Chalkboard SE', cursive;font-size:92.349px;fill:#d60000;">g<tspan x="185.569px " y="327.814px ">o</tspan></text></g><g transform="matrix(0.999374,0.035374,-0.046361,0.965166,1.17762,-6.344782)"><g transform="matrix(92.348727,0,0,92.348727,609.175975,346.066453)"></g><text x="396.274px" y="346.066px" style="font-family:'ChalkboardSE-Regular', 'Chalkboard SE', cursive;font-size:92.349px;fill:#d60000;">b<tspan x="445.912px 492.742px 536.828px " y="346.066px 346.066px 346.066px ">ack</tspan>!</text></g><g><path d="M274.077,139.538c6.454,8.202 16.336,6.338 21.089,0.316" style="fill:none;stroke:#000;stroke-width:10px;"/><ellipse cx="264.466" cy="116.609" rx="2.703" ry="5.644" style="fill:#d60000;"/><path d="M264.466,105.965l2.421,0.48l1.428,0.803l1.066,0.955c1.472,1.594 2.788,4.708 2.788,8.406c-0,3.698 -1.316,6.812 -2.788,8.406l-1.066,0.955l-1.428,0.803l-2.421,0.48l-2.421,-0.48l-1.428,-0.803l-1.066,-0.955c-1.472,-1.594 -2.788,-4.708 -2.788,-8.406c0,-3.698 1.316,-6.812 2.788,-8.406l1.066,-0.955l1.428,-0.803l2.421,-0.48Z"/><ellipse cx="303.436" cy="116.981" rx="2.703" ry="5.644" style="fill:#d60000;"/><path d="M303.436,106.337l2.421,0.48l1.428,0.803l1.066,0.955c1.472,1.594 2.788,4.708 2.788,8.406c0,3.698 -1.316,6.812 -2.788,8.406l-1.066,0.955l-1.428,0.803l-2.421,0.48l-2.421,-0.48l-1.428,-0.803l-1.066,-0.955c-1.472,-1.594 -2.788,-4.708 -2.788,-8.406c-0,-3.698 1.316,-6.812 2.788,-8.406l1.066,-0.955l1.428,-0.803l2.421,-0.48Z"/></g></svg>