<?xml version="1.0" encoding="UTF-8" standalone="no"?><!DOCTYPE svg PUBLIC "-//W3C//DTD SVG 1.1//EN" "http://www.w3.org/Graphics/SVG/1.1/DTD/svg11.dtd"><svg width="100%" height="100%" viewBox="0 0 240 240" version="1.1" xmlns="http://www.w3.org/2000/svg" xmlns:xlink="http://www.w3.org/1999/xlink" xml:space="preserve" xmlns:serif="http://www.serif.com/" style="fill-rule:evenodd;clip-rule:evenodd;stroke-linejoin:round;stroke-miterlimit:2;"><path d="M231.496,108.412c-3.222,-11.116 -17.683,-76.757 -83.717,-94.271c-31.443,-8.339 -74.288,3.675 -90.88,16.557c-28.427,22.069 -49.151,53.041 -50.482,90.762c-1.379,39.089 11.511,76.954 53.823,98.573c34.026,17.386 88.663,11.465 110.9,2.612c42.526,-16.931 74.005,-67.14 60.356,-114.233Z" style="fill:#ffffe7;"/><path d="M236.299,107.02c14.358,49.541 -18.572,102.459 -63.309,120.27c-23.065,9.183 -79.732,15.228 -115.025,-2.805c-44.333,-22.652 -57.989,-62.244 -56.545,-103.201c1.385,-39.259 22.826,-71.566 52.413,-94.535c17.389,-13.5 62.275,-26.18 95.228,-17.44c68.607,18.195 83.891,86.162 87.238,97.712Zm-9.605,2.784c-3.096,-10.683 -16.734,-73.998 -80.197,-90.829c-29.933,-7.939 -70.736,3.41 -86.532,15.673c-27.268,21.169 -47.275,50.807 -48.551,86.989c-1.313,37.221 10.811,73.358 51.101,93.944c32.76,16.739 85.366,10.943 106.776,2.419c40.315,-16.05 70.342,-63.551 57.403,-108.196Z"/><g><path d="M108.746,66.665c-2.786,2.109 14.071,-5.3 16.998,-7.206c6.898,-4.492 26.452,-23.349 34.991,-19.87c14.181,5.777 29.952,16.603 28.915,32.226c-0.458,6.901 -8.407,11.271 -9.737,17.56c-0.117,0.552 -1.344,0.843 -0.539,1.558c8.146,7.234 19.529,12.327 26.64,20.432c0.876,0.998 0.342,8.958 0.447,10.749c0.193,3.317 0.025,14.462 -1.034,17.751c-4.332,13.454 -9.913,12.555 -18.792,20.326c-3.512,3.073 -15.711,8.712 -17.265,13.676c-1.492,4.765 -5.176,9.64 -6.177,14.372c-0.358,1.695 0.438,5.008 -0.267,6.212c-1.343,2.291 -9.418,3.661 -12.053,4.571c-8.635,2.982 -23.62,14.468 -34.177,12.25c-1.285,-0.27 -4.284,-6.025 -5.183,-7.148c-6.419,-8.023 -5.103,-16.841 -14.894,-22.56c-3.15,-1.84 -9.651,1.005 -12.863,1.476c-6.812,0.998 -14.43,0.794 -21.202,0.351c-11.552,-0.756 -17.857,5.901 -21.744,-8.956c-0.534,-2.041 -0.786,-3.782 -1.061,-5.864c-0.452,-3.419 -4.415,-5.833 -3.547,-9.938c1.956,-9.251 8.596,-19.46 14.938,-25.933c1.162,-1.186 4.992,-9.524 4.501,-11.4c-2.986,-11.414 -3.212,-20.013 -6.406,-32.22c-2.099,-8.022 -6.608,-8.136 -2.046,-15.055c3.158,-4.79 7.623,-7.616 11.647,-11.551c2.199,-2.151 8.112,-10.627 11.204,-11.435c6.579,-1.721 19.228,5.614 24.517,8.703c2.213,1.293 13.156,5.069 13.733,7.273" style="fill:#ffb3d8;"/><path d="M103.374,130.695c-2.768,-0.212 -4.551,-2.138 -7.326,-2.462c-18.901,-2.21 -30.926,-2.058 -43.569,-18.612c-10.57,-13.84 -14.643,-30.321 -1.367,-42.737c3.918,-3.665 12.479,-8.462 17.194,-10.667c5.192,-2.428 9.354,0.072 15.346,1.006c7.283,1.135 20.271,5.037 24.405,10.193c10.683,13.322 3.486,28.194 3.486,44.393c0,6.296 1.001,14.068 -2.066,19.806c-6.818,12.754 -20.226,29.768 -17.917,44.887c1.626,10.648 14.009,30.548 27.214,31.92c7.502,0.78 14.727,-2.078 21.693,-3.381c3.82,-0.715 7.828,-0.211 11.363,-2.415c3.059,-1.907 3.435,-5.662 6.198,-7.729c2.419,-1.81 3.757,-4.129 5.165,-6.763c9.999,-18.703 6.367,-18.457 -10.276,-31.799c-4.506,-3.612 -14.177,-8.567 -19.165,-11.677c-7.359,-4.588 -15.645,-7.11 -22.726,-12.077c-0.928,-0.651 -7.231,-1.95 -7.231,-0.966" style="fill:#ff7073;"/><path d="M85.002,187.703c-3.309,-0.025 -12.542,0.064 -38.036,0.883c-4.271,0.137 -6.682,0.246 -7.226,0.178c-2.926,-0.361 -3.925,-2.849 -4.081,-3.236c-0.002,-0.006 -5.077,-13.721 -7.597,-23.089c-2.553,-9.491 -1.546,-10.608 0.689,-13.737c4.18,-5.853 17.556,-22.787 22.693,-29.829c0.21,-0.406 0.453,-0.751 0.684,-1.031c-3.266,-7.982 -15,-30.627 -15.977,-35.787c-0.589,-3.107 0.829,-4.593 3.069,-7.076c4.276,-4.74 23.869,-25.146 28.664,-27.748c1.395,-0.757 2.642,-1.11 6.577,-0.234c10.311,2.294 30.298,12.106 37.651,15.803c43.71,-25.273 48.816,-25.531 49.747,-25.715c1.069,-0.211 2.029,-0.209 2.874,-0.044c0.727,0.08 1.376,0.341 2.971,1.41c-0.036,0.036 -0.076,0.074 -0.118,0.115c0.008,0.008 0.015,0.016 0.023,0.024c0.042,-0.043 0.082,-0.083 0.12,-0.122c1.167,0.783 2.836,1.995 5.401,3.877c3.418,2.507 21.508,15.897 24.041,18.638c2.252,2.437 1.375,4.85 1.118,5.874c-2.508,10.001 -7.785,19.429 -10.612,28.696c7.131,5.975 25.587,20.545 27.954,23.714c0.206,0.276 1.464,1.96 1.087,4.16c-0.274,1.602 -1.147,1.374 -2.847,10.382c-0.724,3.835 -2.184,13.832 -5.62,19.349c-0.836,1.342 -0.961,1.663 -15.132,8.86c-6.64,3.372 -16.172,8.109 -20.526,10.269c-0.008,0.011 -0.016,0.021 -0.025,0.032c-3.336,13.471 -6.463,22.689 -8.584,27.29c-2.769,6.006 -4.84,7.443 -7.612,8.113c-7.492,1.809 -41.86,8.615 -45.857,8.512c-3.694,-0.095 -4.744,-3.218 -4.78,-3.301c-0.083,-0.189 -0.258,-0.854 -0.304,-1.506c-2.198,-5.169 -13.082,-19.129 -18.381,-23.134c-0.709,-0.052 -1.41,-0.25 -2.051,-0.59Zm82.728,-149.233c-0.008,-0.006 -0.017,-0.011 -0.025,-0.017c0.6,-0.585 0.48,-0.446 0.025,0.017Zm-108.625,86.873c-0.119,0.161 -0.242,0.326 -0.368,0.496c-5.885,7.936 -18.614,24.062 -22.116,29.063c0.615,4.823 4.987,17.53 7.206,23.784c19.563,-0.637 32.786,-0.984 39.504,-0.981c0.675,-2.233 1.841,-5.425 3.806,-10.174c1.1,-2.657 9.624,-22.728 16.051,-31.233c-11.023,-3.764 -36.053,-10.831 -44.084,-10.954Zm100.994,-80.16l0.034,0.042l0.003,-0.002c-0.012,-0.013 -0.024,-0.027 -0.037,-0.04Zm2.678,2.023c-6.492,2.245 -26.617,13.221 -45.605,24.216c0.256,7.746 0.272,38.437 0.44,53.626c15.347,-8.796 49.923,-29.429 60.398,-32.148c2.667,-8.893 7.298,-17.228 10.052,-26.622c-5.851,-4.794 -20.229,-15.509 -25.286,-19.072Zm-55.609,24.304c-2.901,-1.451 -7.426,-3.703 -13.261,-6.381c-13.675,-6.278 -19.629,-7.981 -22.074,-8.466c-5.267,4.259 -20.015,19.256 -25.288,25.137c2.847,7.364 12.853,26.863 15.397,33.718c3.681,0.365 8.929,1.345 16.63,3.247c13.642,3.368 26.24,7.483 29.064,8.479c-0.187,-14.343 -0.196,-47.824 -0.469,-55.733Zm61.398,91.613c6.917,-3.425 26.081,-12.938 31.613,-16.085c3.236,-6.663 3.153,-15 5.823,-23.291c-5.665,-5.107 -19.84,-16.362 -25.476,-21.159c-8.965,2.339 -44.284,23.357 -59.26,31.867c13.732,4.884 37.867,22.104 47.3,28.668Zm12.344,-60.627c0.024,-0.002 0.047,-0.005 0.069,-0.008c-0.024,0.001 -0.047,0.002 -0.069,0.003c0,0.002 0,0.003 0,0.005Zm-87.897,77.774c2.335,1.77 5.64,4.905 10.283,10.526c4.666,5.649 8.345,11.037 10.049,14.106c0.174,0.314 0.335,0.612 0.483,0.897c8.91,-1.39 30.357,-5.527 39.627,-7.668c2.655,-3.848 6.519,-16.708 9.114,-27.015c-9.596,-6.715 -36.636,-25.692 -46.892,-27.893c-2.034,-0.437 -2.998,-1.869 -3.169,-2.122c-0.061,-0.09 -0.119,-0.183 -0.174,-0.278c-0.144,0.049 -0.282,0.089 -0.422,0.132c0.064,0.08 0.129,0.16 0.193,0.241c-4.384,4.358 -16.139,29.526 -19.091,39.073Zm70.909,-138.077c0.034,-0.034 0.069,-0.068 0.103,-0.102l-0.094,0.071c-0.003,0.01 -0.006,0.02 -0.009,0.032Zm-53.532,99.554c-0.026,0.02 -0.052,0.04 -0.078,0.06l0.083,-0.008l-0.005,-0.053Z" style="fill:#010023;"/><ellipse cx="113.157" cy="132.698" rx="12.587" ry="12.576" style="fill:#fffec5;"/><path d="M113.157,115.854c9.615,0.181 14.292,6.859 15.83,11.052c4.255,11.604 -5.143,23.809 -17.547,22.549c-11.745,-1.193 -18.683,-13.912 -13.289,-24.429c1.358,-2.649 3.417,-4.911 5.922,-6.516c4.299,-2.755 8.419,-2.64 9.085,-2.657Zm-0.084,8.533c-0.078,0.004 -0.157,0.007 -0.24,0.01c-6.334,0.197 -10.374,7.538 -6.462,13.104c3.883,5.523 12.704,4.319 14.761,-2.432c1.481,-4.861 -1.916,-10.6 -7.987,-10.679c-0.026,-0 -0.05,-0.001 -0.072,-0.003Z" style="fill:#010023;"/></g></svg>