<?xml version="1.0" encoding="UTF-8" standalone="no"?><!DOCTYPE svg PUBLIC "-//W3C//DTD SVG 1.1//EN" "http://www.w3.org/Graphics/SVG/1.1/DTD/svg11.dtd"><svg width="100%" height="100%" viewBox="0 0 201 201" version="1.1" xmlns="http://www.w3.org/2000/svg" xmlns:xlink="http://www.w3.org/1999/xlink" xml:space="preserve" xmlns:serif="http://www.serif.com/" style="fill-rule:evenodd;clip-rule:evenodd;stroke-linejoin:round;stroke-miterlimit:2;"><g><path d="M85.24,35.605c-2.881,2.173 12.349,-8.138 15.375,-10.101c7.135,-4.628 29.561,-21.379 38.392,-17.795c14.667,5.952 28.29,16.724 27.217,32.82c-0.474,7.111 -6.007,11.995 -7.383,18.474c-0.121,0.569 -1.39,0.869 -0.557,1.605c8.425,7.453 20.197,12.701 27.551,21.051c0.906,1.029 0.354,9.229 0.462,11.075c0.2,3.417 0.026,14.9 -1.069,18.289c-4.48,13.861 -10.252,12.935 -19.435,20.941c-3.632,3.167 -16.249,8.976 -17.856,14.09c-1.543,4.909 -5.353,9.932 -6.388,14.807c-0.371,1.746 0.453,5.16 -0.277,6.4c-1.389,2.361 -9.74,3.772 -12.466,4.71c-8.93,3.073 -24.428,14.906 -35.347,12.621c-1.329,-0.278 -4.431,-6.207 -5.36,-7.365c-6.638,-8.266 -5.278,-17.351 -15.403,-23.243c-3.257,-1.896 -9.981,1.036 -13.303,1.521c-7.045,1.028 -14.923,0.818 -21.928,0.361c-11.947,-0.779 -18.468,6.08 -22.489,-9.228c-0.552,-2.103 -0.813,-3.896 -1.097,-6.042c-0.467,-3.523 -4.566,-6.01 -3.668,-10.239c2.023,-9.531 12.113,-19.128 18.673,-25.798c1.202,-1.222 7.993,-6.833 7.485,-8.766c-3.089,-11.759 -9.376,-24.519 -12.679,-37.096c-2.171,-8.264 -6.834,-8.382 -2.116,-15.511c3.266,-4.935 7.884,-7.846 12.045,-11.901c2.274,-2.216 8.39,-10.948 11.587,-11.782c6.804,-1.774 19.886,5.784 25.356,8.967c2.289,1.332 13.606,5.223 14.203,7.493" style="fill:#fffdff;"/><path d="M79.684,101.574c-2.863,-0.219 -4.707,-2.203 -7.577,-2.537c-19.548,-2.277 -31.985,-2.121 -45.059,-19.175c-10.932,-14.259 -15.144,-31.239 -1.414,-44.032c4.053,-3.776 15.408,-10.719 20.284,-12.991c5.37,-2.502 7.172,2.075 13.369,3.037c7.532,1.17 20.965,5.19 25.241,10.501c11.049,13.726 3.605,29.048 3.605,45.738c0,6.487 1.036,14.494 -2.137,20.405c-7.052,13.14 -20.919,30.669 -18.53,46.246c1.682,10.97 14.488,31.473 28.145,32.887c7.758,0.803 15.231,-2.141 22.435,-3.484c3.951,-0.736 8.095,-0.217 11.752,-2.488c3.163,-1.965 3.552,-5.833 6.41,-7.963c2.502,-1.865 3.885,-4.254 5.342,-6.968c10.341,-19.27 6.584,-19.016 -10.628,-32.762c-4.66,-3.721 -14.662,-8.826 -19.82,-12.03c-7.611,-4.727 -16.18,-7.325 -23.504,-12.442c-0.96,-0.671 -7.478,-2.009 -7.478,-0.995" style="fill:#bfc4e8;"/><path d="M60.233,160.164c-11.62,-0.071 -44.757,1.114 -45.56,1.123c-0.468,0.005 -3.531,0.036 -4.859,-3.265c-0.003,-0.007 -5.249,-14.133 -7.853,-23.776c-2.631,-9.743 -1.59,-10.856 0.69,-14.037c4.55,-6.346 19.657,-25.368 24.244,-31.802c-3.313,-8.128 -15.556,-31.655 -16.566,-36.969c-0.595,-3.131 0.825,-4.616 3.139,-7.171c4.487,-4.955 24.689,-25.899 29.6,-28.554c1.442,-0.78 2.669,-1.066 6.309,-0.302c10.581,2.222 31.658,12.536 39.348,16.39c45.272,-26.081 50.544,-26.339 51.48,-26.523c1.08,-0.212 2.048,-0.21 2.899,-0.045c0.854,0.122 1.656,0.513 2.984,1.401c-0.038,0.037 -0.079,0.078 -0.124,0.121c0.008,0.008 0.015,0.016 0.023,0.024c0.044,-0.045 0.087,-0.088 0.126,-0.128c0.838,0.561 1.886,1.32 3.286,2.331c3.779,2.729 24.887,18.228 27.332,21.059c1.959,2.269 1.246,4.508 1.086,5.168c-2.575,10.602 -8.287,20.814 -11.145,30.201c7.313,6.111 26.528,21.221 28.967,24.474c0.207,0.277 1.477,1.969 1.097,4.179c-0.28,1.63 -1.181,1.394 -2.943,10.695c-0.752,3.969 -2.256,14.225 -5.793,19.887c-0.837,1.339 -0.917,1.649 -15.584,9.069c-6.911,3.496 -16.854,8.418 -21.315,10.623c-1.985,7.983 -6.318,24.223 -10.499,31.306c-2.802,4.747 -5.149,4.926 -7.738,5.512c-8.94,2.023 -41.816,8.498 -45.79,8.396c-3.304,-0.085 -4.999,-2.644 -5.099,-4.856c-1.975,-4.855 -13.345,-19.513 -18.915,-23.793c-0.988,0.013 -1.972,-0.246 -2.828,-0.739Zm85.881,-153.513c-0.008,-0.006 -0.017,-0.011 -0.025,-0.017c0.587,-0.574 0.472,-0.439 0.025,0.017Zm-115.374,93.33c-6.674,8.761 -17.138,22.03 -20.27,26.496c0.621,4.983 5.214,18.269 7.505,24.695c19.872,-0.645 34.035,-1.022 41.125,-1.015c0.79,-2.646 2.243,-6.624 4.857,-12.721c3.039,-7.088 10.357,-23.062 15.773,-30.153c-11.854,-3.799 -39.902,-9.317 -46.843,-8.385c-0.11,0.135 -0.226,0.263 -0.353,0.383c-0.463,0.437 -1.152,0.585 -1.779,0.696c-0.004,0.001 -0.009,0.002 -0.014,0.002Zm107.748,-86.596l0.034,0.042l0.003,-0.002c-0.012,-0.013 -0.025,-0.027 -0.037,-0.04Zm2.66,1.999c-6.744,2.286 -27.988,13.86 -47.369,25.041c0.269,7.886 0.284,39.995 0.461,55.605c15.788,-9.005 52.032,-30.569 62.774,-33.276c2.713,-9.042 7.711,-18.23 10.453,-27.594c-6.041,-4.941 -21.13,-16.141 -26.319,-19.777Zm-57.374,25.122c-2.821,-1.407 -7.199,-3.58 -12.939,-6.222c-14.92,-6.869 -21.279,-8.659 -23.821,-9.15c-5.439,4.356 -20.87,19.994 -26.297,26.034c3.207,8.313 15.497,31.954 16.495,36.52c0.094,0.428 0.149,0.822 0.164,1.201c3.519,0.186 8.287,0.747 14.844,1.863c10.879,1.852 24.786,4.998 32.046,7.504c-0.203,-14.751 -0.201,-49.631 -0.492,-57.749Zm-15,112.196c2.404,1.8 5.837,5.027 10.689,10.881c4.323,5.215 8.528,11.083 10.672,15.043c0.091,0.169 0.178,0.333 0.261,0.493c9.183,-1.419 31.606,-5.729 41.188,-7.937c2.941,-4.186 7.249,-18.838 9.89,-29.562c-6.915,-4.638 -37.124,-24.795 -49.044,-27.29c-2.038,-0.426 -3.005,-1.878 -3.175,-2.132c-0.08,-0.12 -0.155,-0.244 -0.225,-0.371c-0.221,0.085 -0.424,0.141 -0.633,0.206c0.065,0.082 0.13,0.165 0.197,0.249c-4.554,4.476 -16.802,30.61 -19.821,40.42Zm79.903,-18.322c8.116,-4.008 25.932,-12.841 31.259,-15.867c3.392,-6.922 3.286,-15.565 6.078,-24.141c-5.854,-5.27 -20.721,-17.026 -26.499,-21.932c-8.511,1.992 -47.025,24.691 -61.636,33.008c14.806,4.826 42.091,23.134 50.052,28.458c0.238,0.124 0.492,0.279 0.748,0.474Zm11.171,-62.01c0.026,-0.002 0.049,-0.005 0.072,-0.008c-0.025,0.001 -0.049,0.002 -0.072,0.003l0,0.005Zm-17.545,-61.979c0.035,-0.035 0.07,-0.07 0.105,-0.105l-0.096,0.073c-0.003,0.01 -0.006,0.021 -0.009,0.032Zm-107.593,85.856l0.054,0.014l0.022,-0.087c-0.026,0.024 -0.051,0.049 -0.076,0.074Zm52.211,16.564c-0.026,0.02 -0.051,0.04 -0.078,0.06l0.083,-0.008l-0.005,-0.052Z" style="fill:#010023;"/><ellipse cx="89.802" cy="103.637" rx="13.017" ry="12.957" style="fill:#fffec5;"/><path d="M89.802,86.412c0.089,0.002 7.551,-0.385 13.061,5.946c7.939,9.121 4.178,23.338 -7.125,27.46c-11.136,4.061 -23.07,-4.093 -23.221,-15.958c-0.12,-9.453 7.433,-17.205 16.841,-17.441c0.148,-0.004 0.296,-0.002 0.444,-0.006Zm-0.098,8.532c-0.078,0.004 -0.159,0.008 -0.243,0.011c-7.128,0.27 -11.085,8.635 -6.349,14.278c4.466,5.321 13.421,3.491 15.191,-3.532c1.254,-4.977 -2.298,-10.672 -8.514,-10.752c-0.031,-0 -0.06,-0.002 -0.086,-0.005Z" style="fill:#010023;"/></g></svg>