<?xml version="1.0" encoding="UTF-8" standalone="no"?><!DOCTYPE svg PUBLIC "-//W3C//DTD SVG 1.1//EN" "http://www.w3.org/Graphics/SVG/1.1/DTD/svg11.dtd"><svg width="100%" height="100%" viewBox="0 0 277 277" version="1.1" xmlns="http://www.w3.org/2000/svg" xmlns:xlink="http://www.w3.org/1999/xlink" xml:space="preserve" xmlns:serif="http://www.serif.com/" style="fill-rule:evenodd;clip-rule:evenodd;stroke-linejoin:round;stroke-miterlimit:2;"><g><path d="M108.833,53.354c-3.696,3.413 19.885,-6.681 23.807,-9.817c9.247,-7.393 42.823,-37.533 53.959,-30.393c21.875,14.024 42.326,11.572 42.895,34.32c0.251,10.049 -9.453,20 -10.525,29.274c-0.094,0.814 -2.405,7.389 -1.163,8.32c12.563,9.419 23.464,17.12 34.665,27.934c1.38,1.332 9.455,10.824 9.839,13.404c0.71,4.776 -4.962,15.535 -6.041,20.433c-4.412,20.033 -12.487,19.453 -24.128,31.848c-4.604,4.902 -21.258,14.639 -22.823,22.024c-1.502,7.09 -6.116,14.623 -6.922,21.601c-0.289,2.5 1.281,7.193 0.433,9.026c-1.615,3.49 -12.948,6.515 -16.586,8.173c-11.92,5.432 -31.779,23.992 -47.123,22.144c-1.867,-0.225 -6.898,-8.168 -8.326,-9.678c-10.203,-10.785 -9.483,-23.718 -24.191,-30.733c-4.732,-2.257 -13.627,2.701 -18.146,3.797c-9.581,2.323 -20.469,3.012 -30.183,3.245c-16.569,0.397 -25.585,16.542 -33.075,-4.462c-1.029,-2.886 -5.513,-5.073 -6.178,-8.052c-1.092,-4.891 -5.26,-18.364 -4.561,-24.418c1.576,-13.643 11.268,-27.786 19.462,-37.975c1.502,-1.867 11.348,-11.497 10.403,-14.149c-5.754,-16.136 -11.249,-28.482 -17.403,-45.739c-4.044,-11.34 -10.488,-10.923 -4.891,-21.528c3.874,-7.341 9.871,-12.008 15.091,-18.224c2.853,-3.397 10.173,-16.429 14.475,-17.999c9.154,-3.341 28.15,5.643 36.096,9.433c3.324,1.585 19.422,5.639 20.533,8.755" style="fill:#fffdff;"/><path d="M109.566,146.73c-3.974,0.05 -6.868,-1.729 -10.768,-2.618c-4.403,-1.004 -51.838,-1.552 -57.963,-11.124c-32.351,-50.558 -31.446,-52.189 -14.145,-71.876c5.106,-5.811 19.877,-16.983 26.311,-20.783c7.084,-4.185 10.151,2.019 18.816,2.598c10.532,0.703 29.562,4.674 36.132,11.603c16.978,17.904 8.665,40.361 10.789,63.809c0.825,9.114 3.272,20.234 -0.35,28.935c-8.05,19.342 -28.532,48.098 -23.258,69.684c3.714,15.202 26.675,44.507 45.682,44.788c10.798,0.16 21.624,-9.406 31.385,-12.191c5.353,-1.528 11.132,-1.316 15.884,-4.963c4.111,-3.156 4.155,-8.639 7.824,-11.988c3.212,-2.932 4.815,-6.461 6.478,-10.456c11.804,-28.364 6.658,-27.539 -18.819,-44.702c-6.898,-4.647 -21.335,-10.57 -28.854,-14.428c-11.093,-5.691 -23.238,-8.271 -33.984,-14.547c-1.408,-0.822 -10.565,-1.889 -10.436,-0.465" style="fill:#debfe8;"/><path d="M90.528,229.369c-4.888,0.41 -18.193,1.756 -54.068,6.188c-9.183,1.135 -9.18,1.202 -9.949,1.177c-1.831,-0.06 -3.589,-1.218 -4.365,-2.877c-1.111,-2.372 -11.475,-24.578 -15.334,-36.789c-2.554,-8.084 -1.613,-9.536 -0.07,-12.321c4.245,-7.664 22.099,-35.422 28.936,-46.985c0.315,-0.824 0.76,-1.434 1.024,-1.755c0.229,-0.4 0.437,-0.768 0.623,-1.103c-4.798,-9.97 -26.089,-43.662 -27.951,-50.692c-0.803,-3.031 0.341,-4.592 2.292,-7.299c5.811,-8.06 31.048,-39.796 37.265,-44.313c1.795,-1.304 3.07,-1.512 6.271,-1.251c1.181,0.096 11.895,0.398 51.234,15.738c2.632,1.026 5.17,2.042 6.987,2.775c14.114,-10.12 53.124,-37.797 65.66,-43.185c1.256,-0.54 3.46,-1.46 5.664,-1.161c0.695,0.033 1.416,0.268 3.068,1.17c-0.042,0.048 -0.087,0.1 -0.136,0.156c0.009,0.008 0.019,0.016 0.028,0.024c0.049,-0.058 0.095,-0.113 0.137,-0.164c1.403,0.767 3.473,2.011 6.755,4.011c6.809,4.149 35.031,21.633 38.364,24.903c2.259,2.216 1.657,4.534 1.488,5.678c-2.213,14.994 -9.188,30.985 -11.715,44.69c9.38,6.709 40.144,27.118 43.809,31.245c0.233,0.263 1.677,1.888 1.505,4.125c-0.136,1.769 -1.488,2.461 -2.682,15.37c-0.852,9.207 -1.385,19.247 -5.036,27.45c-0.784,1.762 -0.71,2.032 -11.637,9.111c-10.601,6.867 -30.272,19.131 -36.99,23.311c-1.801,12.146 -5.959,37.132 -11.031,46.827c-2.626,5.019 -5.046,5.445 -7.496,6.259c-12.246,4.068 -57.226,17.343 -62.371,17.675c-3.619,0.234 -5.493,-2.509 -5.633,-4.708c-2.903,-6.513 -22.147,-27.536 -30.584,-32.63c-1.38,0.308 -2.848,0.063 -4.061,-0.653Zm97.316,-222.665c-0.01,-0.005 -0.02,-0.011 -0.029,-0.016c0.564,-0.648 0.454,-0.494 0.029,0.016Zm-143.638,136.289c-7.185,12.109 -25.159,40.041 -28.914,46.976c0.708,4.408 5.432,16.849 14.389,36.355c12.407,-1.545 46.354,-5.744 59.294,-6.853c0.527,-3.14 1.733,-8.171 4.275,-16.451c3.659,-11.919 13.422,-40.525 20.388,-49.565c-0.373,-0.052 -0.71,-0.184 -1.441,-0.372c-16.852,-4.341 -58.186,-11.736 -67.991,-10.09Zm136.597,-128.903l-0.002,0.001l0.096,0.094l0.004,-0.004c-0.033,-0.03 -0.066,-0.06 -0.099,-0.091Zm2.646,1.615c-9.723,3.855 -45.693,28.989 -64.286,42.345c0.029,0.225 0.055,0.5 0.104,0.881c1.38,10.783 5.982,61.522 8.099,81.772c19.037,-13.362 71.021,-51.948 85.133,-56.432c0.136,-0.043 0.268,-0.083 0.396,-0.12c2.511,-13.673 8.88,-28.343 11.38,-42.635c-8.02,-5.685 -33.922,-21.847 -40.826,-25.811Zm-74.216,43.253c-3.072,-1.234 -8.014,-3.215 -14.986,-5.82c-26.966,-10.073 -36.84,-11.623 -40.121,-11.845c-6.481,5.968 -28.399,33.148 -34.517,41.723c4.517,10.02 25.136,42.775 27.696,49.773c4.445,-0.058 10.847,0.416 20.266,1.693c15.925,2.159 36.822,6.225 47.946,9.132c0.228,0.06 1.285,0.336 2.238,1.279c-1.958,-17.894 -7.035,-74.266 -8.479,-85.241c-0.032,-0.241 -0.045,-0.473 -0.043,-0.695Zm97.806,128.769c8.913,-5.538 38.174,-23.768 44.452,-28.342c1.531,-3.8 2.484,-7.901 3.365,-17.4c0.753,-8.116 1.082,-13.598 2.555,-19.489c-7.781,-6.122 -33.26,-23.167 -41.147,-28.86c-0.078,0.011 -0.147,0.019 -0.204,0.026c0.076,-0.014 0.124,-0.035 0.149,-0.065c-0.071,-0.051 -0.14,-0.101 -0.208,-0.151l0.026,0.219c-0.06,0.006 -0.103,0.01 -0.124,0.012c0.047,-0.002 0.088,-0.005 0.124,-0.01l0,0.002c-10.407,2.501 -66.073,43.316 -81.968,54.541c-1.673,1.182 -3.023,2.126 -4.126,2.882c1.123,0.057 2.895,0.315 5.781,1.03c21.435,5.317 58.274,27.776 71.324,35.605Zm-108.185,33.23c3.195,1.794 8.131,5.483 15.742,13.135c3.868,3.889 14.467,15.076 18.724,22.581c11.559,-2.816 44.731,-12.459 57.891,-16.882c3.547,-5.012 7.886,-26.386 10.457,-43.629c-12.668,-7.63 -54.734,-33.151 -72.712,-35.142c-2.044,-0.226 -3.154,-1.599 -3.346,-1.836c-0.402,-0.497 -0.718,-1.08 -0.901,-1.693c-0.044,-0.147 -0.19,-0.637 -0.207,-1.318c-0.284,1.024 -0.616,1.339 -0.717,1.435c-0.935,0.886 -1.434,0.921 -2.079,1.239c0.072,0.087 0.148,0.177 0.227,0.272c-5.968,6.396 -20.899,49.114 -23.078,61.838Zm117.174,-127.291l-0,-0.002c0.01,-0.001 0.021,-0.002 0.032,-0.003c-0.01,0.002 -0.021,0.003 -0.032,0.005Zm-91.355,60.485c0.019,0.162 0.029,0.318 0.033,0.464c0.051,-0.172 0.114,-0.348 0.189,-0.526c-0.076,0.024 -0.15,0.044 -0.222,0.062Zm-4.047,5.462c-0.024,0.022 -0.048,0.045 -0.073,0.068l0.083,-0.015l-0.01,-0.052Z" style="fill:#010023;"/><path d="M122.129,130.162c9.904,-0.897 18.684,6.532 19.594,16.579c0.91,10.047 -6.393,18.932 -16.297,19.829c-9.904,0.897 -18.684,-6.532 -19.594,-16.579c-0.91,-10.047 6.393,-18.932 16.297,-19.829Z" style="fill:#fffec5;"/><path d="M121.744,125.911c0.061,-0.004 9.822,-1.424 17.696,6.451c10.771,10.774 7.975,29.018 -5.371,36.026c-13.471,7.073 -29.972,-1.383 -32.313,-16.583c-0.958,-6.219 0.68,-12.405 4.371,-17.239c6.275,-8.216 15.223,-8.612 15.617,-8.655Zm0.707,8.506c-0.038,0.004 -0.076,0.009 -0.115,0.013c-10.483,1.151 -15.806,13.193 -9.798,21.971c5.111,7.468 16.419,8.311 22.304,0.314c5.869,-7.976 1.704,-20.072 -8.549,-22.115c-1.777,-0.354 -3.49,-0.211 -3.793,-0.186c-0.017,0.001 -0.034,0.003 -0.05,0.003Z" style="fill:#010023;"/></g></svg>