<?xml version="1.0" encoding="UTF-8" standalone="no"?><!DOCTYPE svg PUBLIC "-//W3C//DTD SVG 1.1//EN" "http://www.w3.org/Graphics/SVG/1.1/DTD/svg11.dtd"><svg width="100%" height="100%" viewBox="0 0 240 240" version="1.1" xmlns="http://www.w3.org/2000/svg" xmlns:xlink="http://www.w3.org/1999/xlink" xml:space="preserve" xmlns:serif="http://www.serif.com/" style="fill-rule:evenodd;clip-rule:evenodd;stroke-linejoin:round;stroke-miterlimit:2;"><path d="M225.959,103.008c-3.277,-11.307 -0.872,-77.613 -68.04,-95.427c-31.983,-8.482 -77.606,12.638 -94.483,25.741c-28.915,22.448 -53.933,50.795 -55.286,89.164c-1.403,39.76 16.068,75.293 59.105,97.283c34.611,17.684 97.396,17.658 120.015,8.653c43.256,-17.221 52.572,-77.513 38.689,-125.414Z" style="fill:#d0c1fc;"/><path d="M230.761,101.616c8.645,29.829 8.526,64.284 -2.572,90.938c-7.657,18.389 -20.486,33.115 -39.07,40.513c-23.395,9.314 -88.342,9.445 -124.14,-8.846c-45.068,-23.027 -63.296,-60.276 -61.827,-101.911c1.408,-39.913 27.137,-69.585 57.217,-92.937c10.485,-8.14 31.667,-19.311 54.103,-25.014c15.304,-3.891 31.174,-5.205 44.728,-1.61c49.583,13.15 63.321,51.264 68.224,77.095c1.951,10.278 2.375,18.451 3.337,21.772Zm-9.605,2.784c-1.004,-3.463 -1.523,-11.974 -3.557,-22.691c-4.395,-23.158 -16.51,-57.505 -60.963,-69.294c-12.033,-3.191 -26.114,-1.818 -39.7,1.636c-20.9,5.313 -40.667,15.639 -50.435,23.222c-27.751,21.545 -52.056,48.567 -53.355,85.391c-1.336,37.885 15.376,71.701 56.383,92.654c33.423,17.078 94.047,17.157 115.891,8.46c16.021,-6.378 26.936,-19.213 33.537,-35.066c10.289,-24.71 10.213,-56.657 2.199,-84.31Z"/><path d="M159.807,82.71c-2.015,-0.646 -3.475,-2.535 -3.475,-4.763c0,-2.76 2.24,-5 5,-5l1.701,0.26l1.67,0.837c-0.172,-0.116 -0.365,-0.218 -0.587,-0.312c2.544,1.069 3.742,4.002 2.674,6.546c-1.069,2.544 -4.002,3.742 -6.546,2.674l-0.437,-0.243Zm-0.122,-0.068l-0.674,-0.375c0.22,0.151 0.442,0.276 0.674,0.375Zm0.555,0.185c0.33,0.081 0.688,0.12 1.092,0.12c-0.375,0 -0.741,-0.041 -1.092,-0.12Z"/><path d="M180.576,123.953c2.755,-0.165 5.125,1.937 5.291,4.691c0.165,2.755 -1.937,5.125 -4.691,5.291c-0.695,0.042 -1.388,0.041 -2.083,0.041c-2.76,0 -5,-2.24 -5,-5c0,-2.76 2.24,-5 5,-5c0.496,0 0.989,0.007 1.484,-0.023Z"/><path d="M184.643,103.774c2.198,0.409 3.926,2.268 4.073,4.601c0.174,2.754 -1.92,5.131 -4.674,5.306l-2.004,-0.188c-0.653,-0.167 -1.24,-0.461 -1.93,-0.806c-2.468,-1.234 -3.47,-4.24 -2.236,-6.708c1.234,-2.468 4.24,-3.47 6.708,-2.236c0.02,0.01 0.041,0.021 0.063,0.032Z"/><path d="M87.607,199.218c0.382,-2.381 2.448,-4.203 4.937,-4.203c2.76,0 5,2.24 5,5c0,-0.071 -0.003,-0.118 -0.005,-0.151l-0.29,2.092l-0.47,0.971c-1.397,2.38 -4.464,3.177 -6.843,1.78c-1.946,-1.143 -2.834,-3.402 -2.329,-5.489Zm-0.054,1.1c0,0.061 0.002,0.123 0.006,0.183l-0.006,-0.183Z"/><path d="M76.179,182.706c-1.028,-1.502 -1.198,-3.513 -0.269,-5.22c1.319,-2.424 4.358,-3.32 6.782,-2.001c-0.071,-0.039 -0.125,-0.064 -0.165,-0.083l1.349,0.877l0.851,0.996l0.517,1.041l0.288,2.092c0.002,-0.038 0.004,-0.088 0.004,-0.155c0,2.76 -2.24,5 -5,5c-1.869,0 -3.5,-1.028 -4.358,-2.549Zm-0.64,-2.506l0.013,-0.403c-0.009,0.141 -0.013,0.275 -0.013,0.403Zm2.488,4.125c0.109,0.059 0.226,0.117 0.351,0.175l-0.351,-0.175Z"/><path d="M103.837,184.489c1.889,2.012 1.789,5.179 -0.223,7.068c-2.012,1.889 -5.179,1.789 -7.068,-0.223c-0.161,-0.172 -0.068,-0.074 -0.284,-0.289c-1.951,-1.951 -1.951,-5.12 0,-7.071c1.951,-1.951 5.12,-1.951 7.071,0c0.383,0.383 0.216,0.211 0.503,0.516Z"/><path d="M114.306,45.986c0.065,2.759 -2.122,5.051 -4.881,5.116c-2.759,0.065 -5.051,-2.122 -5.116,-4.881c-0.009,-0.4 -0.005,-0.136 -0.005,-0.792c0,-2.76 2.24,-5 5,-5c2.76,0 5,2.24 5,5c0,0.461 -0.004,0.276 0.003,0.557Z"/><path d="M52.737,93.86c2.559,1.033 3.798,3.949 2.765,6.508c-1.033,2.559 -3.949,3.798 -6.508,2.765l-0.095,-0.038c-2.559,-1.033 -3.798,-3.949 -2.765,-6.508c1.033,-2.559 3.949,-3.798 6.508,-2.765l0.095,0.038Z"/><path d="M125.172,124.072c-1.95,1.363 -4.657,1.174 -6.397,-0.566c-1.951,-1.951 -1.951,-5.12 -0,-7.071c1.283,-1.283 2.156,-1.43 4.002,-2.074c2.606,-0.909 5.459,0.469 6.367,3.075c0.909,2.606 -0.469,5.459 -3.075,6.367c-0.279,0.097 -0.624,0.195 -0.898,0.268Z"/><path d="M175.232,195.272c-1.009,-0.732 -1.666,-1.92 -1.666,-3.261c0,-2.222 1.804,-4.026 4.026,-4.026l1.808,0.362l1.308,0.815l0.962,1.103c0.257,0.386 0.47,0.844 0.655,1.198c1.027,1.97 0.261,4.404 -1.709,5.43c-1.941,1.011 -4.33,0.284 -5.383,-1.621Z"/><path d="M203.578,119.074c1.081,0.563 1.777,1.736 1.668,3.026c-0.144,1.713 -1.652,2.986 -3.365,2.841l-1.149,-0.256l-0.509,-0.272l-0.725,-0.653c-1.215,-1.215 -1.215,-3.189 -0,-4.404c1.112,-1.112 2.86,-1.207 4.08,-0.283Zm0.466,0.439l0.232,0.255c-0.081,-0.099 -0.158,-0.183 -0.232,-0.255Z"/><path d="M96.292,164.642c0.321,1.045 0.081,2.229 -0.729,3.073c-1.19,1.24 -3.163,1.28 -4.403,0.09l-0.779,-1.067l-0.256,-0.923l0,-0.764c-0.004,0.032 -0.009,0.08 -0.009,0.16c0,-1.719 1.395,-3.114 3.114,-3.114c1.524,0 2.794,1.097 3.062,2.545Zm0.046,0.682l-0.022,0.412c0.017,-0.153 0.024,-0.29 0.022,-0.412Z"/><path d="M138.598,136.997c-0.516,1.007 -1.565,1.698 -2.774,1.698c-1.719,0 -3.114,-1.395 -3.114,-3.114c0,0.109 0.006,0.217 0.02,0.32l0.053,-1.251l0.528,-1.137l0.945,-0.852l1.286,-0.419l1.407,0.167c1.628,0.552 2.502,2.321 1.95,3.949c-0.077,0.229 -0.179,0.442 -0.301,0.64Zm-2.013,1.41c-0.527,0.111 -1.089,0.086 -1.636,-0.099c0.69,0.234 1.224,0.21 1.636,0.099Zm2.345,-2.933c-0.001,-0.136 -0.011,-0.278 -0.031,-0.425l0.031,0.425Z"/><path d="M191.562,184.348c0.794,-1.525 2.676,-2.118 4.2,-1.324c1.525,0.794 2.118,2.676 1.324,4.2l-0.032,0.061c-0.794,1.525 -2.676,2.118 -4.2,1.324c-1.525,-0.794 -2.118,-2.676 -1.324,-4.2l0.032,-0.061Z"/><path d="M113.663,27.702c1.206,-0.916 2.934,-0.838 4.052,0.249c1.232,1.198 1.26,3.171 0.062,4.403l-0.366,0.404l-0.719,0.508l-0.768,0.29l-0.999,0.109c-1.719,0 -3.114,-1.395 -3.114,-3.114c0,-1.27 0.762,-2.363 1.853,-2.848Zm-0.574,0.568c-0.057,0.06 -0.114,0.125 -0.172,0.198l0.172,-0.198Z"/><path d="M125.517,34.588c1.717,0.086 3.04,1.55 2.954,3.266c-0.086,1.717 -1.55,3.04 -3.266,2.954l-0.119,-0.006c-1.717,-0.086 -3.04,-1.55 -2.954,-3.266c0.086,-1.717 1.55,-3.04 3.266,-2.954l0.119,0.006Z"/><path d="M41.248,141.773c1.712,0.153 2.978,1.667 2.825,3.379c-0.153,1.712 -1.667,2.978 -3.379,2.825c-0.304,-0.027 -0.601,-0.022 -0.906,-0.022c-1.719,0 -3.114,-1.395 -3.114,-3.114c0,-1.719 1.395,-3.114 3.114,-3.114c0.491,0 0.97,0.003 1.46,0.047Z"/></svg>