<?xml version="1.0" encoding="UTF-8" standalone="no"?><!DOCTYPE svg PUBLIC "-//W3C//DTD SVG 1.1//EN" "http://www.w3.org/Graphics/SVG/1.1/DTD/svg11.dtd"><svg width="100%" height="100%" viewBox="0 0 240 240" version="1.1" xmlns="http://www.w3.org/2000/svg" xmlns:xlink="http://www.w3.org/1999/xlink" xml:space="preserve" xmlns:serif="http://www.serif.com/" style="fill-rule:evenodd;clip-rule:evenodd;stroke-linejoin:round;stroke-miterlimit:2;"><path d="M230.568,105.801c-3.256,-11.236 -3.352,-75.319 -70.098,-93.021c-31.782,-8.429 -85.566,6.708 -102.337,19.728c-28.733,22.307 -50.784,35.576 -52.129,73.703c-1.394,39.51 14.718,86.447 57.485,108.298c34.393,17.573 86.975,18.545 109.452,9.596c42.984,-17.113 71.423,-70.705 57.627,-118.305Z" style="fill:#edd5f5;"/><path d="M235.37,104.409c14.5,50.031 -15.401,106.355 -60.58,124.342c-23.321,9.285 -77.892,8.444 -113.577,-9.789c-44.638,-22.808 -61.661,-71.688 -60.207,-112.927c1.408,-39.9 23.991,-54.132 54.06,-77.476c8.759,-6.8 27.131,-14.286 47.516,-18.838c20.329,-4.54 42.616,-6.164 59.169,-1.774c69.536,18.442 70.226,84.756 73.618,96.462Zm-9.605,2.784c-3.12,-10.767 -2.62,-72.617 -66.577,-89.579c-15.229,-4.039 -35.724,-2.309 -54.426,1.868c-18.646,4.164 -35.551,10.757 -43.563,16.977c-27.399,21.271 -48.916,33.574 -50.199,69.93c-1.333,37.781 13.867,82.774 54.763,103.67c33.101,16.913 83.695,18.016 105.328,9.403c40.788,-16.239 67.765,-67.099 54.674,-112.268Z"/></svg>