<?xml version="1.0" encoding="UTF-8" standalone="no"?><!DOCTYPE svg PUBLIC "-//W3C//DTD SVG 1.1//EN" "http://www.w3.org/Graphics/SVG/1.1/DTD/svg11.dtd"><svg width="100%" height="100%" viewBox="0 0 240 240" version="1.1" xmlns="http://www.w3.org/2000/svg" xmlns:xlink="http://www.w3.org/1999/xlink" xml:space="preserve" xmlns:serif="http://www.serif.com/" style="fill-rule:evenodd;clip-rule:evenodd;stroke-linejoin:round;stroke-miterlimit:2;"><path d="M228.247,107.576c-3.298,-11.38 -5.507,-81.299 -73.108,-99.227c-32.189,-8.537 -83.397,6.59 -100.383,19.777c-29.102,22.593 -44.939,38.831 -46.302,77.446c-1.412,40.017 4.894,99.729 48.209,121.861c34.834,17.798 89.412,-4.455 112.178,-13.518c43.535,-17.332 73.379,-58.129 59.407,-106.339Z" style="fill:#edd5f5;"/><path d="M233.049,106.185c14.742,50.867 -16.427,94.089 -62.36,112.376c-13.908,5.537 -39.488,15.871 -65.379,19.368c-17.999,2.431 -36.129,1.516 -50.923,-6.043c-18.406,-9.405 -30.594,-25.133 -38.411,-43.418c-11.33,-26.506 -13.389,-58.423 -12.52,-83.071c1.426,-40.426 17.766,-57.568 48.232,-81.22c17.723,-13.759 71.146,-29.568 104.731,-20.66c42.676,11.318 60.649,42.262 68.896,67.846c5.247,16.278 6.409,30.252 7.733,34.823Zm-9.605,2.784c-1.314,-4.533 -2.443,-18.396 -7.646,-34.539c-7.43,-23.048 -23.496,-51.051 -61.942,-61.248c-30.794,-8.167 -79.786,6.278 -96.035,18.894c-27.738,21.534 -43.073,36.867 -44.371,73.673c-0.689,19.53 0.472,43.869 7.124,66.023c6.421,21.386 17.956,40.782 38.363,51.209c13.073,6.68 29.129,7.186 45.034,5.038c24.965,-3.372 49.609,-13.41 63.019,-18.749c41.137,-16.378 69.657,-54.747 56.454,-100.302Z"/></svg>