<?xml version="1.0" encoding="UTF-8" standalone="no"?><!DOCTYPE svg PUBLIC "-//W3C//DTD SVG 1.1//EN" "http://www.w3.org/Graphics/SVG/1.1/DTD/svg11.dtd"><svg width="100%" height="100%" viewBox="0 0 1490 745" version="1.1" xmlns="http://www.w3.org/2000/svg" xmlns:xlink="http://www.w3.org/1999/xlink" xml:space="preserve" xmlns:serif="http://www.serif.com/" style="fill-rule:evenodd;clip-rule:evenodd;stroke-linejoin:round;stroke-miterlimit:2;"><g><path d="M59.835,373.259c-13.258,-12.409 -15.569,-17.961 -20.341,-23.929c-16.806,-21.006 -10.205,-35.237 -15.422,-61.318c-10.935,-54.673 46.616,-106.283 44.614,-107.284c-16.062,-8.031 -35.192,1.706 -42.489,-20.182c-9.006,-27.015 9.275,-46.545 31.568,-57.692c2.003,-1.001 2.788,-0.532 2.788,-2.772c0,-1.708 -3.774,-8.186 -4.614,-10.706c-8.983,-26.948 -10.797,-63.528 22.307,-69.045c14.326,-2.387 37.241,1.165 45.199,9.123c1.021,1.021 32.039,32.609 32.343,32.303c46.285,-46.284 107.058,-45.68 161.884,-31.974c12.264,3.065 35.562,27.112 40.604,23.134c19.848,-15.654 44.126,-26.944 62.006,-33.649c49.042,-18.39 104.814,5.133 130.214,30.533c3.257,3.259 20.267,-10.232 23.809,-11.412c36.487,-12.163 78.611,-33.166 118.971,-28.681c35.75,3.972 103.841,33.824 111.962,37.885c1.675,0.837 40.749,-27.063 94.11,-20.888c12.215,1.413 22.553,9.682 32.929,14.87c1.675,0.837 22.475,3.102 28.681,0c39.561,-19.781 124.662,-30.94 167.831,-22.307c6.026,1.205 41.345,14.884 51.26,19.841c9.529,4.765 20.48,14.073 23.096,8.84c4.075,-8.152 16.985,-20.283 35.194,-27.794c38.904,-16.044 68.182,-0.27 91.21,5.488c10.411,2.602 32.929,13.367 32.929,26.555c0,3.187 6.316,10.737 7.437,8.499c6.498,-12.997 49.823,-12.649 60.853,-11.422c15.497,1.721 26.319,17.357 27.312,43.289c1.396,36.501 -32.333,55.832 -31.867,56.298c2.636,2.636 35.788,50.983 38.899,66.539c9.113,45.56 -0.887,68.094 -13.407,111.915c-0.919,3.217 -24.298,25.302 -18.656,30.463c16.628,15.208 47.868,53.722 38.009,86.583c-3.6,12 -14.32,51.338 -23.344,60.361c-8.413,8.413 -14.9,26.9 -12.862,29.45c10.12,12.65 31.239,37.749 27.474,56.575c-3.01,15.05 -6.625,28.216 -18.057,38.239c-25.863,22.676 -6.549,22.051 -5.31,27.619c2.922,13.155 4.853,55.202 -14.133,58.998c-16.22,3.244 -44.15,7.072 -56.21,-4.987c-5.722,-5.723 -12.363,-20.563 -16.026,-27.891c-2.125,-4.249 -34.86,38.375 -97.568,39.042c-17.147,0.182 -65.31,-22.682 -78.368,-35.091c-18.691,-17.765 -35.694,17.041 -45.297,21.157c-31.408,13.461 -73.724,25.963 -109.853,19.941c-19.765,-3.293 -46.077,-4.884 -62.033,-16.852c-6.008,-4.506 -44.401,-34.985 -48.438,-30.947c-5.614,5.614 -15.362,9.274 -22.307,12.747c-33.318,16.658 -69.075,32.084 -105.16,39.302c-12.462,2.493 -54.564,1.278 -65.429,-0.532c-47.163,-7.861 -89.594,-40.583 -90.719,-39.832c-7.814,5.208 -26.516,19.95 -35.577,22.97c-35.155,11.719 -63.127,23.02 -102.513,17.394c-18.376,-2.625 -36.915,-16.466 -52.049,-26.556c-4.382,-2.92 -15.003,-2.59 -20.182,0c-22.709,11.355 -33.321,30.518 -59.409,27.519c-35.091,-4.036 -46.966,-12.835 -56.763,-22.632c-1.128,-1.128 -16.417,-9.326 -18.731,-7.01c-26.401,26.4 -111.176,32.224 -139.153,4.248c-3.607,-3.607 -15.264,-0.931 -24.43,2.125c-16.807,5.602 -44.378,17.619 -61.61,5.312c-18.868,-13.477 -18.13,-42.326 -9.56,-61.61c3.864,-8.691 16.687,-23.76 16.687,-20.994c0,1.503 -49.492,-29.724 -46.499,-54.337c9.563,-78.608 38.275,-86.405 49.729,-99.496c0.885,-1.012 -21.876,-19.681 -24.166,-21.684c-20.596,-18.022 -21.517,-46.664 -5.31,-66.92c3.279,-4.1 9.503,-5.204 21.953,-16.728Z" style="fill:#fffce5;"/></g><path d="M61.664,374.884c-32.428,-22.806 -56.325,-71.317 -33.331,-134.769c7.523,-20.759 28.237,-45.4 39.631,-57.454m0,0c-0.653,2.406 -41.645,5.316 -46.653,-31.671c-4.48,-33.097 20.723,-42.502 37.271,-50.775m0,0c-3.145,2.599 -11.719,-19.616 -12.963,-23.767c-5.419,-18.063 0.535,-39.348 17.284,-48.075c56.945,-29.667 83.859,29.664 86.666,32.473m0,0c-0.529,1.05 29.176,-27.946 60.628,-35.536c56.186,-13.559 114.697,-1.785 146.553,30.071m0,0c0.043,0.228 21.55,-27.532 59.187,-38.093c35.042,-9.833 79.541,-4.401 109.639,15.663c4.951,3.302 14.861,9.208 27.538,19.756m0,0c-0.566,2.657 18.339,-30.062 96.98,-41.684c78.851,-11.652 135.606,25.85 155.212,38.463m0,0c-1.912,-0.18 12.957,-17.364 50.752,-23.582c39.805,-6.549 67.557,6.717 82.229,22.711m0,0c-0.504,3.493 30.751,-25.688 90.042,-34.182c105.981,-15.186 155.227,27.137 165.26,34.966m-0.45,-0.641c-0.454,0.872 -0.574,0.641 0.45,0.641c3.266,0 12.246,-17.139 51.687,-30.544c29.326,-9.965 118.254,-9.08 118.254,36.807m0,0c23.04,-2.247 35.486,-17.561 73.391,-5.108c32.916,10.814 31.168,52.426 12.753,76.373c-4.509,5.863 -19.091,22.01 -27.42,22.01m0,0c-0.496,0.183 29.401,24.496 38.862,50.459c17.317,47.518 8.693,119.282 -28.705,156.679m0,0c9.824,10.798 37.085,31.741 38.274,87.311c0.623,29.101 -39.47,82.263 -39.47,84.918m0,0c26.76,30.214 34.537,34.106 29.147,72.147c-3.256,22.98 -21.308,34.502 -32.735,46.26m0,0c10.375,13.033 15.442,22.356 14.353,34.684c-6.335,71.697 -92.095,36.159 -92.095,-3.588m-1288.22,-302.923c-21.228,1.974 -33.088,32.223 -30.021,52.676c6.3,42.009 34.164,41.274 34.164,49.207m0,0c-34.881,23.91 -60.244,85.149 -38.405,125.324c8.338,15.34 32.795,30.266 35.551,30.266m0,0c-23.926,11.351 -30.392,56.855 -15.834,77.237c10.259,14.361 31.594,16.313 46.819,13.799c18.594,-3.071 35.976,-18.919 35.976,-20.699m0,0c-0.265,-2.122 10.5,11.857 47.389,23.763c54.492,17.586 103.306,-12.65 112.03,-26.498m0,0c13.367,11.591 38.089,27.301 57.955,30.113c49.376,6.988 74.375,-24.782 74.375,-33.291m0,0c16.165,19.287 37.408,27.251 61.604,31.047c98.678,15.489 135.708,-28.544 145.506,-38.342m0,0c34.525,30.266 104.249,61.13 199.073,34.134c63.331,-18.03 75.309,-33.03 91.054,-46.323m0,0c12.468,9.946 25.898,51.007 117.275,54.428c82.434,3.086 116.199,-40.239 128.702,-50.204m0,0c10.12,9.307 32.342,24.651 42.519,28.508c98.653,37.402 142.487,-28.872 142.487,-32.223" style="fill:#fffce5;"/><path d="M61.12,186.427c-12.814,0.095 -38.292,-5.597 -42.287,-35.103c-4.345,-32.094 17.706,-43.1 34.733,-51.428c-3.969,-5.477 -9.363,-19.464 -10.343,-22.731c-5.756,-19.188 0.731,-41.739 18.524,-51.01c16.596,-8.646 30.753,-9.963 42.583,-7.409c17.712,3.824 30.27,16.426 38.039,26.735c3.713,4.926 6.257,9.294 7.716,11.709c7.409,-6.365 32.864,-27.878 59.524,-34.311c56.003,-13.515 114.244,-2.1 147.008,28.886c5.923,-6.602 26.533,-27.875 58.644,-36.885c35.702,-10.018 81.036,-4.453 111.701,15.99c4.769,3.18 14.101,8.762 26.072,18.531c6.247,-6.698 30.793,-31.114 96.693,-40.853c76.824,-11.352 132.915,23.4 154.625,37.35c4.204,-4.859 20.183,-17.344 51.299,-22.463c40.03,-6.586 68.161,6.464 83.482,22.427c0.398,-0.225 0.862,-0.494 1.318,-0.775c9.747,-6.019 39.566,-26.261 87.522,-33.131c102.968,-14.754 152.975,24.248 165.762,34.372c0.04,0.01 0.081,0.021 0.121,0.033c0.751,-0.649 1.987,-1.734 3.169,-2.848c6.369,-6 19.291,-17.458 47.446,-27.027c17.921,-6.09 57.697,-8.234 86.649,1.147c19.103,6.189 33.443,17.403 34.803,35.219c7.867,-1.142 14.562,-3.759 21.75,-5.939c12.578,-3.815 26.578,-6.439 50.027,1.265c34.635,11.379 33.331,55.074 13.954,80.272c-3.25,4.226 -11.592,13.631 -19.24,18.899c-1.767,1.217 -3.513,2.207 -5.171,2.908c8.051,7.509 28.606,27.39 36.22,48.282c17.344,47.593 9.002,119.09 -27.593,157.567c11.073,11.485 36.161,33.439 37.312,87.226c0.181,8.443 -2.887,18.855 -7.483,29.511c-6.709,15.554 -16.629,31.679 -23.737,42.794c-3.382,5.29 -6.48,10.263 -7.74,12.292c15.704,17.664 24.671,26.465 28.309,38.681c2.508,8.421 2.529,18.487 0.304,34.192c-1.704,12.031 -7.254,21.076 -13.901,28.638c-5.82,6.622 -12.491,12.074 -17.975,17.465c9.94,12.78 14.603,22.334 13.509,34.71c-1.874,21.207 -10.513,33.429 -21.712,39.263c-16.693,8.695 -39.565,3.093 -55.696,-9.23c-9.319,-7.118 -16.334,-16.437 -18.757,-26.359c-0.551,0.734 -1.164,1.515 -1.838,2.334c-14.678,17.85 -59.388,55.29 -139.956,24.744c-9.845,-3.732 -30.777,-17.992 -41.684,-27.536c-13.842,12.135 -48.584,52.393 -128.743,49.392c-74.378,-2.785 -97.943,-30.213 -110.911,-46.2c-2.402,-2.962 -4.401,-5.523 -6.308,-7.407c-15.162,13.08 -28.577,27.826 -90.332,45.408c-94.33,26.855 -164.092,-2.997 -199.612,-33.113c-12.063,12.441 -50.673,52.355 -146.039,37.386c-23.323,-3.659 -43.936,-11.161 -60.094,-28.474c-1.186,2.6 -3.156,5.683 -5.984,8.879c-10.81,12.213 -34.147,26.9 -69.864,21.845c-19.31,-2.733 -43.142,-17.336 -57.173,-28.947c-3.306,4.034 -9.103,8.959 -16.887,13.654c-21.23,12.805 -57.365,24.161 -96.342,11.582c-27.017,-8.719 -40.249,-18.55 -45.445,-22.556c-0.134,-0.103 -0.267,-0.205 -0.398,-0.306c-0.281,0.32 -0.602,0.663 -0.963,1.025c-5.246,5.269 -19.917,16.306 -35.384,18.86c-16.045,2.649 -38.449,0.322 -49.26,-14.812c-7.611,-10.657 -9.855,-27.861 -6.94,-43.905c2.58,-14.198 9.197,-27.396 19.304,-34.46c-0.945,-0.522 -1.997,-1.137 -3.13,-1.837c-8.947,-5.532 -23.085,-16.468 -29.114,-27.56c-9.009,-16.573 -10.294,-36.615 -6.213,-56.285c5.918,-28.523 23.121,-56.219 43.814,-71.177c-0.116,-0.115 -0.246,-0.23 -0.381,-0.351c-0.992,-0.888 -2.414,-1.741 -4.093,-2.748c-8.946,-5.366 -24.569,-14.164 -29.162,-44.793c-1.925,-12.834 1.759,-29.358 9.818,-40.968c4.387,-6.319 10.055,-11.18 16.761,-13.384c-30.804,-24.502 -52.192,-72.435 -29.767,-134.315c6.623,-18.276 23.292,-39.541 35.138,-52.836Zm1.982,186.412c0.6,0.422 0.983,1.082 1.051,1.813c0.055,0.593 -0.101,1.182 -0.444,1.67c-0.422,0.6 -1.082,0.983 -1.813,1.051c-0.001,0 -0.002,0 -0.003,0c-7.764,0.723 -14.098,5.673 -18.796,12.441c-7.354,10.593 -10.737,25.665 -8.981,37.375c4.226,28.184 18.557,36.309 26.789,41.247c2.468,1.48 4.435,2.756 5.637,4.082c1.175,1.296 1.764,2.681 1.766,4.24c0,0.003 0,0.006 0,0.009c-0,0.826 -0.406,1.595 -1.086,2.062c-20.461,14.025 -37.529,41.216 -43.332,69.186c-3.833,18.476 -2.752,37.315 5.71,52.882c5.644,10.383 18.976,20.517 27.351,25.696c2.845,1.759 5.928,3.146 6.213,3.273c0.882,0.074 1.666,0.611 2.05,1.42c0.159,0.336 0.241,0.7 0.241,1.072c-0,0.966 -0.556,1.845 -1.429,2.259c-0.001,0.001 -0.003,0.001 -0.004,0.002c-11.309,5.368 -18.321,18.913 -20.956,33.418c-2.66,14.642 -0.857,30.38 6.089,40.105c9.706,13.587 29.972,15.164 44.377,12.785c12.517,-2.067 24.445,-10.189 30.486,-15.443c1.666,-1.449 3.201,-3.186 3.513,-3.545l0.177,-0.557l0.367,-0.535l0.543,-0.462l0.616,-0.286l0.561,-0.11l0.754,0.042l0.637,0.202c0.452,0.198 1.426,0.905 2.959,2.087c5.021,3.871 17.824,13.333 43.928,21.758c31.985,10.323 61.97,3.789 82.684,-6.004c13.539,-6.401 23.111,-14.13 26.461,-19.444c0.001,-0.001 0.001,-0.002 0.002,-0.004c0.068,-0.107 0.143,-0.209 0.226,-0.305c0.807,-0.932 2.179,-1.135 3.222,-0.477c0.107,0.068 0.209,0.143 0.305,0.226c13.078,11.34 37.231,26.776 56.667,29.526c33.409,4.728 55.308,-8.784 65.419,-20.208c2.491,-2.814 4.251,-5.48 5.25,-7.68c0.534,-1.176 0.855,-2.168 0.856,-2.926c0,-0.001 0,-0.001 0,-0.002c0,-0.741 0.326,-1.44 0.894,-1.916c0.451,-0.379 1.017,-0.584 1.606,-0.584c0.741,0 1.44,0.326 1.916,0.894c15.754,18.796 36.495,26.483 60.076,30.183c97.194,15.256 133.7,-27.989 143.351,-37.64c0.93,-0.931 2.427,-0.98 3.416,-0.112c34.117,29.909 103.038,60.287 196.74,33.61c62.679,-17.845 74.543,-32.673 90.126,-45.829c0.91,-0.769 2.241,-0.787 3.172,-0.044c2.603,2.076 5.269,5.431 8.595,9.531c12.523,15.439 35.389,41.664 107.215,44.354c81.398,3.047 114.704,-39.821 127.05,-49.661c0.962,-0.767 2.345,-0.719 3.251,0.115c9.933,9.134 31.724,24.225 41.713,28.011c67.659,25.651 109.025,1.723 127.741,-16.185c6.743,-6.452 11.139,-13.68 11.392,-14.099c0.191,-1.191 1.224,-2.101 2.468,-2.101c1.38,0 2.5,1.12 2.5,2.5c0,11.211 7.393,21.985 17.713,29.868c14.604,11.155 35.239,16.641 50.351,8.769c10.004,-5.211 17.367,-16.324 19.041,-35.268c1.036,-11.722 -3.954,-20.515 -13.819,-32.907c-0.783,-0.982 -0.713,-2.399 0.163,-3.3c5.687,-5.852 13.028,-11.64 19.347,-18.83c6.05,-6.883 11.155,-15.089 12.706,-26.039c2.086,-14.727 2.206,-24.167 -0.145,-32.064c-3.564,-11.969 -12.696,-20.346 -28.398,-38.075c-0.406,-0.459 -0.629,-1.045 -0.628,-1.657c0,-0.208 0.026,-0.416 0.077,-0.618l0.012,-0.098l0.333,-0.901c0.514,-1.099 2.001,-3.475 4.14,-6.795c6.106,-9.477 17.696,-27.098 25.879,-44.677c5.31,-11.406 9.222,-22.772 9.029,-31.777c-1.167,-54.548 -27.981,-75.083 -37.623,-85.682c-0.898,-0.986 -0.862,-2.508 0.081,-3.45c36.767,-36.767 45.149,-107.339 28.124,-154.056c-8.359,-22.938 -33.033,-44.513 -37.516,-48.74c-0.516,-0.486 -0.832,-0.826 -0.95,-0.98l-0.137,-0.224c-0.03,-0.048 -0.06,-0.096 -0.088,-0.144l-0.091,-0.149l-0.027,-0.089c-0.072,-0.166 -0.126,-0.34 -0.16,-0.522l-0.018,-0.058l0.001,-0.041c-0.018,-0.12 -0.027,-0.243 -0.027,-0.369c-0,-0.177 0.018,-0.349 0.053,-0.515l0.001,-0.021l0.008,-0.019c0.068,-0.302 0.191,-0.582 0.358,-0.832l0.004,-0.009l0.007,-0.008c0.156,-0.23 0.35,-0.432 0.571,-0.599c0.191,-0.143 0.404,-0.259 0.631,-0.343c0.278,-0.103 0.57,-0.155 0.866,-0.155c2.92,0 6.619,-2.455 10.377,-5.501c6.263,-5.076 12.427,-12.108 15.061,-15.533c8.833,-11.487 13.685,-27.206 12.365,-41.355c-1.286,-13.785 -8.533,-26.064 -23.917,-31.119c-22.038,-7.24 -35.194,-4.816 -47.015,-1.23c-8.288,2.514 -15.958,5.534 -25.348,6.451c-0.002,0 -0.003,0 -0.005,0.001c-0.081,0.008 -0.162,0.012 -0.243,0.012c-1.285,0.001 -2.364,-0.978 -2.488,-2.257c-0.008,-0.081 -0.012,-0.162 -0.012,-0.243c0,-17.255 -13.634,-27.499 -31.45,-33.271c-27.9,-9.04 -66.229,-7.038 -83.5,-1.169c-30.976,10.528 -42.817,23.397 -47.955,28.126c-1.152,1.06 -2.069,1.765 -2.781,2.114l-0.954,0.344l-0.237,0.027c-0.185,0.043 -0.374,0.064 -0.564,0.065c-0.001,0 -0.003,0 -0.004,0c-0.604,0 -0.935,0.021 -1.071,0.002l-0.598,-0.155l-0.612,-0.344l-0.439,-0.426l-0.404,-0.712l-0.039,-0.179c-12.92,-10.198 -61.838,-47.492 -161.738,-33.177c-52.995,7.592 -83.414,31.882 -88.608,34.124c-0.286,0.123 -0.535,0.207 -0.742,0.261l-0.721,0.109l-0.703,-0.059l-0.602,-0.203l-0.697,-0.479l-0.521,-0.694l-0.023,-0.071c-14.361,-15.362 -41.244,-27.834 -79.601,-21.524c-23.206,3.818 -37.563,11.827 -44.531,17.313c-1.977,1.557 -3.522,3.26 -4.133,3.967c-0.002,0.023 -0.003,0.047 -0.006,0.07c-0.037,0.399 -0.169,0.781 -0.386,1.118c-0.506,0.786 -1.407,1.224 -2.337,1.136c-0.2,-0.019 -0.4,-0.062 -0.594,-0.13l-0.057,-0.012l-0.488,-0.229l-0.114,-0.101c-19.514,-12.558 -75.554,-49.503 -153.36,-38.006c-69.696,10.3 -91.788,37.327 -95.094,40.742l-0.825,0.709l-0.702,0.315l-0.663,0.097l-0.629,-0.07l-0.586,-0.221l-0.531,-0.374l-0.345,-0.425c-12.371,-10.241 -22.038,-16.001 -26.894,-19.239c-29.531,-19.686 -73.195,-24.983 -107.577,-15.336c-33.175,9.309 -53.551,32.267 -57.326,36.602c-0.214,0.246 -0.403,0.451 -0.561,0.616c-0.064,0.082 -0.133,0.161 -0.209,0.236c-0.092,0.092 -0.19,0.176 -0.292,0.251c-0.02,0.017 -0.034,0.028 -0.043,0.034l-0.02,0.01c-0.171,0.117 -0.353,0.211 -0.542,0.281l-0.012,0.006l-0.012,0.003c-0.209,0.075 -0.425,0.121 -0.644,0.139l-0.013,0.003l-0.009,-0.001c-0.34,0.025 -0.684,-0.02 -1.009,-0.134c-0.181,-0.063 -0.357,-0.148 -0.522,-0.255c-0.148,-0.095 -0.288,-0.207 -0.418,-0.337c-0.016,-0.016 -0.032,-0.033 -0.048,-0.049c-31.348,-31.3 -88.909,-42.691 -144.151,-29.36c-27.836,6.717 -54.245,30.544 -58.876,34.477c-0.461,0.392 -0.776,0.633 -0.917,0.725l-0.172,0.071c-0.193,0.111 -0.397,0.194 -0.608,0.25l-0.156,0.064l-0.669,0.04c0,0 -0.375,-0.085 -0.389,-0.088l-0.335,-0.076l-0.178,-0.105c-0.127,-0.061 -0.251,-0.134 -0.368,-0.218l-0.162,-0.096l-0.1,-0.119c-0.018,-0.017 -0.036,-0.034 -0.053,-0.052c-0.079,-0.079 -0.176,-0.201 -0.293,-0.364l-0.115,-0.138l-0.026,-0.064c-1.249,-1.837 -4.226,-7.236 -8.99,-13.557c-7.187,-9.537 -18.716,-21.319 -35.101,-24.857c-10.901,-2.353 -23.925,-1.012 -39.218,6.956c-15.706,8.183 -21.126,28.201 -16.044,45.14c0.845,2.82 5.169,14.233 8.738,19.96c0.478,0.767 1.17,1.598 1.554,2.041c0.819,-0.09 1.656,0.229 2.204,0.892c0.121,0.146 0.224,0.305 0.309,0.474c0.52,1.04 0.252,2.305 -0.644,3.045c-0.143,0.118 -0.302,0.222 -0.475,0.309c-0.008,0.004 -0.016,0.008 -0.024,0.012l-0.2,0.129l-0.175,0.058c-15.8,7.844 -39.752,16.683 -35.512,48.004c3.28,24.228 23.104,30.113 34.886,30.721c3.32,0.171 6.815,-0.404 7.582,-0.54c0.63,-0.589 1.522,-0.814 2.362,-0.587c0.399,0.108 0.763,0.312 1.063,0.596c0.669,0.633 0.936,1.582 0.696,2.471c-0.088,0.326 -0.243,0.639 -0.467,0.915l-0.054,0.105l-0.213,0.189c-11.257,11.93 -31.576,36.07 -38.96,56.443c-22.492,62.066 0.699,109.564 32.419,131.872Zm69.294,329.545c0.013,0.103 0.019,0.206 0.019,0.31c0,0.211 -0.026,0.417 -0.077,0.615l-0.006,0.048c0.08,-0.272 0.111,-0.593 0.063,-0.974Zm808.387,-653.903c0.008,0.162 0.001,0.325 -0.022,0.489c0.025,-0.175 0.031,-0.337 0.022,-0.489Zm-134.315,-1.221c0.064,0.041 0.127,0.082 0.19,0.122c0.045,0.029 0.089,0.059 0.131,0.091c-0.098,-0.08 -0.205,-0.151 -0.321,-0.213Zm-250.952,4.754c0.112,0.388 0.13,0.804 0.043,1.214c0.105,-0.493 0.064,-0.893 -0.043,-1.214Zm-197.217,1.381c0.073,0.073 0.146,0.145 0.219,0.218c0.354,0.353 0.591,0.8 0.686,1.291c-0.136,-0.703 -0.464,-1.184 -0.905,-1.509Zm-206.231,7.489c-0.005,0.37 -0.093,0.742 -0.266,1.087c0.216,-0.429 0.269,-0.799 0.266,-1.087Z" style="fill:#010022;"/></svg>