<?xml version="1.0" encoding="UTF-8" standalone="no"?><!DOCTYPE svg PUBLIC "-//W3C//DTD SVG 1.1//EN" "http://www.w3.org/Graphics/SVG/1.1/DTD/svg11.dtd"><svg width="100%" height="100%" viewBox="0 0 2878 1490" version="1.1" xmlns="http://www.w3.org/2000/svg" xmlns:xlink="http://www.w3.org/1999/xlink" xml:space="preserve" xmlns:serif="http://www.serif.com/" style="fill-rule:evenodd;clip-rule:evenodd;stroke-linejoin:round;stroke-miterlimit:2;"><g><path d="M116.64,754.515c-25.585,-25.088 -30.044,-36.314 -39.254,-48.379c-32.431,-42.47 -19.693,-71.242 -29.76,-123.972c-21.102,-110.537 89.958,-214.882 86.094,-216.907c-30.996,-16.237 -67.913,3.449 -81.994,-40.804c-17.379,-54.619 17.898,-94.105 60.919,-116.641c3.864,-2.024 5.381,-1.077 5.381,-5.604c0,-3.452 -7.283,-16.551 -8.905,-21.645c-17.336,-54.484 -20.835,-128.44 43.047,-139.595c27.647,-4.826 71.867,2.356 87.224,18.445c1.97,2.064 61.829,65.928 62.415,65.31c89.32,-93.576 206.597,-92.356 312.399,-64.645c23.667,6.197 68.626,54.815 78.356,46.772c38.303,-31.649 85.154,-54.474 119.658,-68.031c94.64,-37.18 202.267,10.378 251.283,61.732c6.286,6.588 39.111,-20.687 45.945,-23.072c70.412,-24.591 151.701,-67.055 229.586,-57.987c68.988,8.031 200.39,68.386 216.06,76.595c3.232,1.693 78.635,-54.715 181.611,-42.232c23.572,2.856 43.521,19.575 63.545,30.064c3.232,1.693 43.372,6.272 55.348,0c76.344,-39.994 240.57,-62.554 323.875,-45.1c11.628,2.437 79.785,30.092 98.921,40.114c18.388,9.634 39.522,28.453 44.571,17.873c7.864,-16.481 32.776,-41.009 67.916,-56.195c75.076,-32.438 131.576,-0.545 176.015,11.095c20.09,5.26 63.545,27.025 63.545,53.688c0,6.444 12.189,21.708 14.351,17.183c12.539,-26.278 96.146,-25.573 117.433,-23.094c29.907,3.479 50.79,35.092 52.705,87.521c2.694,73.796 -62.395,112.88 -61.495,113.823c5.087,5.329 69.063,103.078 75.067,134.528c17.586,92.112 -1.711,137.673 -25.872,226.27c-1.774,6.504 -46.889,51.156 -36.001,61.589c32.089,30.747 92.375,108.615 73.349,175.052c-6.947,24.262 -27.635,103.795 -45.048,122.038c-16.234,17.008 -28.754,54.387 -24.82,59.541c19.529,25.576 60.285,76.321 53.019,114.383c-5.808,30.429 -12.784,57.047 -34.846,77.312c-49.91,45.847 -12.637,44.582 -10.248,55.839c5.639,26.597 9.365,111.606 -27.273,119.282c-31.301,6.558 -85.2,14.297 -108.473,-10.083c-11.041,-11.571 -23.857,-41.575 -30.927,-56.39c-4.1,-8.592 -67.272,77.586 -188.284,78.936c-33.09,0.368 -126.033,-45.859 -151.232,-70.947c-36.069,-35.918 -68.882,34.454 -87.414,42.774c-60.61,27.215 -142.27,52.492 -211.992,40.316c-38.142,-6.658 -88.918,-9.875 -119.71,-34.071c-11.593,-9.11 -85.683,-70.733 -93.475,-62.569c-10.834,11.351 -29.645,18.75 -43.047,25.772c-64.296,33.679 -133.299,64.867 -202.934,79.46c-24.05,5.04 -105.296,2.585 -126.263,-1.075c-91.014,-15.894 -172.895,-82.051 -175.066,-80.532c-15.078,10.529 -51.17,40.334 -68.655,46.44c-67.841,23.693 -121.82,46.543 -197.828,35.168c-35.462,-5.308 -71.237,-33.291 -100.442,-53.691c-8.456,-5.904 -28.952,-5.236 -38.947,0c-43.823,22.958 -64.302,61.701 -114.646,55.637c-67.718,-8.161 -90.634,-25.949 -109.54,-45.756c-2.177,-2.28 -31.681,-18.855 -36.146,-14.174c-50.948,53.375 -214.545,65.151 -268.533,8.589c-6.961,-7.293 -29.455,-1.883 -47.144,4.296c-32.434,11.327 -85.64,35.622 -118.893,10.739c-36.411,-27.248 -34.987,-85.575 -18.448,-124.563c7.456,-17.572 32.201,-48.037 32.201,-42.446c0,3.04 -95.508,-60.095 -89.732,-109.858c18.454,-158.929 73.862,-174.693 95.965,-201.161c1.708,-2.045 -42.216,-39.792 -46.635,-43.84c-39.746,-36.436 -41.523,-94.345 -10.248,-135.299c6.329,-8.29 18.338,-10.521 42.365,-33.82Z" style="fill:#fffce5;"/></g><path d="M120.169,757.8c-62.579,-46.109 -108.694,-144.189 -64.322,-272.475c14.518,-41.97 54.491,-91.79 76.479,-116.161m0,0c-1.259,4.865 -80.366,10.748 -90.03,-64.033c-8.646,-66.916 39.99,-85.931 71.924,-102.656m0,0c-6.07,5.254 -22.615,-39.659 -25.016,-48.052c-10.458,-36.52 1.032,-79.553 33.354,-97.197c109.89,-59.981 161.828,59.975 167.245,65.654m0,0c-1.021,2.124 56.302,-56.502 116.998,-71.847c108.427,-27.413 221.339,-3.609 282.815,60.798m0,0c0.083,0.461 41.586,-55.664 114.218,-77.017c67.623,-19.879 153.495,-8.899 211.578,31.667c9.555,6.676 28.679,18.617 53.142,39.942m0,0c-1.093,5.371 35.39,-60.78 187.149,-84.277c152.164,-23.558 261.689,52.263 299.523,77.764m0,0c-3.689,-0.365 25.004,-35.107 97.94,-47.678c76.815,-13.24 130.369,13.58 158.682,45.916m0,0c-0.972,7.061 59.342,-51.935 173.761,-69.109c204.519,-30.703 299.552,54.866 318.915,70.694m-0.868,-1.295c-0.877,1.762 -1.107,1.295 0.868,1.295c6.303,0 23.633,-34.652 99.743,-61.753c56.593,-20.147 228.203,-18.358 228.203,74.417m0,-0c44.462,-4.543 68.48,-35.505 141.629,-10.327c63.52,21.864 60.147,105.994 24.61,154.41c-8.701,11.854 -36.842,44.5 -52.915,44.5m0,0c-0.957,0.371 56.737,49.525 74.995,102.017c33.417,96.071 16.775,241.163 -55.394,316.773m0,0c18.957,21.831 71.565,64.175 73.859,176.525c1.202,58.837 -76.168,166.318 -76.168,171.687m0,0c51.641,61.087 66.648,68.955 56.248,145.867c-6.283,46.461 -41.121,69.757 -63.172,93.528m0,0c20.021,26.35 29.8,45.199 27.698,70.124c-12.226,144.957 -177.723,73.107 -177.723,-7.254m-2485.969,-612.447c-40.965,3.992 -63.853,65.148 -57.933,106.5c12.157,84.934 65.929,83.448 65.929,99.487m0,0c-67.312,48.341 -116.257,172.154 -74.112,253.379c16.091,31.013 63.287,61.192 68.606,61.192m0,0c-46.173,22.949 -58.649,114.95 -30.556,156.157c19.797,29.034 60.969,32.981 90.35,27.898c35.882,-6.209 69.426,-38.249 69.426,-41.849m0,0c-0.512,-4.29 20.263,23.973 91.451,48.043c105.158,35.556 199.357,-25.576 216.193,-53.574m0,0c25.795,23.434 73.503,55.197 111.84,60.882c95.284,14.128 143.526,-50.103 143.526,-67.308m0,0c31.195,38.993 72.189,55.095 118.882,62.771c190.426,31.315 261.885,-57.71 280.793,-77.52m0,0c66.625,61.192 201.177,123.593 384.165,69.013c122.214,-36.454 145.329,-66.78 175.713,-93.655m0,0c24.061,20.108 49.977,103.126 226.314,110.042c159.079,6.239 224.238,-81.355 248.365,-101.502m0,0c19.529,18.816 62.413,49.838 82.051,57.638c190.378,75.619 274.968,-58.373 274.968,-65.148" style="fill:#fffce5;"/><path d="M119.119,376.779c-24.728,0.191 -73.895,-11.316 -81.605,-70.97c-8.384,-64.887 34.169,-87.139 67.027,-103.977c-7.66,-11.072 -18.069,-39.351 -19.959,-45.958c-11.109,-38.795 1.411,-84.388 35.746,-103.131c32.026,-17.481 59.346,-20.143 82.176,-14.98c34.18,7.731 58.415,33.21 73.407,54.052c7.164,9.96 12.075,18.79 14.89,23.673c14.299,-12.869 63.42,-56.363 114.868,-69.37c108.073,-27.324 220.465,-4.245 283.691,58.402c11.431,-13.349 51.202,-56.357 113.17,-74.574c68.897,-20.254 156.38,-9.002 215.557,32.328c9.204,6.43 27.212,17.716 50.313,37.466c12.054,-13.541 59.424,-62.905 186.596,-82.596c148.254,-22.952 256.495,47.309 298.39,75.513c8.113,-9.824 38.948,-35.066 98.996,-45.415c77.249,-13.315 131.536,13.068 161.101,45.344c0.768,-0.454 1.664,-0.999 2.543,-1.568c18.809,-12.17 76.354,-53.094 168.898,-66.985c198.705,-29.83 295.206,49.024 319.882,69.492c0.078,0.02 0.156,0.042 0.233,0.067c1.449,-1.313 3.834,-3.506 6.115,-5.758c12.291,-12.131 37.226,-35.296 91.56,-54.643c34.584,-12.312 111.342,-16.647 167.213,2.318c36.864,12.513 64.537,35.185 67.162,71.206c15.182,-2.308 28.102,-7.6 41.973,-12.008c24.274,-7.713 51.29,-13.019 96.541,2.557c66.838,23.007 64.322,111.347 26.929,162.293c-6.271,8.544 -22.369,27.558 -37.129,38.21c-3.409,2.46 -6.779,4.462 -9.978,5.88c15.536,15.181 55.204,55.377 69.896,97.616c33.471,96.223 17.372,240.775 -53.247,318.567c21.368,23.22 69.783,67.606 72.004,176.353c0.349,17.069 -5.571,38.121 -14.441,59.665c-12.947,31.448 -32.091,64.047 -45.807,86.521c-6.527,10.695 -12.506,20.749 -14.936,24.851c30.305,35.714 47.609,53.506 54.63,78.204c4.839,17.026 4.88,37.376 0.587,69.129c-3.289,24.323 -13.998,42.611 -26.826,57.901c-11.232,13.388 -24.105,24.411 -34.688,35.311c19.181,25.839 28.18,45.155 26.07,70.177c-3.616,42.875 -20.287,67.587 -41.899,79.381c-32.214,17.58 -76.351,6.253 -107.481,-18.661c-17.983,-14.392 -31.521,-33.232 -36.197,-53.292c-1.064,1.484 -2.246,3.063 -3.546,4.72c-28.326,36.088 -114.604,111.784 -270.084,50.027c-18.999,-7.545 -59.392,-36.377 -80.441,-55.672c-26.712,24.535 -93.756,105.928 -248.445,99.861c-143.532,-5.63 -189.007,-61.084 -214.032,-93.407c-4.636,-5.988 -8.493,-11.167 -12.173,-14.975c-29.259,26.445 -55.147,56.258 -174.32,91.805c-182.036,54.296 -316.66,-6.058 -385.206,-66.947c-23.279,25.153 -97.787,105.85 -281.822,75.587c-45.007,-7.399 -84.787,-22.565 -115.967,-57.569c-2.288,5.256 -6.09,11.491 -11.547,17.951c-20.86,24.693 -65.896,54.387 -134.822,44.166c-37.265,-5.526 -83.255,-35.051 -110.33,-58.525c-6.38,8.156 -17.567,18.114 -32.589,27.606c-40.969,25.889 -110.702,48.849 -185.919,23.417c-52.136,-17.628 -77.671,-37.504 -87.699,-45.604c-0.258,-0.208 -0.516,-0.415 -0.769,-0.618c-0.543,0.646 -1.162,1.341 -1.858,2.073c-10.123,10.652 -38.435,32.967 -68.283,38.131c-30.963,5.356 -74.198,0.651 -95.061,-29.948c-14.688,-21.545 -19.017,-56.329 -13.392,-88.767c4.978,-28.706 17.748,-55.39 37.253,-69.671c-1.823,-1.054 -3.853,-2.298 -6.039,-3.715c-17.266,-11.184 -44.549,-33.295 -56.184,-55.722c-17.385,-33.507 -19.865,-74.028 -11.99,-113.797c11.42,-57.668 44.619,-113.662 84.551,-143.906c-0.225,-0.232 -0.475,-0.465 -0.736,-0.71c-1.914,-1.795 -4.658,-3.519 -7.899,-5.555c-17.264,-10.848 -47.412,-28.637 -56.276,-90.562c-3.715,-25.947 3.394,-59.356 18.946,-82.829c8.465,-12.776 19.405,-22.604 32.344,-27.06c-59.445,-49.538 -100.718,-146.448 -57.444,-271.557c12.781,-36.95 44.948,-79.943 67.808,-106.823Zm3.825,376.886c1.159,0.854 1.897,2.188 2.028,3.666c0.107,1.2 -0.195,2.39 -0.857,3.375c-0.815,1.214 -2.089,1.987 -3.499,2.125c-0.002,0 -0.003,0 -0.005,0c-14.983,1.462 -27.207,11.47 -36.273,25.152c-14.191,21.417 -20.72,51.89 -17.33,75.565c8.156,56.982 35.811,73.41 51.697,83.392c4.763,2.993 8.559,5.572 10.878,8.253c2.267,2.621 3.403,5.42 3.408,8.572c0,0.006 0,0.013 0,0.019c-0.001,1.669 -0.783,3.224 -2.097,4.169c-39.485,28.356 -72.422,83.33 -83.621,139.88c-7.397,37.355 -5.31,75.443 11.019,106.916c10.892,20.993 36.619,41.482 52.781,51.951c5.491,3.557 11.44,6.362 11.989,6.618c1.702,0.15 3.215,1.235 3.957,2.87c0.308,0.679 0.466,1.415 0.466,2.167c-0.001,1.952 -1.074,3.729 -2.757,4.567c-0.003,0.001 -0.006,0.003 -0.008,0.004c-21.824,10.852 -35.355,38.238 -40.44,67.564c-5.133,29.602 -1.654,61.422 11.75,81.084c18.731,27.471 57.839,30.658 85.638,25.849c24.154,-4.18 47.174,-20.6 58.831,-31.223c3.215,-2.929 6.177,-6.442 6.779,-7.167l0.341,-1.125l0.709,-1.082l1.048,-0.934l1.188,-0.579l1.082,-0.223l1.455,0.085l1.229,0.408c0.873,0.401 2.752,1.83 5.711,4.22c9.689,7.826 34.396,26.957 84.771,43.989c61.724,20.87 119.588,7.661 159.561,-12.14c26.126,-12.942 44.599,-28.568 51.063,-39.311c0.001,-0.002 0.003,-0.005 0.004,-0.007c0.131,-0.217 0.277,-0.423 0.437,-0.617c1.557,-1.883 4.205,-2.295 6.217,-0.965c0.207,0.137 0.404,0.29 0.589,0.458c25.237,22.927 71.847,54.135 109.355,59.696c64.472,9.56 106.732,-17.76 126.245,-40.857c4.807,-5.69 8.204,-11.078 10.131,-15.526c1.03,-2.377 1.65,-4.383 1.651,-5.916c0,-0.001 0,-0.002 0,-0.003c0,-1.499 0.629,-2.91 1.725,-3.873c0.871,-0.765 1.962,-1.181 3.099,-1.181c1.43,0 2.778,0.659 3.697,1.808c30.402,38.002 70.426,53.543 115.933,61.024c187.562,30.844 258.01,-56.589 276.634,-76.101c1.794,-1.881 4.684,-1.981 6.592,-0.227c65.837,60.469 198.839,121.887 379.664,67.952c120.956,-36.079 143.85,-66.058 173.922,-92.656c1.755,-1.554 4.325,-1.591 6.121,-0.089c5.023,4.198 10.168,10.98 16.586,19.27c24.167,31.215 68.292,84.237 206.9,89.674c157.08,6.16 221.353,-80.51 245.177,-100.404c1.856,-1.552 4.526,-1.453 6.273,0.232c19.168,18.468 61.22,48.977 80.496,56.632c130.566,51.862 210.394,3.483 246.51,-32.722c13.012,-13.044 21.497,-27.659 21.984,-28.506c0.369,-2.407 2.362,-4.248 4.763,-4.248c2.663,0 4.824,2.265 4.824,5.054c0,22.665 14.267,44.448 34.182,60.386c28.182,22.554 68.004,33.644 97.167,17.728c19.306,-10.536 33.514,-33.004 36.745,-71.305c1.998,-23.699 -7.631,-41.477 -26.667,-66.531c-1.511,-1.986 -1.375,-4.851 0.315,-6.671c10.975,-11.831 25.14,-23.534 37.335,-38.069c11.675,-13.916 21.526,-30.507 24.52,-52.645c4.026,-29.776 4.257,-48.861 -0.281,-64.826c-6.878,-24.198 -24.5,-41.136 -54.802,-76.981c-0.784,-0.927 -1.213,-2.112 -1.213,-3.351c0,-0.421 0.05,-0.841 0.149,-1.25l0.024,-0.197l0.643,-1.821c0.992,-2.221 3.861,-7.026 7.989,-13.739c11.783,-19.161 34.148,-54.787 49.94,-90.327c10.247,-23.061 17.796,-46.041 17.424,-64.246c-2.252,-110.284 -53.996,-151.801 -72.605,-173.231c-1.732,-1.993 -1.663,-5.07 0.157,-6.975c70.952,-74.335 87.126,-217.017 54.272,-311.468c-16.131,-46.376 -63.747,-89.995 -72.398,-98.541c-0.995,-0.983 -1.606,-1.67 -1.834,-1.982l-0.263,-0.452c-0.058,-0.096 -0.115,-0.193 -0.17,-0.292l-0.175,-0.301l-0.053,-0.18c-0.138,-0.335 -0.243,-0.688 -0.309,-1.056l-0.035,-0.118l0.002,-0.082c-0.034,-0.243 -0.052,-0.492 -0.052,-0.745c-0,-0.357 0.035,-0.705 0.103,-1.041l0.001,-0.043l0.016,-0.038c0.132,-0.61 0.369,-1.178 0.691,-1.682l0.007,-0.018l0.014,-0.016c0.301,-0.465 0.675,-0.874 1.103,-1.21c0.369,-0.29 0.779,-0.524 1.218,-0.694c0.536,-0.208 1.1,-0.313 1.672,-0.313c5.636,0 12.773,-4.963 20.026,-11.122c12.086,-10.263 23.981,-24.479 29.065,-31.405c17.046,-23.225 26.409,-55.005 23.862,-83.611c-2.481,-27.871 -16.467,-52.697 -46.153,-62.916c-42.528,-14.638 -67.916,-9.736 -90.729,-2.487c-15.993,5.082 -30.795,11.189 -48.916,13.042c-0.003,0 -0.007,0.001 -0.01,0.001c-0.156,0.016 -0.312,0.024 -0.468,0.024c-2.48,0.001 -4.562,-1.978 -4.802,-4.564c-0.015,-0.163 -0.023,-0.327 -0.023,-0.491c0,-34.887 -26.311,-55.598 -60.691,-67.268c-53.841,-18.276 -127.808,-14.228 -161.135,-2.364c-59.777,21.284 -82.627,47.305 -92.542,56.865c-2.223,2.144 -3.993,3.569 -5.366,4.275l-1.842,0.696l-0.457,0.055c-0.357,0.086 -0.723,0.13 -1.089,0.131c-0.003,0 -0.005,0 -0.008,0c-1.165,0 -1.805,0.042 -2.068,0.004l-1.155,-0.314l-1.181,-0.695l-0.846,-0.861l-0.78,-1.439l-0.075,-0.363c-24.933,-20.618 -119.332,-96.018 -312.118,-67.076c-102.268,15.35 -160.971,64.458 -170.993,68.991c-0.551,0.249 -1.031,0.419 -1.433,0.528l-1.392,0.221l-1.357,-0.12l-1.162,-0.411l-1.345,-0.969l-1.006,-1.403l-0.045,-0.143c-27.713,-31.058 -79.591,-56.275 -153.612,-43.517c-44.783,7.719 -72.489,23.912 -85.934,35.003c-3.816,3.147 -6.797,6.591 -7.976,8.021c-0.003,0.047 -0.007,0.094 -0.011,0.142c-0.072,0.807 -0.327,1.579 -0.746,2.26c-0.977,1.589 -2.715,2.474 -4.51,2.298c-0.386,-0.038 -0.771,-0.125 -1.146,-0.263l-0.109,-0.025l-0.942,-0.463l-0.219,-0.205c-37.657,-25.39 -145.802,-100.085 -295.949,-76.84c-134.497,20.825 -177.13,75.467 -183.51,82.372l-1.593,1.434l-1.355,0.637l-1.28,0.196l-1.213,-0.142l-1.131,-0.446l-1.025,-0.755l-0.666,-0.86c-23.873,-20.705 -42.528,-32.35 -51.899,-38.897c-56.987,-39.801 -141.25,-50.511 -207.598,-31.006c-64.021,18.821 -103.341,65.238 -110.626,74.002c-0.414,0.498 -0.777,0.912 -1.082,1.245c-0.123,0.166 -0.257,0.325 -0.402,0.478c-0.178,0.187 -0.367,0.356 -0.564,0.507c-0.038,0.034 -0.066,0.057 -0.083,0.069l-0.038,0.021c-0.33,0.237 -0.681,0.426 -1.046,0.568l-0.023,0.013l-0.024,0.005c-0.403,0.151 -0.821,0.245 -1.243,0.28l-0.025,0.006l-0.016,-0.002c-0.656,0.05 -1.32,-0.041 -1.947,-0.27c-0.35,-0.128 -0.688,-0.3 -1.007,-0.515c-0.286,-0.192 -0.556,-0.419 -0.806,-0.681c-0.031,-0.033 -0.062,-0.066 -0.093,-0.098c-60.494,-63.282 -171.574,-86.312 -278.178,-59.36c-53.716,13.581 -104.681,61.753 -113.618,69.705c-0.89,0.792 -1.497,1.279 -1.77,1.466l-0.333,0.143c-0.372,0.225 -0.767,0.393 -1.173,0.505l-0.302,0.13l-1.291,0.081c0,0 -0.724,-0.171 -0.75,-0.177l-0.646,-0.153l-0.343,-0.213c-0.246,-0.124 -0.484,-0.271 -0.71,-0.441l-0.312,-0.194l-0.192,-0.241c-0.035,-0.034 -0.069,-0.069 -0.103,-0.105c-0.152,-0.159 -0.341,-0.406 -0.566,-0.735l-0.222,-0.278l-0.05,-0.13c-2.411,-3.714 -8.156,-14.631 -17.348,-27.41c-13.869,-19.281 -36.118,-43.103 -67.737,-50.255c-21.037,-4.758 -46.169,-2.045 -75.681,14.063c-30.309,16.545 -40.769,57.017 -30.962,91.263c1.631,5.701 9.975,28.776 16.862,40.354c0.922,1.55 2.258,3.232 2.999,4.126c1.581,-0.183 3.195,0.462 4.253,1.804c0.233,0.295 0.432,0.617 0.596,0.959c1.004,2.102 0.487,4.661 -1.243,6.157c-0.276,0.239 -0.582,0.449 -0.916,0.624c-0.016,0.008 -0.031,0.016 -0.047,0.025l-0.387,0.261l-0.337,0.117c-30.491,15.859 -76.712,33.73 -68.53,97.055c6.33,48.984 44.585,60.883 67.323,62.111c6.406,0.346 13.151,-0.817 14.632,-1.092c1.216,-1.191 2.937,-1.646 4.558,-1.186c0.77,0.218 1.472,0.63 2.051,1.205c1.292,1.281 1.807,3.198 1.342,4.996c-0.17,0.66 -0.47,1.291 -0.901,1.85l-0.103,0.213l-0.412,0.381c-21.723,24.121 -60.935,72.925 -75.183,114.116c-43.404,125.485 1.348,221.516 62.561,266.619Zm133.721,666.271c0.025,0.208 0.037,0.417 0.037,0.627c0,0.427 -0.051,0.844 -0.148,1.244l-0.012,0.098c0.155,-0.549 0.214,-1.198 0.122,-1.969Zm1560.002,-1322.056c0.016,0.327 0.002,0.658 -0.043,0.988c0.049,-0.354 0.061,-0.682 0.043,-0.988Zm-259.197,-2.469c0.123,0.083 0.245,0.165 0.367,0.247c0.087,0.058 0.171,0.119 0.253,0.183c-0.189,-0.161 -0.396,-0.305 -0.62,-0.43Zm-484.28,9.611c0.216,0.784 0.251,1.625 0.083,2.454c0.203,-0.997 0.124,-1.805 -0.083,-2.454Zm-380.585,2.792c0.141,0.147 0.282,0.294 0.423,0.441c0.683,0.714 1.141,1.618 1.324,2.61c-0.262,-1.421 -0.896,-2.395 -1.747,-3.051Zm-397.978,15.141c-0.01,0.748 -0.179,1.5 -0.514,2.198c0.417,-0.867 0.519,-1.616 0.514,-2.198Z" style="fill:#010022;"/></svg>