<?xml version="1.0" encoding="UTF-8" standalone="no"?><!DOCTYPE svg PUBLIC "-//W3C//DTD SVG 1.1//EN" "http://www.w3.org/Graphics/SVG/1.1/DTD/svg11.dtd"><svg width="100%" height="100%" viewBox="0 0 300 300" version="1.1" xmlns="http://www.w3.org/2000/svg" xmlns:xlink="http://www.w3.org/1999/xlink" xml:space="preserve" xmlns:serif="http://www.serif.com/" style="fill-rule:evenodd;clip-rule:evenodd;stroke-linejoin:round;stroke-miterlimit:2;"><path d="M-7.935,288.959c38.915,-39.708 227.261,-222.869 227.261,-222.869l-225.652,-0.004l-1.609,222.873Z" style="fill:#edd5f5;"/><path d="M-12.935,288.923l1.609,-222.873c0.02,-2.747 2.253,-4.964 5,-4.964l225.652,0.004c2.035,0 3.867,1.233 4.633,3.119c0.766,1.885 0.312,4.047 -1.147,5.466c0,0 -188.275,183.091 -227.176,222.784c-1.427,1.456 -3.594,1.9 -5.478,1.122c-1.884,-0.777 -3.108,-2.62 -3.093,-4.658Zm10.089,-12.204c45.175,-45.263 174.819,-171.523 209.863,-205.629l-208.379,-0.004l-1.484,205.632Z"/></svg>