<?xml version="1.0" encoding="UTF-8" standalone="no"?><!DOCTYPE svg PUBLIC "-//W3C//DTD SVG 1.1//EN" "http://www.w3.org/Graphics/SVG/1.1/DTD/svg11.dtd"><svg width="100%" height="100%" viewBox="0 0 666 446" version="1.1" xmlns="http://www.w3.org/2000/svg" xmlns:xlink="http://www.w3.org/1999/xlink" xml:space="preserve" xmlns:serif="http://www.serif.com/" style="fill-rule:evenodd;clip-rule:evenodd;stroke-linejoin:round;stroke-miterlimit:2;"><g><path d="M143.835,188.594c-15.006,0.444 -30.476,11.356 -42.735,18.567c-18.437,10.845 -58.338,39.515 -69.426,58.523c-5.863,10.05 -44.685,50.175 -10.35,97.279c16.936,23.235 36.45,44.992 71.732,54.227c17.06,4.465 105.029,22.928 182.119,-14.821c32.932,-16.126 33.17,-67.38 32.225,-78.468c-4.122,-48.365 -25.411,-98.815 -125.474,-134.93c-5.592,-2.018 -33.267,-4.965 -38.091,-0.377Z" style="fill:#fff;"/><path d="M433.259,214.003c-10.28,1.119 -35.813,18.888 -45.824,24.449c-39.93,22.183 -79.866,58.381 -72.865,107.383c0.716,5.014 17.59,44.17 26.917,52.331c37.2,32.55 98.273,34.433 155.605,38.299c12.415,0.837 82.82,-4.922 106.746,-14.492c9.042,-3.617 39.224,-26.499 41.991,-33.031c16.862,-39.804 -9.472,-77.003 -17.699,-98.941c-8.458,-22.555 -14.161,-56.415 -34.158,-73.079c-28.815,-24.012 -76.291,-30.833 -113.031,-24.153c-10.509,1.911 -40.647,18.219 -47.682,21.234Z" style="fill:#d0c1fc;"/><path d="M312.94,21.012c-8.963,-0.029 -39.843,17.331 -48.49,22.653c-32.145,19.781 -105.664,74.182 -51.492,144.427c21.409,27.76 56.958,61.292 117.868,53.507c10.734,-1.372 74.588,-13.741 94.003,-25.875c3.711,-2.319 37.56,-28.25 41.295,-38.689c11.266,-31.489 5.81,-39.942 -15.547,-81.07c-8.121,-15.64 -10.6,-29.677 -19.989,-47.928c-14.717,-28.609 -50.801,-34.579 -69.555,-34.579c-7.401,0 -42.46,1.921 -48.092,7.554Z" style="fill:#fffce5;"/><path d="M208.332,192.487c-20.488,-25.141 -24.521,-54.125 -15.933,-78.233c13.31,-37.361 45.939,-65.877 82.052,-84.014c35.987,-18.074 75.34,-25.792 101.941,-22.184c21.293,2.888 34.891,8.389 44.556,16.29c9.746,7.968 15.581,18.445 20.956,31.69c6.65,16.387 12.707,37.227 26.298,62.746c15.997,30.036 9.277,55.972 -10.333,76.757c17.867,-8.167 44.272,-16.239 82.031,-8.068c60.192,13.026 74.449,45.298 83.829,74.476c3.729,11.599 6.564,22.699 11.612,31.632c22.726,40.222 25.028,69.329 16.538,90.301c-8.059,19.907 -25.972,32.887 -46.975,41.173c-30.077,11.866 -66.415,14.132 -86.152,15.123c-60.557,3.038 -114.378,-5.611 -147.211,-17.575c-14.868,-5.418 -25.571,-11.651 -31.102,-17.694c-15.678,-17.127 -25.177,-33.462 -29.75,-48.929c-1.731,9.717 -4.771,18.429 -9.352,26.171c-9.596,16.219 -25.908,28.413 -51.521,36.537c-24.518,7.776 -57.817,11.876 -102.158,12.468c-37.79,0.505 -83.996,-17.004 -113.786,-45.145c-30.621,-28.926 -44.211,-68.783 -15.591,-111.894c17.359,-26.148 55.454,-61.181 95.127,-80.26c27.27,-13.114 55.295,-18.572 78.116,-9.524c3.764,1.492 9.643,4.282 16.809,8.156Zm102.72,118.023c4.801,-14.918 14.071,-28.806 26.463,-41.582c10.237,-10.553 22.622,-20.358 36.279,-29.389c-17.923,4.739 -36.626,7.8 -54.703,9.013c-13.999,0.939 -28.309,-1.504 -43.63,-7.825c17.091,16.709 30.481,35.743 33.572,55.091c0.807,5.05 1.484,9.946 2.018,14.691Zm226.733,-113.264c-52.735,-11.413 -81.853,11.307 -96.183,17.557c-36.438,15.893 -72.85,36.286 -96.909,61.089c-15.428,15.904 -25.741,33.588 -27.157,53.137c-1.525,21.044 7.312,44.035 30.28,69.127c6.504,7.105 21.38,13.999 41.901,19.766c32.191,9.047 77.956,14.805 128.535,12.268c19.006,-0.954 54.02,-3.01 82.983,-14.437c18.358,-7.243 34.331,-18.223 41.375,-35.623c7.692,-19.001 4.615,-45.186 -15.975,-81.629c-5.351,-9.47 -8.472,-21.194 -12.425,-33.49c-8.544,-26.578 -21.598,-55.897 -76.424,-67.763Zm-306.431,4.047c33.812,27.457 60.899,39.038 87.068,37.282c49.292,-3.308 103.652,-20.572 131.252,-48.936c17.34,-17.82 23.535,-40.182 9.701,-66.156c-13.799,-25.909 -19.987,-47.05 -26.738,-63.687c-4.676,-11.523 -9.54,-20.776 -18.019,-27.708c-8.56,-6.998 -20.712,-11.566 -39.57,-14.123c-25.095,-3.403 -62.159,4.161 -96.109,21.211c-33.825,16.988 -64.653,43.438 -77.119,78.433c-9.342,26.224 -1.174,58.747 29.534,83.683Zm-43.516,-7.666c-20.503,-8.129 -45.595,-2.542 -70.096,9.24c-37.983,18.266 -74.51,51.743 -91.129,76.778c-25.357,38.196 -13.003,73.466 14.127,99.094c27.962,26.414 71.316,42.889 106.786,42.415c43.081,-0.575 75.448,-4.446 99.269,-12.001c22.726,-7.208 37.424,-17.706 45.938,-32.096c11.584,-19.58 11.816,-45.941 6.428,-79.66c-3.124,-19.55 -18.265,-38.455 -36.289,-54.786c-27.841,-25.227 -62.88,-44.166 -75.032,-48.984Z" style="fill:#010022;"/></g><g transform="matrix(0.916094,0.023983,-0.037338,0.999365,-5.923986,1.889277)"><g transform="matrix(90.092657,0,0,90.092657,285.67699,332.328818)"></g><text x="111.207px" y="332.329px" style="font-family:'ChalkboardSE-Regular', 'Chalkboard SE', cursive;font-size:90.093px;fill:#d60000;">n<tspan x="155.794px 200.477px 262.681px " y="332.329px 332.329px 332.329px ">ew!</tspan></text></g><g><path d="M363.406,158.203c-1.707,-2.169 -1.331,-5.315 0.837,-7.021c2.169,-1.707 5.315,-1.331 7.021,0.837c4.031,5.122 10.2,4.07 13.169,0.309c1.71,-2.166 4.857,-2.536 7.023,-0.827c2.166,1.71 2.536,4.857 0.827,7.023c-6.508,8.244 -20.04,10.909 -28.877,-0.321Z" style="fill:#00000a;"/><ellipse cx="357.754" cy="132.254" rx="2.694" ry="5.626" style="fill:#d60000;"/><path d="M357.754,121.627l2.42,0.48l1.427,0.802l1.065,0.954c1.469,1.591 2.783,4.699 2.783,8.39c0,3.691 -1.314,6.799 -2.783,8.39l-1.065,0.954l-1.427,0.802l-2.42,0.48l-2.42,-0.48l-1.427,-0.802l-1.065,-0.954c-1.469,-1.591 -2.783,-4.699 -2.783,-8.39c0,-3.691 1.314,-6.799 2.783,-8.39l1.065,-0.954l1.427,-0.802l2.42,-0.48Z" style="fill:#00000a;"/><ellipse cx="396.602" cy="132.625" rx="2.694" ry="5.626" style="fill:#d60000;"/><path d="M396.602,121.999l2.42,0.48l1.427,0.802l1.065,0.954c1.469,1.591 2.783,4.699 2.783,8.39c0,3.691 -1.314,6.799 -2.783,8.39l-1.065,0.954l-1.427,0.802l-2.42,0.48l-2.42,-0.48l-1.427,-0.802l-1.065,-0.954c-1.469,-1.591 -2.783,-4.699 -2.783,-8.39c-0,-3.691 1.314,-6.799 2.783,-8.39l1.065,-0.954l1.427,-0.802l2.42,-0.48Z" style="fill:#00000a;"/></g></svg>