<?xml version="1.0" encoding="UTF-8" standalone="no"?>
<!DOCTYPE svg PUBLIC "-//W3C//DTD SVG 1.1//EN" "http://www.w3.org/Graphics/SVG/1.1/DTD/svg11.dtd">
<svg width="100%" height="100%" viewBox="0 0 1053 790" version="1.1" xmlns="http://www.w3.org/2000/svg" xmlns:xlink="http://www.w3.org/1999/xlink" xml:space="preserve" xmlns:serif="http://www.serif.com/" style="fill-rule:evenodd;clip-rule:evenodd;stroke-linejoin:round;stroke-miterlimit:2;">
    <g transform="matrix(1.10438,0,0,1.10438,-517.192,-393.362)">
        <g>
            <path d="M483.424,700.771C484.697,701.484 535.674,659.504 546.851,648.327C560.396,634.782 559.272,632.92 593.443,613.58C604.245,607.467 657.363,662.979 657.363,662.979C657.363,662.979 660.568,653.337 660.568,649.117C660.568,631.751 660.383,553.799 662.372,531.636C663.409,520.077 664.221,414.919 664.221,400.756C664.221,393.946 667.676,385.664 667.676,379.038L667.676,375.089C667.676,375.089 682.28,390.332 688.376,394.903C704.241,406.802 712.116,416.616 728.875,432.394C736.629,439.694 772.525,469.672 780.604,477.751C790.164,487.312 822.558,516.457 829.565,522.764C843.339,535.16 897.677,589.253 914.255,601.686C923.821,608.861 935.691,619.718 940.124,628.585C944.76,637.857 930.914,729.143 936.176,734.405C941.547,739.777 988.359,772.374 994.614,778.629C996.193,780.208 1290.83,599.077 1315.23,581.992C1320.29,578.456 1395.9,527.685 1400.1,526.845C1400.62,526.741 1131.66,771.936 1089.07,814.528C1087.55,816.052 1095.91,816.65 1100.43,815.745C1103.18,815.195 1123.19,821.828 1125.48,825.647C1135.83,842.894 1166.56,885.67 1179.97,899.08C1194.68,913.795 1268.64,1023.44 1268.64,1023.44C1268.64,1023.44 1262.4,1021.47 1259.16,1021.07C1239.75,1018.64 1068.22,992.107 1048.31,991.059C982.36,987.588 815.417,951.739 797.977,949.995C793.189,949.516 717.624,983.776 715.272,981.423C708.706,974.858 661.079,831.772 647.143,802.32C637.847,782.673 624.469,733.643 619.103,714.036C609.427,678.683 524.695,705.492 518.588,705.997C509.961,706.711 472.656,706.155 483.424,700.771Z" style="fill:rgb(255,253,230);"/>
            <path d="M479.652,708.517C480.882,704.528 584.508,614.372 589.474,614.372M479.652,708.517C478.548,707.628 614.797,696.853 611.722,696.853M479.748,708.325C483.066,703.951 630.525,637.642 638.073,637.642M589.474,614.372C600.345,616.458 638.39,637.642 638.073,637.642M611.722,696.853C616.054,709.455 699.786,966.245 714.538,980.997M638.073,637.642C650.738,654.023 762.129,804.232 778.729,825.243M714.538,980.997C715.628,985.701 727.764,888.112 729.611,886.265M729.611,886.265C727.759,890.812 787.58,946.768 787.58,950.032M714.538,980.997C714.06,982.83 773.568,955.921 787.58,950.032M729.611,886.265C733.097,873.428 883.14,707.535 889.993,700.118M743.501,779.417C743.33,778.857 858.527,715.851 889.993,700.118M889.993,700.118C887.865,703.199 933.723,632.562 939.59,624.758M939.59,624.758C939.443,631.48 938.916,710.362 938.916,736.22M658.045,664.316C657.457,666.348 663.912,433.222 663.912,370.336M663.912,370.336C683.708,389.86 847.697,539.95 939.59,624.758M889.993,700.118C889.169,699.179 1023.44,798.98 1029.12,803.175M843.879,854.186C851.118,831.164 889.993,699.501 889.993,700.118M729.611,886.265C729.733,886.538 1024.76,803.175 1029.12,803.175M787.58,950.032C796.607,951.593 1258.03,1023.58 1274.63,1026.13M1121.25,819.93C1120.27,822.082 1268.32,1017.38 1274.63,1026.13M1029.12,803.175C1035.72,805.046 1102.97,816.994 1121.25,819.93M994.722,777.635C1014.33,765.59 1376.48,539.663 1406.71,520.964M1087.86,814.195C1087.13,814.344 1403.53,524.148 1406.71,520.964" style="fill:rgb(62,128,29);"/>
            <path d="M664.145,365.814L663.912,365.808C663.388,365.808 662.886,365.897 662.418,366.062L662.384,366.073L662.378,366.076L662.356,366.083L662.249,366.125L662.179,366.152L662.165,366.159L662.15,366.164L662.082,366.195L661.977,366.242L661.956,366.252L661.95,366.255L661.919,366.271C661.473,366.488 661.056,366.784 660.688,367.156L660.529,367.326L660.427,367.447L660.419,367.456L660.416,367.46L660.38,367.502L660.294,367.616L660.284,367.628L660.281,367.633L660.242,367.684L660.169,367.79L660.158,367.805L660.153,367.813L660.114,367.87L660.053,367.969L660.04,367.989L660.033,368.002L659.996,368.062L659.947,368.15L659.931,368.178L659.92,368.2L659.889,368.258L659.851,368.335L659.831,368.374L659.817,368.405L659.792,368.457L659.764,368.523L659.741,368.574L659.723,368.618L659.705,368.661L659.685,368.714L659.659,368.78L659.641,368.835L659.629,368.867L659.616,368.909L659.588,368.99L659.57,369.054L659.563,369.076L659.555,369.108L659.527,369.205L659.511,369.273L659.507,369.288L659.503,369.311L659.477,369.424L659.464,369.492L659.462,369.501L659.459,369.519L659.437,369.647L659.429,369.71L659.428,369.717L659.426,369.731L659.408,369.873L659.404,369.929L659.403,369.933L659.402,369.945L659.39,370.103L659.385,370.336C659.385,423.835 654.711,600.574 653.681,650.815C648.096,643.36 643.982,637.898 641.936,635.239C641.744,634.944 641.497,634.644 641.181,634.345L641.133,634.306C640.967,634.152 640.79,634.013 640.606,633.89L640.486,633.81L640.43,633.777L640.42,633.77L640.397,633.757L640.296,633.697L640.251,633.673L640.23,633.661L640.21,633.651C639.965,633.492 639.672,633.312 639.331,633.117C633.156,629.584 600.641,611.994 590.447,609.95L590.386,609.936L590.342,609.928L590.328,609.925L590.295,609.92L590.163,609.896L590.119,609.891L590.098,609.887L590.036,609.88L589.937,609.868L589.903,609.865L589.869,609.861L589.77,609.855L589.707,609.85L589.686,609.85L589.641,609.847L589.507,609.845L589.474,609.844L589.465,609.845C589.048,609.844 588.64,609.903 588.25,610.014C587.688,610.153 587.003,610.402 586.227,610.831C584.121,611.995 579.556,615.365 573.442,620.24C550.082,638.863 502.707,680.04 484.186,697.404C480.272,701.075 477.593,703.755 476.565,705.02C476.406,705.216 476.265,705.404 476.143,705.585L476.141,705.588C476.071,705.68 476.005,705.775 475.944,705.871C475.429,706.582 475.235,707.311 475.156,707.924C474.986,709.233 475.235,710.654 476.604,711.865L476.739,711.984L476.799,712.032L476.812,712.043L476.833,712.059L476.912,712.122L476.979,712.171L476.997,712.184L477.018,712.199L477.092,712.252L477.161,712.297L477.187,712.315L477.215,712.332L477.279,712.374L477.343,712.411L477.381,712.435L477.421,712.456L477.474,712.487L477.527,712.514L477.58,712.543L477.634,712.57L477.675,712.591L477.716,712.609L477.782,712.641L477.853,712.671L477.883,712.685L477.912,712.696L477.988,712.728L478.073,712.76L478.097,712.769L478.118,712.776L478.196,712.805L478.293,712.835L478.318,712.844L478.337,712.849L478.407,712.871L478.505,712.896L478.542,712.906L478.568,712.912L478.62,712.926L478.706,712.944L478.767,712.957L478.803,712.964L478.835,712.97L478.898,712.98L478.992,712.997L479.038,713.002L479.051,713.004L479.082,713.008C479.66,713.083 480.233,713.042 480.777,712.902L480.964,712.85L480.976,712.846L480.988,712.843L481.112,712.801C481.482,712.747 482.237,712.64 483.016,712.549C500.141,710.545 589.489,703.388 608.577,701.714C617.264,727.834 666.965,879.277 694.386,948.655C701.496,966.645 707.382,979.272 710.657,983.42C711.298,984.564 712.214,985.04 712.746,985.281C713.909,985.809 715.137,985.889 716.42,985.327C716.759,985.257 717.118,985.162 717.495,985.038C726.685,982.036 773.834,960.806 788.15,954.711C816.921,959.344 1257.73,1028.12 1273.94,1030.6L1274.18,1030.63L1274.33,1030.64L1274.34,1030.64L1274.35,1030.64L1274.41,1030.65L1274.54,1030.65L1274.56,1030.65L1274.57,1030.65L1274.63,1030.65L1274.76,1030.65L1274.78,1030.65L1274.79,1030.65L1274.86,1030.65L1274.97,1030.64L1275,1030.64L1275.01,1030.64L1275.08,1030.63L1275.18,1030.62L1275.21,1030.62L1275.24,1030.61L1275.31,1030.61L1275.39,1030.59L1275.43,1030.58L1275.46,1030.58L1275.53,1030.57L1275.59,1030.55L1275.64,1030.54L1275.69,1030.53L1275.74,1030.52L1275.79,1030.5L1275.86,1030.49L1275.92,1030.47L1275.95,1030.46L1275.99,1030.44L1276.07,1030.42L1276.14,1030.4L1276.16,1030.39L1276.19,1030.38L1276.28,1030.34L1276.35,1030.32L1276.36,1030.31L1276.39,1030.3L1276.49,1030.26L1276.55,1030.22L1276.56,1030.22L1276.58,1030.21L1276.69,1030.16L1276.75,1030.13L1276.76,1030.12L1276.77,1030.12L1276.89,1030.05L1276.94,1030.02L1276.95,1030.02L1276.96,1030.01L1277.09,1029.93L1277.28,1029.8C1277.71,1029.49 1278.07,1029.12 1278.35,1028.71L1278.37,1028.68L1278.37,1028.68L1278.38,1028.66L1278.45,1028.56L1278.49,1028.5L1278.49,1028.49L1278.5,1028.48L1278.54,1028.41L1278.6,1028.31L1278.61,1028.29L1278.61,1028.29L1278.62,1028.26C1278.86,1027.82 1279.03,1027.33 1279.11,1026.81L1279.14,1026.58L1279.15,1026.43L1279.15,1026.42L1279.15,1026.41L1279.15,1026.35L1279.16,1026.21L1279.16,1026.2L1279.16,1026.19L1279.16,1026.12L1279.16,1026L1279.16,1025.98L1279.15,1025.97L1279.15,1025.9L1279.14,1025.79L1279.14,1025.76L1279.14,1025.75L1279.14,1025.67L1279.12,1025.58L1279.12,1025.55L1279.12,1025.52L1279.11,1025.45L1279.09,1025.37L1279.09,1025.33L1279.08,1025.29L1279.07,1025.23L1279.06,1025.17L1279.04,1025.11L1279.03,1025.07L1279.02,1025.02L1279.01,1024.96L1278.99,1024.9L1278.97,1024.84L1278.96,1024.81L1278.95,1024.77L1278.92,1024.69L1278.9,1024.62L1278.89,1024.6L1278.88,1024.57L1278.85,1024.48L1278.82,1024.41L1278.81,1024.39L1278.8,1024.37L1278.76,1024.27L1278.73,1024.2L1278.73,1024.19L1278.72,1024.18L1278.66,1024.07L1278.63,1024.01L1278.63,1024L1278.62,1023.99L1278.55,1023.87L1278.52,1023.82L1278.52,1023.81L1278.51,1023.8L1278.43,1023.67L1278.3,1023.48C1272.62,1015.61 1152.16,856.67 1128.85,823.392C1127.26,821.125 1125.9,819.01 1125.52,818.423L1125.5,818.356L1125.5,818.347L1125.49,818.333L1125.45,818.226L1125.42,818.163L1125.41,818.146L1125.4,818.116L1125.36,818.026L1125.34,817.976L1125.32,817.948L1125.3,817.9L1125.27,817.831L1125.24,817.793L1125.22,817.755L1125.19,817.688L1125.16,817.641L1125.14,817.615L1125.12,817.566L1125.06,817.484L1125.05,817.456L1125.03,817.44L1125,817.383L1124.93,817.29L1124.92,817.277L1124.92,817.269L1124.87,817.205L1124.79,817.102C1124.7,816.99 1124.6,816.882 1124.5,816.778L1124.44,816.708L1124.35,816.63L1124.35,816.625L1124.34,816.62L1124.27,816.555L1124.2,816.491L1124.18,816.479L1124.17,816.467L1124.1,816.411L1124.04,816.361L1124.02,816.341L1123.99,816.32L1123.93,816.274L1123.88,816.238L1123.84,816.212L1123.79,816.179L1123.74,816.145L1123.7,816.122L1123.65,816.09L1123.58,816.047L1123.55,816.025L1123.52,816.011L1123.46,815.978L1123.37,815.927L1123.34,815.913L1123.33,815.906L1123.27,815.874L1123.15,815.82L1123.13,815.811L1123.12,815.807L1123.07,815.78L1122.95,815.732L1122.92,815.72L1122.91,815.715L1122.86,815.695L1122.75,815.659L1122.7,815.64L1122.68,815.633L1122.64,815.62L1122.57,815.597L1122.49,815.573L1122.45,815.563L1122.42,815.556L1122.37,815.544L1122.27,815.516L1122.21,815.506L1122.2,815.502L1122.17,815.497L1122.05,815.471L1121.98,815.462L1121.97,815.46C1116.87,814.64 1107.93,813.117 1097.57,811.308L1099.6,809.431C1149.82,762.996 1401.43,532.189 1409.73,524.342L1409.82,524.257L1409.9,524.18L1409.92,524.165L1409.93,524.152L1409.98,524.099L1410.06,524.015L1410.08,523.997L1410.09,523.984L1410.13,523.934L1410.2,523.849L1410.23,523.822L1410.24,523.805L1410.28,523.763L1410.33,523.685L1410.37,523.641L1410.38,523.617L1410.41,523.585L1410.45,523.52L1410.5,523.456L1410.52,523.423L1410.53,523.403L1410.56,523.356L1410.62,523.265L1410.64,523.225L1410.64,523.215L1410.66,523.189L1410.72,523.07L1410.75,523.018C1410.92,522.693 1411.04,522.352 1411.12,522.003L1411.16,521.829L1411.16,521.797L1411.16,521.79L1411.17,521.75L1411.19,521.614L1411.2,521.591L1411.2,521.576L1411.21,521.487L1411.22,521.398L1411.22,521.383L1411.23,521.36L1411.23,521.222L1411.24,521.181L1411.24,521.174L1411.24,521.142L1411.24,520.964C1411.24,520.606 1411.2,520.245 1411.11,519.891L1411.1,519.835L1411.06,519.703L1411.06,519.675L1411.05,519.664L1411.04,519.62L1411.01,519.518L1410.99,519.466L1410.98,519.443L1410.97,519.407L1410.94,519.333L1410.91,519.26L1410.89,519.224L1410.88,519.196L1410.86,519.147L1410.82,519.057L1410.8,519.008L1410.79,518.989L1410.77,518.957L1410.72,518.858L1410.69,518.799L1410.68,518.784L1410.67,518.762L1410.62,518.663L1410.58,518.599L1410.57,518.583L1410.55,518.561L1410.5,518.473L1410.45,518.412L1410.44,518.388L1410.41,518.356L1410.37,518.287L1410.33,518.238L1410.3,518.202L1410.26,518.154L1410.23,518.106L1410.2,518.072L1410.16,518.024L1410.1,517.962L1410.08,517.932L1410.06,517.91L1410.01,517.856L1409.93,517.782L1409.92,517.763L1409.9,517.75L1409.85,517.696L1409.77,517.62L1409.75,517.602L1409.74,517.591L1409.68,517.545L1409.6,517.476L1409.57,517.452L1409.56,517.439L1409.51,517.404L1409.43,517.346L1409.39,517.312L1409.37,517.295L1409.34,517.272L1409.27,517.228L1409.21,517.183L1409.17,517.163L1409.15,517.149L1409.11,517.121L1409.02,517.064L1408.98,517.042L1408.97,517.036L1408.94,517.022L1408.82,516.955L1408.77,516.93C1408.44,516.763 1408.1,516.64 1407.75,516.558L1407.58,516.52L1407.55,516.515L1407.54,516.514L1407.5,516.507L1407.37,516.484L1407.34,516.481L1407.33,516.479L1407.24,516.469L1407.15,516.458L1407.13,516.457L1407.11,516.455L1406.97,516.446L1406.93,516.443L1406.92,516.443L1406.89,516.44L1406.71,516.438C1406.36,516.437 1406,516.479 1405.64,516.566L1405.59,516.579L1405.45,516.616L1405.43,516.624L1405.41,516.627L1405.37,516.64L1405.27,516.674L1405.22,516.691L1405.19,516.7L1405.16,516.712L1405.08,516.741L1405.01,516.769L1404.98,516.784L1404.95,516.795L1404.9,516.818L1404.81,516.857L1404.76,516.881L1404.74,516.89L1404.71,516.907L1404.61,516.955L1404.55,516.988L1404.54,516.996L1404.51,517.009L1404.41,517.064L1404.35,517.104L1404.33,517.113C1374.99,535.262 1032.97,748.628 994.953,772.17L970.045,753.676C962.391,747.998 954.738,742.32 947.085,736.642L943.446,733.944C943.472,706.059 943.974,631.386 944.116,624.857L944.116,624.803L944.117,624.773L944.116,624.729L944.115,624.624L944.112,624.566L944.112,624.556L944.11,624.534C944.085,623.988 943.961,623.466 943.756,622.987C943.684,622.815 943.6,622.647 943.505,622.484L943.504,622.482L943.477,622.438L943.395,622.303L943.389,622.294L943.268,622.116C943.091,621.87 942.887,621.639 942.657,621.428C850.804,536.657 686.879,386.629 667.091,367.112L666.921,366.953L666.801,366.851L666.791,366.843L666.788,366.84L666.745,366.804L666.632,366.717L666.62,366.708L666.615,366.704L666.564,366.665L666.457,366.592L666.443,366.582L666.434,366.577L666.377,366.537L666.279,366.477L666.259,366.464L666.246,366.456L666.186,366.42L666.097,366.371L666.069,366.355L666.048,366.344L665.99,366.312L665.913,366.275L665.874,366.255L665.842,366.241L665.79,366.215L665.725,366.188L665.674,366.164L665.63,366.147L665.587,366.129L665.534,366.109L665.468,366.083L665.413,366.065L665.38,366.052L665.339,366.039L665.258,366.012L665.194,365.994L665.171,365.987L665.14,365.978L665.043,365.951L664.974,365.935L664.96,365.931L664.936,365.926L664.824,365.9L664.756,365.888L664.746,365.886L664.728,365.883L664.601,365.86L664.537,365.852L664.531,365.851L664.516,365.85L664.375,365.832L664.319,365.827L664.315,365.827L664.302,365.826L664.145,365.814ZM1029.02,807.814C1027.9,808.079 1025.38,808.689 1022.46,809.458C980.398,820.514 782.241,876.395 739.12,888.368L736.672,889.043C738.705,891.582 741.648,895.139 744.63,898.343C758.209,912.934 779.706,933.863 787.763,942.821C788.842,944.021 789.707,945.06 790.341,945.894C821.825,950.935 1194.07,1009.02 1264.36,1019.95C1237.86,984.697 1141.97,857.905 1121.43,828.588C1120.15,826.756 1119.14,825.227 1118.41,824.051C1111.5,822.917 1100.01,820.933 1087.48,818.718C1087.18,818.696 1086.91,818.645 1086.66,818.574C1062.99,814.386 1035.9,809.425 1029.02,807.814ZM718.942,979.947L718.943,979.954L718.949,979.976L718.942,979.947ZM718.909,979.82L718.924,979.875L718.916,979.845L718.906,979.808L718.909,979.82ZM731.942,897.794C728.869,917.116 723.581,957.026 720.766,974.11C735.03,968.323 765.636,954.616 780.415,948.185C770.669,937.47 743.826,911.526 731.942,897.794ZM636.331,642.817C634.557,643.404 631.856,644.332 629.101,645.407C606.108,654.375 551.786,678.475 515.898,695.231C511.022,697.507 506.491,699.643 502.436,701.582C535.721,698.603 594.397,693.879 608.343,692.646C609.452,692.548 610.429,692.452 610.852,692.41L610.873,692.406L610.919,692.397L610.976,692.388L611.033,692.378L611.081,692.372L611.143,692.362L611.22,692.354L611.26,692.349L611.292,692.346L611.367,692.339L611.463,692.333L611.49,692.331L611.51,692.331L611.589,692.327L611.7,692.326L611.722,692.325L611.738,692.326L611.812,692.326L611.925,692.331C613.42,692.381 614.146,692.995 614.306,693.104C615.592,693.972 616.071,695.066 616.233,696.059C621.368,711.278 674.215,872.986 702.807,945.327C706.515,954.709 709.807,962.57 712.528,968.382C715.512,949.278 720.464,911.942 723.269,894.687C724.017,890.088 724.644,886.825 725.038,885.52C725.16,885.114 725.301,884.764 725.447,884.464C725.852,883.4 726.679,881.829 727.99,879.86C730.845,875.572 736.27,868.597 743.471,859.817C751.446,850.092 761.628,838.109 772.875,825.094C766.93,817.4 755.41,802.105 741.431,783.442C740.38,782.902 739.541,781.954 739.17,780.736C739.136,780.624 739.085,780.458 739.039,780.249C712.181,744.38 677.217,697.411 655.012,667.705C654.697,667.442 654.239,666.989 653.906,666.225C645.969,655.607 639.773,647.346 636.331,642.817ZM879.878,718.025C850.741,750.317 782.631,826.348 750.472,865.559C746.306,870.639 742.751,875.088 739.98,878.728C758.501,873.572 797.124,862.725 840.242,850.638C846.791,829.494 869.181,753.927 879.878,718.025ZM892.472,707.5C885.393,731.086 860.027,816.815 850.601,847.736C917.907,828.871 992.906,807.912 1018.71,801.085C993.197,782.144 913.542,722.968 892.472,707.5ZM869.781,715.703C831.54,735.913 768.345,770.439 750.549,780.513C762.841,796.918 773.046,810.466 778.925,818.111C810.405,781.859 848.28,739.562 869.781,715.703ZM1088.27,809.674L1088.45,809.707C1088.58,809.724 1088.7,809.745 1088.83,809.773L1089.03,809.809C1088.8,809.744 1088.54,809.695 1088.27,809.674ZM1368.29,550.207C1272.12,610.102 1044.19,752.272 1002.77,777.975L1011.45,784.417L1031.11,799.015C1037.1,800.463 1063.06,805.216 1086.39,809.343C1087.87,807.956 1090.26,805.736 1093.45,802.782C1132.77,766.425 1295.66,616.952 1368.29,550.207ZM668.391,380.884C667.878,447.871 663.176,623.518 662.593,658.352C662.564,660.095 662.551,661.639 662.546,662.664C684.464,691.989 718.536,737.758 745.075,773.209C765.022,761.856 857.394,711.47 886.814,696.651L886.893,696.527C892.274,688.117 923.702,639.8 933.601,625.394C848.815,547.167 706.494,416.841 668.391,380.884ZM934.91,639.638C923.101,657.357 902.968,688.303 896.109,698.936L896.21,699.009C902.637,703.714 917.156,714.455 934.404,727.242C934.466,703.816 934.725,662.144 934.91,639.638ZM590.051,619.16C588.365,620.332 583.838,623.532 579.086,627.32C560.889,641.827 528.03,670.105 505.809,689.964C507.821,689.013 509.912,688.033 512.068,687.026C548.126,670.19 602.709,645.982 625.81,636.971L626.862,636.565C616.01,630.68 598.149,621.404 590.051,619.16Z" style="fill:rgb(1,0,35);"/>
        </g>
        <g transform="matrix(0.289241,0.391583,-0.391583,0.289241,1435.74,395.594)">
            <text x="330.415px" y="1154.82px" style="font-family:'ChalkboardSE-Regular', 'Chalkboard SE', cursive;font-size:178.222px;fill:rgb(215,0,0);">sa<tspan x="501.942px 583.471px " y="1154.82px 1154.82px ">ve</tspan></text>
        </g>
        <g transform="matrix(-0.286584,0.228393,-0.228393,-0.286584,1554.61,915.567)">
            <text x="330.415px" y="1154.82px" style="font-family:'ChalkboardSE-Regular', 'Chalkboard SE', cursive;font-size:178.222px;fill:rgb(215,0,0);">sa<tspan x="501.942px 583.471px " y="1154.82px 1154.82px ">ve</tspan></text>
        </g>
        <g transform="matrix(0.469194,-0.129825,0.129825,0.469194,569.447,407.248)">
            <text x="330.415px" y="1154.82px" style="font-family:'ChalkboardSE-Regular', 'Chalkboard SE', cursive;font-size:178.222px;fill:rgb(215,0,0);">sa<tspan x="501.942px 583.471px " y="1154.82px 1154.82px ">ve</tspan></text>
        </g>
        <g transform="matrix(-0.143707,-0.412711,0.412711,-0.143707,293.869,1163.48)">
            <text x="330.415px" y="1154.82px" style="font-family:'ChalkboardSE-Regular', 'Chalkboard SE', cursive;font-size:178.222px;fill:rgb(215,0,0);">sa<tspan x="501.942px 583.471px " y="1154.82px 1154.82px ">ve</tspan></text>
        </g>
        <g transform="matrix(0.329935,0.303966,-0.303966,0.329935,964.653,16.2526)">
            <text x="330.415px" y="1154.82px" style="font-family:'ChalkboardSE-Regular', 'Chalkboard SE', cursive;font-size:178.222px;fill:rgb(215,0,0);">sa<tspan x="501.942px 583.471px " y="1154.82px 1154.82px ">ve</tspan></text>
        </g>
    </g>
</svg>
