<?xml version="1.0" encoding="UTF-8" standalone="no"?><!DOCTYPE svg PUBLIC "-//W3C//DTD SVG 1.1//EN" "http://www.w3.org/Graphics/SVG/1.1/DTD/svg11.dtd"><svg width="100%" height="100%" viewBox="0 0 623 175" version="1.1" xmlns="http://www.w3.org/2000/svg" xmlns:xlink="http://www.w3.org/1999/xlink" xml:space="preserve" xmlns:serif="http://www.serif.com/" style="fill-rule:evenodd;clip-rule:evenodd;stroke-linejoin:round;stroke-miterlimit:2;"><g><path d="M55.952,36.616c0.382,-19.442 11.467,36.521 11.467,45.417c0,11.724 4.725,29.861 0,41.224c-1.719,4.135 -13.853,26.095 -11.429,29.009c1.819,2.187 20.662,-2.061 24.254,-0.981c37.198,11.181 83.045,-0.546 120.517,-0.546c99.321,0 200.582,-4.033 298.864,-4.033c44.539,0 96.763,2.282 108.781,-55.512c14.775,-71.055 -68.1,-65.008 -104.148,-62.459c-37.044,2.62 -88.15,-4.72 -125.708,-4.72c-12.419,0 -240.097,13.741 -322.561,13.741" style="fill:#8bd28a;"/><path d="M65.377,88.294c-1.138,6.637 5.073,-36.556 2.043,-47.485c-2.711,-9.778 -26.173,-12.745 -33.018,-10.688c-18.459,5.548 -31.672,105.379 -5.08,116.037c42.244,16.929 46.059,-60.545 40.638,-93.135c-0.639,-3.843 -1.12,-4.58 -3.81,-4.58" style="fill:#4d7a50;"/><path d="M51.721,28.103c45.86,-0.912 260.467,-2.772 348.704,-6.194c20.338,-0.789 82.827,0.342 127.984,0.972c43.074,0.6 45.765,2.313 50.349,4.021c0.003,0.001 0.006,0.002 0.009,0.003c0.215,0.08 0.424,0.175 0.626,0.283c0.003,0.002 0.007,0.004 0.01,0.005c10.185,5.487 23.156,17.59 27.192,27.296c7.897,18.988 8.125,45.411 -0.79,64.878c-6.25,13.647 -16.878,23.922 -32.135,26.639c-33.381,8.198 -90.84,5.764 -124.292,7.004c-88.65,3.286 -262.401,1.302 -295.326,3.63c-18.112,1.281 -67.06,2.199 -109.584,1.717c-4.305,0.079 -9.098,-1.15 -14.35,-4.257c-13.393,-7.921 -20.123,-26.974 -21.433,-48.656c-0.883,-14.619 -0.422,-39.062 9.516,-56.061c2.853,-4.88 6.927,-11.187 12.106,-15.697c5.864,-5.106 13.041,-8.002 21.413,-5.585Zm-7.504,120.258c0.053,-0.001 0.107,-0.002 0.16,-0.003c0.531,-0.014 1.05,-0.066 1.559,-0.155c3.57,-0.624 6.435,-3.03 8.805,-6.194c2.84,-3.791 4.934,-8.676 6.378,-13.729c6.031,-21.119 3.878,-41.64 4.079,-53.213c0.257,-14.766 -3.038,-23.671 -6.953,-29.092c-3.822,-5.293 -8.13,-7.15 -9.545,-8.143l-0.307,-0.262c-4.505,-1.046 -8.319,0.874 -11.519,3.66c-4.333,3.773 -7.653,9.119 -10.04,13.202c-8.925,15.267 -8.96,37.282 -8.167,50.411c0.564,9.331 2.124,18.161 5.019,25.505c2.623,6.653 6.301,12.059 11.523,15.147c3.329,1.969 6.314,2.899 9.008,2.866Zm527.221,-12.103c0.114,-0.028 0.228,-0.052 0.344,-0.072c0.003,-0 0.005,-0.001 0.008,-0.001c11.936,-2.078 20.046,-10.327 24.924,-20.98c7.815,-17.065 7.571,-40.229 0.648,-56.874c-3.299,-7.933 -14.039,-17.578 -22.418,-22.178c-4.105,-1.534 -7.517,-2.726 -46.673,-3.272c-44.971,-0.627 -107.203,-1.764 -127.457,-0.978c-27.533,1.068 -67.363,1.984 -110.534,2.767c6.776,6.532 15.069,16.51 19.918,30.06c13.726,38.355 2.678,60.479 -7.879,80.388c52.569,-0.226 107.807,-0.657 146.69,-2.098c32.959,-1.222 89.62,1.352 122.43,-6.76Zm-280.456,8.904c10.143,-19.205 23.214,-39.582 9.8,-77.065c-6.551,-18.306 -20.317,-29.162 -25.551,-33.164c-81.375,1.397 -170.711,2.341 -210.658,2.952c0.614,0.704 1.213,1.45 1.78,2.236c4.739,6.564 9.154,17.241 8.844,35.12c-0.061,3.48 0.067,7.731 0.13,12.547c3.373,-0.314 9.333,-0.652 17.15,-0.988c46.537,-2.004 160.464,-4.271 180.572,-4.271c2.76,0 5,2.24 5,5c0,2.76 -2.24,5 -5,5c-20.06,0 -133.716,2.263 -180.142,4.262c-8.108,0.349 -15.214,0.903 -17.608,1.099c-0.235,10.022 -1.238,21.49 -4.564,33.136c-1.857,6.504 -4.733,12.647 -8.504,17.455c37.321,0.102 75.608,-0.718 91.117,-1.815c17.478,-1.236 74.597,-1.262 137.634,-1.504Zm56.584,-51.978c-2.75,0.226 -5.166,-1.824 -5.392,-4.574c-0.226,-2.75 1.824,-5.166 4.574,-5.392c30.948,-2.54 88.054,-0.929 111.968,-0.929c10.802,0 89.234,-4.191 102.611,-3.621c2.757,0.117 4.9,2.451 4.783,5.208c-0.117,2.757 -2.451,4.9 -5.208,4.783c-13.322,-0.568 -91.428,3.63 -102.186,3.63c-23.739,0 -80.428,-1.626 -111.15,0.895Z" style="fill:#010023;"/></g></svg>