<?xml version="1.0" encoding="UTF-8" standalone="no"?><!DOCTYPE svg PUBLIC "-//W3C//DTD SVG 1.1//EN" "http://www.w3.org/Graphics/SVG/1.1/DTD/svg11.dtd"><svg width="100%" height="100%" viewBox="0 0 623 175" version="1.1" xmlns="http://www.w3.org/2000/svg" xmlns:xlink="http://www.w3.org/1999/xlink" xml:space="preserve" xmlns:serif="http://www.serif.com/" style="fill-rule:evenodd;clip-rule:evenodd;stroke-linecap:round;stroke-linejoin:round;stroke-miterlimit:1.5;"><path d="M402.082,16.216c-49.473,-3.416 -158.004,8.675 -206.676,12.25c-40.674,2.988 -179.566,14.683 -182.02,63.486c-1.651,32.832 99.924,50.473 123.381,53.473c75.933,9.712 175.005,3.905 238.875,1.067c54.339,-2.415 145.975,-0.425 193.517,-21.294c20.899,-9.174 85.11,-44.688 -15.511,-84.488c-36.105,-14.281 -104.878,-21.269 -151.565,-24.493Z" style="fill:#d0c1fc;"/><path d="M402.426,11.228c47.153,3.255 116.595,10.408 153.06,24.831c25.141,9.944 40.318,19.766 48.685,28.879c6.321,6.884 9.024,13.551 9.413,19.75c0.581,9.271 -4.092,17.777 -11.179,24.913c-9.516,9.581 -23.317,16.698 -31.237,20.175c-47.986,21.064 -140.457,19.273 -195.304,21.711c-64.099,2.849 -163.526,8.645 -239.731,-1.102c-16.704,-2.137 -72.328,-11.648 -103.636,-28.572c-7.171,-3.877 -13.113,-8.167 -17.229,-12.781c-4.752,-5.326 -7.186,-11.148 -6.876,-17.331c0.815,-16.213 14.618,-29.295 35.614,-38.961c44.756,-20.604 122.229,-27.144 151.033,-29.26c48.839,-3.587 157.744,-15.679 207.386,-12.251Zm-0.689,9.976c-49.303,-3.404 -157.46,8.686 -205.965,12.248c-28.139,2.067 -103.863,8.243 -147.584,28.371c-8.873,4.085 -16.385,8.724 -21.735,14.102c-4.775,4.801 -7.766,10.161 -8.073,16.277c-0.184,3.668 1.531,7.011 4.35,10.171c3.455,3.872 8.505,7.388 14.523,10.641c30.242,16.349 84.014,25.386 100.149,27.45c75.661,9.678 174.377,3.86 238.018,1.031c53.83,-2.392 144.633,-0.204 191.729,-20.877c7.127,-3.128 19.6,-9.444 28.161,-18.065c4.966,-5 8.701,-10.745 8.294,-17.241c-0.347,-5.54 -3.714,-11.358 -10.97,-17.633c-8.304,-7.183 -21.4,-14.638 -40.826,-22.322c-35.745,-14.139 -103.848,-20.963 -150.07,-24.154Z"/><g><path d="M123.126,71.014c0.898,-0.962 2.177,-1.564 3.596,-1.564c2.715,0 4.919,2.204 4.919,4.919c0,-0.196 -0.012,-0.429 -0.048,-0.656l0.013,1.667l-0.387,1.3l-1.279,1.711l-1.002,0.672l-1.045,0.389l-2.022,0.082l-1.82,-0.656c-2.358,-1.345 -3.18,-4.352 -1.835,-6.709c0.251,-0.439 0.559,-0.825 0.91,-1.154Zm4.441,-1.208c0.465,0.105 0.923,0.279 1.358,0.527c-0.508,-0.29 -0.962,-0.448 -1.358,-0.527Zm-5.741,4.833c0.002,0.205 0.019,0.415 0.053,0.629l-0.053,-0.629Z"/><path d="M400.525,48.324c-0.685,-0.333 -1.09,-0.261 -1.919,-0.261" style="fill:none;stroke:#000;stroke-width:12.3px;"/><path d="M539.395,66.513c0.074,0.043 0.148,0.087 0.222,0.13" style="fill:none;stroke:#000;stroke-width:12.3px;"/><path d="M434.679,71.989c-0.811,2.015 -3.104,2.992 -5.119,2.182c-2.015,-0.811 -2.992,-3.104 -2.182,-5.119l0.065,-0.161c0.811,-2.015 3.104,-2.992 5.119,-2.182c2.015,0.811 2.992,3.104 2.182,5.119l-0.065,0.161Z"/><path d="M464.823,62.001c-1.832,-1.167 -2.371,-3.601 -1.204,-5.433c1.167,-1.832 3.601,-2.371 5.433,-1.204l0.1,0.064c1.832,1.167 2.371,3.601 1.204,5.433c-1.167,1.832 -3.601,2.371 -5.433,1.204l-0.1,-0.064Z"/><path d="M542.933,87.737c1.285,1.751 0.906,4.215 -0.844,5.5c-1.751,1.285 -4.215,0.906 -5.5,-0.844l-0.145,-0.197c-1.285,-1.751 -0.906,-4.215 0.844,-5.5c1.751,-1.285 4.215,-0.906 5.5,0.844l0.145,0.197Z"/><path d="M470.049,55.747c1.45,1.617 1.315,4.106 -0.302,5.556c-1.617,1.45 -4.106,1.315 -5.556,-0.302l-0.083,-0.092c-1.45,-1.617 -1.315,-4.106 0.302,-5.556c1.617,-1.45 4.106,-1.315 5.556,0.302l0.083,0.092Z"/></g></svg>