<?xml version="1.0" encoding="UTF-8" standalone="no"?><!DOCTYPE svg PUBLIC "-//W3C//DTD SVG 1.1//EN" "http://www.w3.org/Graphics/SVG/1.1/DTD/svg11.dtd"><svg width="100%" height="100%" viewBox="0 0 1000 1350" version="1.1" xmlns="http://www.w3.org/2000/svg" xmlns:xlink="http://www.w3.org/1999/xlink" xml:space="preserve" xmlns:serif="http://www.serif.com/" style="fill-rule:evenodd;clip-rule:evenodd;stroke-linecap:round;stroke-linejoin:round;stroke-miterlimit:1.5;"><g><path d="M275.456,61.011c-0.613,10.647 74.959,8.505 105.455,69.497c18.472,36.945 9.768,124.815 10.612,168.822c1.936,101.01 8.293,193.475 2.402,294.145c-2.281,38.983 -31.912,96.156 -64.725,110.567c-19.362,8.504 -62.516,25.743 -83.485,26.387c-56.868,1.747 -64.786,-7.355 -108.511,44.901c-14.936,17.85 -25.888,99.814 -32.137,109.813c-0.731,1.169 -37.709,163.586 -37.709,178.302c0,15.926 -0.194,34.126 -2.388,49.486c-1.605,11.238 -4.827,25.434 -2.902,36.984c2.377,14.262 10.136,19.261 16.515,32.019c0.305,0.611 -42.85,27.065 -44.988,28.129c-23.986,11.938 -28.53,39.523 -12.224,50.096c46.739,30.305 176.299,45.292 195.657,42.758c32.838,-4.299 259.034,19.241 297.523,21.274c69.985,3.697 135.546,9.99 203.814,11.629c86.047,2.066 158.707,-17.565 233.012,-40.014c40.558,-12.254 30.865,-78.388 -13.439,-110.131c-11.87,-8.505 -89.015,-29.378 -119.909,-36.818c-11.735,-2.826 -22.7,-37.975 -21.03,-47.995c12.784,-76.704 0.923,-155.207 13.72,-231.988c5.071,-30.424 1.517,-147.507 -6.712,-180.422c-11.435,-45.741 -81.255,-61.616 -99.305,-97.715c-9.255,-18.509 -3.987,-105.884 -4.989,-128.467c-4.988,-112.419 18.158,-239.191 -44.901,-350.477c-6.721,-11.861 -69.817,-71.434 -130.441,-74.802c-27.399,-1.522 -118.723,-11.667 -146.303,-9.369c-9.119,0.76 -136.807,-3.707 -138.317,8.958c-2.196,18.427 32.371,24.43 35.704,24.43Z" style="fill:url(#_Linear1);"/><path d="M275.456,61.011c-0.613,10.647 74.959,8.505 105.455,69.497c18.472,36.945 9.768,124.815 10.612,168.822c1.936,101.01 8.293,193.475 2.402,294.145c-2.281,38.983 -31.912,96.156 -64.725,110.567c-19.362,8.504 -62.516,25.743 -83.485,26.387c-56.868,1.747 -64.786,-7.355 -108.511,44.901c-14.936,17.85 -25.888,99.814 -32.137,109.813c-0.731,1.169 -37.709,163.586 -37.709,178.302c0,15.926 -0.194,34.126 -2.388,49.486c-1.605,11.238 -4.827,25.434 -2.902,36.984c2.377,14.262 10.136,19.261 16.515,32.019c0.305,0.611 -42.85,27.065 -44.988,28.129c-23.986,11.938 -28.53,39.523 -12.224,50.096c46.739,30.305 176.299,45.292 195.657,42.758c32.838,-4.299 259.034,19.241 297.523,21.274c69.985,3.697 135.546,9.99 203.814,11.629c86.047,2.066 158.707,-17.565 233.012,-40.014c40.558,-12.254 30.865,-78.388 -13.439,-110.131c-11.87,-8.505 -89.015,-29.378 -119.909,-36.818c-11.735,-2.826 -22.7,-37.975 -21.03,-47.995c12.784,-76.704 0.923,-155.207 13.72,-231.988c5.071,-30.424 1.517,-147.507 -6.712,-180.422c-11.435,-45.741 -81.255,-61.616 -99.305,-97.715c-9.255,-18.509 -3.987,-105.884 -4.989,-128.467c-4.988,-112.419 18.158,-239.191 -44.901,-350.477c-6.721,-11.861 -69.817,-71.434 -130.441,-74.802c-27.399,-1.522 -118.723,-11.667 -146.303,-9.369c-9.119,0.76 -136.807,-3.707 -138.317,8.958c-2.196,18.427 32.371,24.43 35.704,24.43Z" style="fill:url(#_Linear2);"/><path d="M237.425,1099.645c-3.662,-25.637 -9.027,-56.281 -1.706,-81.903c2.727,-9.543 1.82,-21.273 6.256,-30.145c3.466,-6.931 16.868,-29.755 19.338,-34.695c8.742,-17.483 9.186,-49.255 14.219,-69.39c3.418,-13.673 16.803,-88.107 33.558,-100.673c27.29,-20.467 62.926,-7.291 92.71,-3.981c27.866,3.096 67.687,24.46 69.959,26.732c10.201,10.201 5.993,41.869 10.238,54.602c4.261,12.784 35.482,12.949 41.52,25.026c6.212,12.425 -11.342,83.152 -15.926,93.847c-6.848,15.98 -60.245,105.706 -96.691,139.349c-15.017,13.862 -47.281,37.611 -50.621,40.952c-12.474,12.474 -78.147,-1.498 -92.213,-12.048" style="fill:#d0c1fc;"/><path d="M250.632,719.76c-0.017,0.011 -0.017,0.01 0,0Zm558.078,337.873c0.055,0.407 0.002,0.776 -0.005,1.593c-0.14,16.031 -4.485,58.956 5.347,72.267c1.014,1.373 6.62,6.756 11.299,10.474c15.932,12.657 27.73,12.938 53.021,14.915c44.309,3.463 101.161,40.246 105.339,92.461c2.917,36.452 -38.043,55.06 -57.937,62.674c-26.329,10.077 -53.096,14.559 -62.146,16.718c-10.892,2.599 -96.573,12.685 -225.474,8.925c-48.814,-1.424 -135.448,-5.592 -201.515,-10.191c-102.224,-7.115 -111.583,-10.091 -250.039,-22.674c-19.471,-1.77 -65.184,-5.882 -136.184,-20.984c-45.795,-9.74 -50.99,-36.293 -41.983,-55.985c5.131,-11.219 14.965,-20.849 25.748,-26.297c19.167,-9.684 22.037,-10.343 36.507,-15.869c-0.426,-0.796 -0.905,-1.7 -1.447,-2.73c-14.581,-27.699 -15.801,-39.476 -15.861,-39.849c-0.199,-1.245 -0.724,-3.024 -0.108,-14.681c2.878,-54.46 26.204,-194.205 37.093,-223.096c24.546,-65.125 30.804,-124.661 64.823,-158.946c30.11,-30.346 72.133,-19.124 91.404,-24.834c2.507,-0.743 3.985,-1.727 4.039,-1.766c0.013,-0.008 0.037,-0.021 0.07,-0.04c0.325,-0.2 0.58,-0.307 0.676,-0.347c1.092,-0.457 1.118,-0.387 2.299,-0.399c32.619,-0.331 91.976,-29.203 110.069,-56.401c17.794,-26.749 21.329,-46.641 21.403,-61.023c0.005,-0.917 1.008,-20.769 6.017,-27.272c0.446,-0.579 0.91,-1.055 1.379,-1.443c0.005,-7.83 -0.025,-29.599 -1.476,-76.259c-2.268,-72.904 -4.715,-118.903 -4.397,-187.122c0.166,-35.71 0.731,-80.369 -1.108,-113.61c-2.502,-45.218 -3.847,-65.589 -32.565,-94.399c-8.565,-8.593 -51.151,-23.172 -61.757,-24.518c-1.018,0.381 -1.884,0.321 -2.088,0.307c-0.051,-0.004 -0.103,-0.008 -0.154,-0.014c-0.301,-0.028 -0.618,-0.086 -0.948,-0.184c-0.324,-0.095 -0.617,-0.217 -0.882,-0.354c-2.186,-1.083 -47.999,-23.99 -55.852,-31.942c-4.205,-4.258 -1.873,-8.757 1.481,-9.911c41.424,-14.255 171.092,-10.327 254.033,-5.479c31.599,1.847 36.384,2.532 43.206,3.533c40.644,5.965 66.137,20.826 67.298,21.636c0.73,0.362 6.774,3.976 7.346,4.318c29.634,17.72 36.264,25.93 52.228,44.907c26.85,31.917 33.209,84.505 37.679,104.863c17.872,81.392 4.379,229.897 12.519,309.526c0.981,9.598 2.019,15.46 2.283,16.958c0.222,0.69 0.147,0.907 0.122,1.956c-0.475,19.955 1.388,51.216 8.076,59.161c0.897,1.065 1.13,0.769 4.821,3.138c5.351,3.434 13.507,9.309 17.25,11.825c0.753,0.097 1.58,0.342 2.481,0.782c5.832,2.851 24.448,18.059 31.167,24.202c54.21,49.565 46.609,104.052 46.579,132.737c-0.121,114.667 -11.043,175.427 -11.177,288.74Zm-728.999,135.267c-1.16,0.584 -15.726,5.792 -23.097,8.978c-6.074,2.625 -17.937,8.392 -21.175,10.399c-16.267,10.083 -28.106,30.915 -15.24,46.013c10.116,11.87 30.682,15.414 37.372,16.809c74.702,15.578 117.913,18.62 146.656,21.264c121.055,11.132 137.229,14.706 248.785,22.205c1.16,0.078 138.163,8.978 221.911,9.828c104.786,1.064 176.039,-6.899 186.997,-9.535c12.534,-3.016 80.694,-13.844 104.285,-44.467c9.355,-12.144 7.965,-23.293 6.819,-30.075c-7.322,-43.317 -56.847,-74.452 -95.442,-77.467c-30.799,-2.406 -45.025,-2.528 -69.613,-27.137c-14.528,-14.54 -9.658,-57.976 -9.273,-79.721c0.027,-1.517 -0.011,-1.552 0.013,-1.676c-0.061,-0.965 0.062,-14.153 0.073,-15.374c0.96,-103.085 10.99,-165.211 11.106,-274.064c0.032,-30.414 7.851,-83.198 -49.851,-131.015c-6.238,-5.169 -16.999,-13.819 -21.442,-16.457c-0.648,-0.003 -1.408,-0.13 -2.211,-0.513c-2.526,-1.205 -16.959,-12.061 -22.474,-14.965c-4.831,-2.544 -12.123,-10.23 -14.041,-46.863c-0.574,-10.961 -0.407,-20.081 -0.351,-22.341c-0.018,-0.121 -0.039,-0.253 -0.064,-0.399c-12.724,-73.992 4.245,-239.616 -14.63,-325.571c-4.488,-20.437 -10.62,-71.17 -35.86,-100.92c-15.976,-18.831 -20.914,-25.951 -56.115,-46.351c-0.408,-0.171 -0.701,-0.416 -1.455,-0.849c-9.178,-5.266 -38.341,-18.638 -78.554,-21.584c-23.246,-1.703 -121.271,-7.831 -197.208,-5.693c-40.218,1.132 -60.555,4.209 -71.237,6.644c8.484,5.422 24.519,14.292 45.513,24.866c0.177,-0.011 0.36,-0.017 0.548,-0.016c0.012,0 3.396,-0.413 19.214,4.505c14.262,4.434 41.779,14.379 50.389,23.006c31.489,31.55 32.962,55.21 35.492,100.935c2.514,45.438 0.537,101.957 1.279,156.63c1.034,76.127 5.693,153.369 5.735,224.446c0,0.295 0.001,1.941 -1.318,3.376c-0.06,0.065 -0.111,0.118 -0.151,0.157c-0.452,0.452 -0.999,0.828 -1.59,1.074c-0.3,0.125 -0.594,0.215 -0.876,0.276c-0.491,1.124 -1.309,3.528 -2.13,8.306c-0.518,3.011 -1.328,9.019 -1.351,12.597c-0.174,26.535 -12.208,49.624 -23.083,65.967c-19.951,29.981 -81.521,59.955 -117.352,60.831c-20.005,10.887 -63.076,-5.13 -92.424,24.448c-31.745,31.994 -38.13,90.607 -62.562,155.424c-11.084,29.405 -36.84,185.845 -36.753,229.569c0.021,10.701 12.561,35.812 19.063,47.062c0.284,0.426 0.595,1.03 0.75,1.793c0.224,0.538 0.151,1.169 0.046,1.752c-0.05,0.329 -0.129,0.631 -0.227,0.906c-0.705,2.058 -2.409,2.804 -2.895,2.991Zm315.913,-611.921c-0.01,-0.004 -0.019,-0.006 -0.025,-0.009c0.012,0.005 0.024,0.009 0.034,0.012c-0.003,-0.001 -0.006,-0.003 -0.009,-0.004Zm-101.161,-509.109l-0.012,-0.168c-0.001,0.002 -0.002,0.004 -0.003,0.006c0.006,0.054 0.011,0.108 0.016,0.162Zm449.171,544.5c0.001,-0 0.001,-0 0.002,-0l-0,-0.002c-0.001,0.001 -0.001,0.001 -0.002,0.002Zm-368.785,163.524c-0.308,0.412 -0.637,0.804 -1.02,1.146c-0.471,0.421 -1.152,0.565 -1.776,0.668c-0.3,0.05 -2.011,0.333 -3.693,-0.912c-1.637,-1.212 -1.901,-2.927 -1.947,-3.225c-0.43,-2.792 1.507,-4.785 1.809,-5.095c4.434,-4.561 14.606,-2.517 24.542,-1.334c2.365,0.282 2.374,0.175 2.577,0.217c0.644,0.134 1.325,0.149 1.931,0.404c0.278,0.117 1.88,0.791 2.664,2.664c0.12,0.286 0.809,1.933 0,3.873c-0.784,1.88 -2.386,2.548 -2.664,2.664c-0.198,0.082 -1.068,0.446 -2.651,0.379c-4.205,-0.178 -16.123,-2.423 -19.772,-1.448Zm306.062,-99.854c0.108,-0.071 0.224,-0.148 0.35,-0.231c3.761,4.729 23.377,22.608 29.194,34.255c12.139,24.304 8.012,49.336 7.946,74.801c-0.001,0.306 -0.005,2.059 -1.472,3.526c-0.452,0.452 -0.999,0.828 -1.589,1.074c-0.286,0.12 -1.939,0.81 -3.88,0c-1.88,-0.784 -2.548,-2.386 -2.664,-2.664c-0.253,-0.606 -0.313,-1.279 -0.395,-1.931c-0.066,-0.525 0.082,-6.497 0.095,-7.062c0.549,-22.249 2.911,-43.429 -6.981,-63.262c-5.093,-10.21 -25.737,-28.961 -28.554,-33.156c-0.756,-1.125 -0.925,-1.963 -0.993,-2.293c-0.434,-2.119 0.685,-3.653 0.874,-3.912c0.377,-0.517 0.859,-0.973 1.405,-1.307c1.785,-1.096 3.478,-0.666 3.774,-0.591c1.248,0.317 1.612,0.707 1.716,0.819c0.813,0.871 0.913,1.36 1.172,1.935Zm0.787,1.182c0.038,0.043 0.078,0.087 0.12,0.132l-0.03,-0.149l-0.091,0.017Zm-115.203,-226.715c0.235,0.307 0.453,0.667 0.63,1.087c0.12,0.285 0.809,1.926 0.001,3.864c-0.784,1.88 -2.386,2.548 -2.664,2.664c-2.507,1.046 -4.678,-0.209 -5.027,-0.411c-4.047,-2.339 -2.9,-7.517 -2.9,-8.171c0.001,-24.108 -0.648,-33.931 -0.718,-67.284c-0.063,-30.22 -0.685,-106.566 2.978,-119.209c0.046,-0.159 0.328,-1.131 0.752,-1.923c1.084,-2.022 2.894,-2.49 3.213,-2.572c0.619,-0.16 1.281,-0.206 1.915,-0.119c2.081,0.287 3.145,1.713 3.33,1.961c1.211,1.623 0.983,3.349 0.943,3.648c-0.08,0.604 -0.314,1.202 -0.475,1.56c0.23,-0.653 -0.626,-0.336 -1.563,-0.614l1.538,0.67c-0.064,0.138 -0.112,0.233 -0.13,0.266c0.058,-0.101 0.102,-0.189 0.133,-0.264l0.002,0.001c-3.15,10.75 -2.757,87.63 -2.626,122.784c0.07,18.885 0.947,58.303 0.669,62.061Zm1.956,-184.846l-0.003,-0.002c0.008,-0.018 0.017,-0.037 0.026,-0.056c-0.006,0.018 -0.014,0.038 -0.022,0.058Zm-5.44,182.903c-0.122,-0.028 -0.283,-0.044 -0.491,-0.046c0.052,0.003 0.236,0.013 0.491,0.046Zm-76.972,661.035c-5.782,8.937 -5.529,16.942 -12.761,28.28c-18.23,28.583 -75.547,71.224 -110.319,65.489c-45.705,-7.537 -82.819,-34.674 -121.217,-60.406c-7.417,-4.971 -15.202,-25.122 -19.952,-35.134c-0.345,-0.727 -3.579,-5.861 -0.45,-12.386c0.647,-1.349 1.444,-2.514 2.333,-3.451c-3.431,-27.984 0.327,-75.949 8.291,-98.384c5.757,-16.217 19.692,-26.457 24.874,-42.283c12.201,-37.262 20.242,-143.126 43.425,-174.288c9.543,-12.828 22.654,-13.736 27.039,-14.027c4.815,-0.32 9.548,-0.075 15.065,-0.064c0.306,0.001 2.06,0.004 3.527,1.471c1.468,1.468 1.469,3.223 1.469,3.529c0,0.306 0.001,2.062 -1.469,3.531c-0.452,0.452 -1,0.828 -1.59,1.074c-1.22,0.509 -1.254,0.398 -2.574,0.393c-12.338,-0.045 -22.746,-1.47 -31.483,7.712c-17.63,18.53 -27.494,94.796 -36.188,140.808c-5.788,30.637 -8.966,37.301 -12.157,43.028c-7.066,12.681 -16.905,21.306 -20.918,33.653c-7.625,23.462 -10.639,69.366 -7.123,94.593c0.42,1.035 0.556,2.278 0.25,3.671c-0.06,0.272 -0.137,0.525 -0.226,0.76c-0.143,0.381 -0.345,0.778 -0.629,1.173c-0.373,0.519 -0.853,0.978 -1.395,1.316c-0.079,0.049 -0.273,0.17 -0.561,0.301c-0.374,0.174 -0.77,0.303 -1.173,0.378c-0.214,0.715 -0.174,1.403 0.073,1.919c4.152,8.691 12.129,28.18 16.942,32.272c0.13,0.11 16.185,10.903 17.593,11.849c29.859,20.071 62.111,40.89 99.845,47.124c29.267,4.835 84.467,-34.938 101.031,-62.233c5.257,-8.663 6.097,-18.247 12.127,-27.248c3.261,-4.868 20.811,-17.219 41.412,-31.988c5.893,-4.225 11.862,-8.529 14.871,-10.953c0.019,-2.628 0.081,-6.619 0.089,-7.136c0.348,-22.283 1.783,-47.167 1.711,-71.757c-0.022,-0.166 -0.021,-1.009 -0.01,-2.068c-0.285,-43.844 -5.603,-86.494 -30.706,-111.511c-2.247,-2.239 -13.913,-3.93 -20.412,-5.671c-6.008,-1.61 -10.35,-3.506 -12.617,-9.541c-5.002,-13.32 5.213,-39.057 -19.457,-57.935c-4.261,-3.26 -34.94,-14.511 -37.656,-15.974c-3.591,-1.935 -3.45,-6.224 -1.111,-8.292c1.424,-1.259 3.065,-1.253 3.352,-1.253c0.253,0.001 1.515,0.005 2.767,0.855c6.169,2.699 32.999,12.326 38.716,16.716c28.902,22.192 18.85,53.019 22.86,62.642c0.469,1.127 0.889,1.612 3.734,2.536c8.302,2.697 21.334,3.325 26.857,8.808c14.268,14.167 22.691,33.145 27.546,54.366c6.264,-76.878 12.189,-163.493 -51.368,-207.956c-1.064,-0.744 -1.154,-0.673 -1.855,-1.769c-0.162,-0.254 -1.098,-1.716 -0.674,-3.707c0.065,-0.304 0.438,-2.055 2.209,-3.19c1.715,-1.099 3.412,-0.737 3.707,-0.674c1.295,0.277 1.261,0.387 2.345,1.146c87.878,61.472 52.214,194.954 51.775,280.876c0.073,13.828 -0.349,27.581 -0.78,40.713c-0.525,15.968 -0.99,28.178 -1.012,42.041c-0,0.005 -0,0.01 -0,0.015c-0,0.083 -0,0.273 -0.03,0.536c-0.078,0.705 -0.282,1.201 -0.341,1.345c-0.021,0.052 -0.059,0.144 -0.124,0.272c-0.217,0.452 -0.528,0.927 -0.976,1.375c-0.051,0.051 -0.103,0.101 -0.155,0.148c-0.14,0.144 -0.295,0.294 -0.467,0.449c-6.948,6.253 -50.575,35.689 -55.901,42.112l-0.002,0.003Zm-66.574,-330.96c-0.122,0.291 -0.249,0.598 -0.383,0.921l0.688,-0.43l-0.305,-0.49Zm74.049,-562.627c-0.306,-0 -2.061,-0.001 -3.528,-1.469c-0.452,-0.452 -0.828,-1 -1.075,-1.59c-0.253,-0.606 -0.31,-1.28 -0.397,-1.931c-0.062,-0.464 1.567,-60.96 -25.158,-101.05c-14.493,-21.741 -30.625,-26.983 -34.434,-28.288c-3.116,-1.067 -23.243,-7.945 -61.009,-9.121c-0.306,-0.01 -2.062,-0.064 -3.484,-1.578c-0.438,-0.466 -0.796,-1.025 -1.024,-1.623c-0.749,-1.966 -0.008,-3.598 0.121,-3.881c0.842,-1.855 2.464,-2.473 2.746,-2.58c1.292,-0.492 1.326,-0.355 2.708,-0.31c27.212,0.879 57.556,5.423 73.192,13.94c41.423,22.563 56.231,83.144 56.342,134.475c0.001,0.306 0.004,2.065 -1.469,3.538c-1.47,1.47 -3.225,1.469 -3.531,1.469Zm137.534,801.857c-0.306,-0.014 -2.06,-0.096 -3.459,-1.632c-0.206,-0.226 -1.357,-1.49 -1.303,-3.586c0.244,-9.419 6.113,-115.318 6.002,-172.974c-0.068,-35.375 -2.132,-42.593 -2.684,-47.847c-2.137,-20.322 3.482,-39.7 -35.385,-73.726c-0.23,-0.201 -1.55,-1.357 -1.691,-3.428c-0.043,-0.638 0.033,-1.297 0.236,-1.904c0.098,-0.295 0.666,-1.994 2.552,-2.924c1.827,-0.901 3.473,-0.351 3.759,-0.255c1.275,0.426 1.223,0.54 2.234,1.428c43.869,38.523 35.453,62.542 38.655,82.921c5.146,32.753 0.789,123.084 -3.688,219.166c-0.014,0.306 -0.096,2.06 -1.632,3.459c-1.536,1.399 -3.29,1.317 -3.596,1.303Zm127.153,-0.895c-0.306,0 -2.062,0.001 -3.531,-1.469c-0.452,-0.452 -0.828,-1 -1.074,-1.59c-0.527,-1.263 -0.397,-1.301 -0.394,-2.667c0.085,-30.794 5.457,-56.323 2.17,-97.094c-0.025,-0.305 -0.166,-2.054 1.177,-3.637c0.414,-0.488 0.928,-0.907 1.496,-1.201c0.276,-0.143 1.867,-0.966 3.868,-0.318c1.938,0.628 2.735,2.169 2.873,2.437c0.302,0.584 0.41,1.251 0.551,1.893c0.095,0.435 0.447,6.147 0.48,6.682c2.308,37.468 -2.576,62.906 -2.617,91.966c-0,0.306 -0.003,2.061 -1.471,3.529c-1.468,1.468 -3.223,1.469 -3.529,1.469Zm-626.238,95.85c-0.306,0 -2.062,0.001 -3.531,-1.469c-0.452,-0.452 -0.828,-1 -1.074,-1.59c-0.253,-0.606 -0.32,-1.279 -0.395,-1.931c-0.067,-0.59 0.067,-8.303 0.08,-9.025c1.061,-60.817 12.354,-124.582 17.826,-186.814c0.027,-0.305 0.181,-2.054 1.771,-3.389c0.49,-0.411 1.067,-0.738 1.677,-0.932c0.296,-0.094 2.003,-0.638 3.867,0.337c1.805,0.944 2.331,2.598 2.423,2.885c0.199,0.626 0.208,1.302 0.225,1.958c0.014,0.526 -1.031,11.146 -1.126,12.115c-6.057,61.561 -16.652,122.779 -16.742,182.858c-0,0.306 -0.003,2.061 -1.471,3.528c-1.468,1.468 -3.223,1.469 -3.529,1.469Zm44.383,-49.503c-0.304,-0.033 -2.05,-0.223 -3.351,-1.843c-0.401,-0.499 -0.715,-1.084 -0.895,-1.697c-0.186,-0.63 -0.169,-1.306 -0.183,-1.963c-0.011,-0.51 0.834,-6.978 0.913,-7.584c6.1,-46.722 22.494,-113.307 35.786,-183.661c8.794,-46.547 14.934,-82.739 43.714,-90.07c5.489,-1.398 10.38,-1.335 12.487,-1.287c0.307,0.007 2.065,0.046 3.503,1.562c0.44,0.464 0.801,1.021 1.032,1.618c0.758,1.962 0.024,3.595 -0.103,3.878c-0.834,1.856 -2.453,2.484 -2.734,2.593c-1.302,0.505 -1.339,0.346 -2.735,0.333c-24.302,-0.226 -32.679,19.73 -41.017,60.82c-4.825,23.774 -4.208,24.536 -17.607,88.277c-10.149,48.282 -19.758,92.676 -23.297,124.602c-0.034,0.304 -0.227,2.048 -1.845,3.348c-1.619,1.3 -3.364,1.11 -3.668,1.077Zm337.276,-232.907c-0.306,0.013 -2.061,0.09 -3.592,-1.314c-0.471,-0.432 -0.871,-0.963 -1.142,-1.542c-0.279,-0.595 -0.366,-1.265 -0.478,-1.912c-0.179,-1.039 -0.538,-24.995 -4.594,-42.808c-4.722,-20.738 -13.571,-31.083 -29.182,-37.681c-1.087,-0.46 -1.136,-0.409 -1.966,-1.247c-0.212,-0.214 -1.434,-1.447 -1.434,-3.484c-0.001,-2.104 1.273,-3.365 1.494,-3.584c1.447,-1.434 3.183,-1.434 3.484,-1.434c1.387,-0 1.372,0.135 2.651,0.68c31.779,13.53 37.475,41.682 39.537,89.114c0.013,0.306 0.09,2.061 -1.314,3.592c-1.404,1.531 -3.158,1.607 -3.464,1.621Zm-17.15,-360.065c-0.306,0 -2.062,0 -3.531,-1.469c-0.452,-0.452 -0.828,-1 -1.074,-1.59c-0.253,-0.606 -0.366,-1.275 -0.395,-1.931c-0.041,-0.948 -0.032,-59.328 -0.031,-64.487c0.012,-72.786 0.587,-119.12 2.122,-165.911c0.01,-0.306 0.068,-2.063 1.586,-3.483c0.467,-0.437 1.027,-0.794 1.625,-1.021c1.967,-0.744 3.597,0.001 3.879,0.13c1.852,0.846 2.467,2.47 2.574,2.752c0.233,0.615 0.306,1.287 0.331,1.944c0.052,1.351 -1.772,40.455 -2.058,129.513c-0.137,42.784 0.01,100.377 -0.028,100.563c-0.131,0.644 -0.142,1.325 -0.395,1.931c-0.116,0.278 -0.784,1.88 -2.664,2.664c-0.927,0.387 -0.937,0.395 -1.941,0.395Zm-325.347,343.898c-0.3,-0.059 -2.024,-0.397 -3.182,-2.122c-0.357,-0.531 -0.62,-1.14 -0.748,-1.767c-0.131,-0.644 -0.069,-1.316 -0.015,-1.971c0.032,-0.396 1.41,-7.08 1.537,-7.695c6.224,-30.193 15.878,-61.942 58.644,-62.78c0.307,-0.006 2.065,-0.04 3.564,1.41c0.46,0.445 0.845,0.986 1.1,1.572c0.842,1.927 0.179,3.591 0.064,3.88c-0.753,1.891 -2.343,2.587 -2.619,2.708c-1.342,0.587 -1.39,0.408 -2.85,0.45c-36.708,1.065 -43.093,29.106 -49.626,62.372c-0.059,0.3 -0.397,2.024 -2.122,3.182c-1.724,1.158 -3.448,0.82 -3.748,0.761Zm451.529,-525.285c-0.306,0 -2.062,0.001 -3.531,-1.469c-0.452,-0.452 -0.828,-1 -1.074,-1.59c-0.253,-0.606 -0.316,-1.279 -0.395,-1.931c-0.067,-0.554 0.085,-8.916 0.099,-9.691c0.504,-27.893 2.514,-62.803 -1.192,-85.174c-0.05,-0.301 -0.336,-2.031 0.865,-3.72c0.371,-0.521 0.847,-0.983 1.388,-1.324c0.263,-0.166 1.777,-1.121 3.826,-0.646c1.984,0.46 2.91,1.928 3.07,2.183c0.704,1.117 0.604,1.168 0.816,2.474c4.179,25.695 1.177,67.002 1.128,95.891c-0.001,0.306 -0.004,2.06 -1.471,3.528c-1.468,1.468 -3.223,1.469 -3.529,1.469Z"/><path d="M816.311,1277.523c-0.044,0.018 -0.076,0.032 -0.092,0.039c0.134,-0.065 0.163,-0.075 0.092,-0.039Zm0,0c0.277,-0.114 1.057,-0.409 1.828,-0.454c0.301,-0.017 2.035,-0.117 3.563,1.224c0.752,0.66 0.758,0.669 1.204,1.566c0.912,1.834 0.33,3.528 0.231,3.818c-0.208,0.605 -0.535,1.183 -0.957,1.663c-0.477,0.543 -1.403,1.596 -8.216,3.767c-30.207,9.626 -73.793,6.967 -78.71,6.72c-0.306,-0.015 -2.062,-0.104 -3.455,-1.65c-0.428,-0.475 -0.775,-1.041 -0.99,-1.643c-0.708,-1.981 0.067,-3.596 0.201,-3.876c0.88,-1.836 2.515,-2.421 2.798,-2.523c0.619,-0.222 1.294,-0.247 1.949,-0.296c0.455,-0.033 44.724,3.158 74.527,-6.056c3.568,-1.103 5.725,-2.106 6.029,-2.26Zm-0.092,0.039c-0.018,0.009 -0.018,0.008 0,0Zm-537.525,-30.332c-26.309,16.592 -54.577,20.761 -97.754,20.759c-33.339,-0.002 -71.872,-4.692 -86.991,-9.599c-16.363,-5.31 -52.484,-21.932 -47.416,-47.105c0.566,-2.813 1.52,-4.942 1.806,-5.595c0.823,-1.878 2.493,-2.518 2.779,-2.628c0.597,-0.229 1.25,-0.35 1.889,-0.334c2.102,0.05 3.329,1.352 3.542,1.578c0.315,0.334 2.244,2.382 0.824,5.683c-1.424,3.311 -5.218,13.239 13.173,26.017c8.103,5.63 21.003,11.825 32.122,14.424c9.585,2.24 42.248,7.922 83.258,7.531c47.714,-0.455 74.228,-6.31 102.927,-30.696c0.026,-0.022 0.066,-0.056 0.119,-0.098c20.38,-22.712 62.024,-27.688 72.626,-28.942c0.304,-0.036 2.05,-0.243 3.683,1.048c0.502,0.397 0.938,0.897 1.251,1.454c1.03,1.834 0.536,3.557 0.45,3.855c-0.561,1.957 -2.074,2.808 -2.337,2.955c-1.197,0.673 -1.251,0.542 -2.614,0.705c-67.836,8.133 -86.714,39.42 -66.007,67.823c12.766,17.512 41.909,34.74 84.826,36.973c0.305,0.016 2.058,0.107 3.45,1.646c1.392,1.54 1.305,3.293 1.29,3.598c-0.015,0.306 -0.103,2.059 -1.644,3.453c-0.474,0.429 -1.04,0.777 -1.642,0.993c-1.241,0.446 -1.269,0.335 -2.584,0.264c-65.647,-3.529 -107.474,-41.732 -101.025,-75.765Zm578.522,-44.171c0.162,-0.26 1.091,-1.75 3.114,-2.22c0.623,-0.145 1.286,-0.174 1.917,-0.071c1.306,0.214 1.279,0.32 2.395,1.03c2.013,1.281 14.33,8.801 10.989,20.088c-3.84,12.974 -25.585,18.809 -26.122,18.973c-28.485,8.742 -62.448,12.127 -116.836,14.404c-70.693,2.96 -138.946,1.097 -201.311,1.395c-33.629,0.16 -72.866,-1.082 -86.032,-14.213c-10.785,-10.757 -6.488,-25.69 17.359,-36.178c9.416,-4.141 17.72,-5.668 19.569,-6.017c0.301,-0.057 2.029,-0.383 3.749,0.799c0.527,0.362 0.996,0.832 1.346,1.367c1.15,1.761 0.773,3.511 0.707,3.815c-0.429,1.989 -1.881,2.94 -2.134,3.105c-1.267,0.829 -1.351,0.641 -2.837,0.938c-18.429,3.679 -34.96,13.938 -33.201,21.181c0.277,1.142 1.458,3.528 4.67,5.637c16.81,11.039 70.863,9.524 85.873,9.523c72.344,-0.001 148.858,1.897 226.855,-3.182c29.888,-1.946 57.61,-5.176 81.423,-12.804c9.436,-3.022 18.622,-8.984 17.348,-13.484c-1.013,-3.575 -7.205,-7.159 -7.251,-7.203c-0.477,-0.452 -1.05,-0.821 -1.431,-1.356c-0.175,-0.246 -1.181,-1.66 -0.852,-3.67c0.162,-0.991 0.16,-1.004 0.692,-1.856Zm-384.102,72.887c0.022,0.305 0.149,2.056 -1.208,3.626c-0.418,0.484 -0.937,0.899 -1.507,1.188c-0.586,0.297 -1.253,0.409 -1.897,0.536c-0.008,0.002 -2.771,0.193 -8.181,0.682c-27.813,2.512 -65.487,6.994 -82.645,-14.944c-9.134,-11.678 -1.638,-28.616 20.985,-40.194c3.061,-1.567 5.612,-2.615 6.236,-2.876c0.283,-0.118 1.905,-0.796 3.833,0.002c0.591,0.245 1.147,0.607 1.601,1.058c1.491,1.484 1.486,3.274 1.485,3.585c-0.006,2.035 -1.23,3.267 -1.442,3.481c-0.892,0.898 -0.958,0.82 -2.122,1.311c-17.35,7.318 -27.417,18.946 -23.504,26.24c0.47,0.877 3.49,5.454 10.536,8.981c18.468,9.243 49.091,4.461 72.474,2.703c0.306,-0.023 2.059,-0.155 3.635,1.207c1.573,1.359 1.7,3.11 1.722,3.415Z"/></g><g><path d="M443.194,1011.666c-15.599,-7.269 -44.743,-5.995 -62.605,-1.188c-61.268,16.49 -73.322,32.294 -94.57,51.732c-16.427,15.028 -38.948,60.144 -33.538,88.083c9.635,49.753 69.828,62.927 136.989,49.276c32.374,-6.58 58.726,-18.771 83.037,-43.479c20.517,-20.853 37.055,-66.622 9.65,-109.272" style="fill:#ffffe8;"/><path d="M479.453,1042.612c0.257,-0.166 1.732,-1.116 3.765,-0.673c0.625,0.136 1.237,0.393 1.763,0.757c1.083,0.748 1.012,0.833 1.717,1.945c28.052,44.227 11.714,92.19 -10.626,114.956c-27.128,27.644 -58.169,41.306 -100.7,47.513c-65.182,9.513 -118.397,-7.618 -127.799,-55.865c-5.853,-30.034 17.731,-76.758 34.856,-92.525c22.397,-20.62 35.205,-36.441 96.864,-53.07c17.091,-4.609 47.861,-6.847 65.999,1.478c0.279,0.128 1.878,0.862 2.595,2.83c0.219,0.601 0.328,1.256 0.302,1.895c-0.086,2.101 -1.409,3.306 -1.638,3.515c-1.503,1.37 -3.239,1.301 -3.54,1.29c-1.527,-0.06 -1.479,-0.287 -2.886,-0.883c-14.442,-6.118 -41.487,-4.985 -58.239,-0.466c-59.561,16.067 -70.955,30.81 -92.483,50.584c-15.334,14.085 -37.253,57.615 -31.907,83.99c10.097,49.808 75.139,57.121 134.664,44.008c27.778,-6.119 53.085,-17.166 76.781,-41.305c19.006,-19.361 34.886,-62.262 9.311,-102.588c-0.688,-1.085 -0.794,-1.056 -1.018,-2.323c-0.053,-0.297 -0.355,-2.006 0.801,-3.681c0.57,-0.825 0.574,-0.837 1.418,-1.38Z" style="fill:#010023;"/><path d="M546.726,909.06c-104.34,-33.892 -162.028,103.979 -53.153,140.863c62.345,21.121 91.411,-105.356 58.148,-139.162" style="fill:#edd6f5;"/><path d="M550.591,905.893c0.354,-0.081 0.745,-0.13 1.171,-0.127c0.64,0.005 1.291,0.132 1.881,0.38c1.076,0.453 1.062,0.497 1.868,1.338c23.326,24.342 18.028,85.772 -4.331,121.207c-14.907,23.624 -35.933,33.856 -59.208,25.968c-91.138,-30.89 -72.31,-130.53 -4.012,-151.904c26.771,-8.378 50.854,-1.496 60.304,1.546c0.238,0.077 1.395,0.449 2.327,1.592Zm-2.738,8.034c-0.347,0.081 -0.603,0.102 -0.703,0.11c-1.306,0.107 -1.304,-0.012 -2.555,-0.411c-79.571,-25.381 -129.339,54.287 -91.814,103.273c2.929,3.824 14.653,18.974 42.392,28.286c9.794,3.288 25.279,4.967 40.834,-12.747c26.2,-29.837 33.483,-96.283 12.141,-118.178c-0.107,-0.109 -0.205,-0.221 -0.297,-0.333Z" style="fill:#010023;"/></g><g><path d="M378.08,1131.568c-0.495,-0.938 -1.854,2.195 -1.941,2.418c-0.804,2.047 -1.294,4.257 -0.31,6.196c3.034,5.975 2.617,17.699 19.151,13.032c12.032,-3.396 15.447,-15.621 12.273,-22.406c-1.35,-2.887 -8.183,-3.938 -11.408,-5.41c-9.761,-4.454 -12.455,-8.791 -10.302,-16.762c1.118,-4.139 15.43,0.781 19.445,0.9c1.133,0.034 5.576,0.044 5.969,-0.956c2.35,-5.979 -6.008,-12.475 -8.945,-17.37c-2.483,-4.137 -2.097,-9.107 -5.183,-12.995c-5.559,-7.005 -15.733,-10.573 -20.797,-17.667c-2.849,-3.991 -4.125,-9.198 -9.036,-12.3c-0.753,-0.476 -3.353,-3.071 -5.285,-2.207c-5.271,2.358 -3.476,8.137 -4.333,11.31c-0.76,2.814 -5.935,4.571 -6.984,7.239c-0.671,1.707 1.186,3.812 2.079,5.242c1.414,2.265 10.387,8.429 8.197,11.304c-0.401,0.526 -1.44,1.617 -2.255,2.037c-1.35,0.696 -13.22,5.824 -14.384,5.293c-3.052,-1.393 -7.738,-2.713 -11.275,-4.327c-0.884,-0.403 -3.486,-1.298 -4.745,-0.734c-2.55,1.141 -2.937,5.185 -3.104,6.761c-0.172,1.622 -0.296,3.254 -0.47,4.896c-0.267,2.519 -0.405,5.036 -0.502,7.539c-0.087,2.255 -6.848,8.515 -4.793,10.488c5.867,5.631 14.284,-1.241 22.022,-0.322c4.009,0.476 8.028,3.339 10.049,5.118c5.24,4.614 14.529,5.812 19.921,10.342c1.093,0.918 6.131,3.263 6.23,4.07" style="fill:#1e8b37;"/><path d="M313.748,1119.396c-4.649,-2.068 -13.498,-3.933 -16.575,-7.638c-2.412,-2.905 -2.353,-7.89 3.524,-10.333c0.82,-0.341 2.451,-1.175 10.989,-2.598c0.029,-0.105 0.06,-0.206 0.094,-0.305c0,-0.005 0.001,-0.01 0.001,-0.016l0.004,0.001c0.523,-1.51 1.61,-2.289 1.825,-2.443c0.281,-0.201 0.563,-0.361 0.84,-0.486c0.903,-0.439 1.835,-0.892 2.793,-1.358c1.411,-7.872 2.927,-14.929 3.881,-16.953c1.415,-3.004 4.54,-4.103 8.088,-2.75c3.657,1.395 8.858,5.255 12.458,7.806c3.265,-1.588 6.498,-3.158 9.604,-4.663c-4.352,-4.373 -9.999,-10.639 -11.18,-14.081c-0.766,-2.232 -0.072,-3.669 0.026,-3.955c0.376,-1.096 1.365,-1.871 1.524,-1.995c0.103,-0.081 0.652,-0.511 1.437,-0.787c1.304,-0.457 2.34,-0.293 5.667,0.13c0.144,0.018 0.292,0.037 0.445,0.057c1.358,-8.129 3.021,-18.912 6.803,-22.732c1.865,-1.883 3.729,-1.93 4.091,-1.939c2.181,-0.055 3.747,1.504 3.994,1.75c2.634,2.623 13.365,18.719 17.124,26.512c3.182,0.218 5.782,0.292 7.318,0.136l0.022,-0.003c1.9,-0.27 3.3,0.749 3.626,1c0.013,0.01 0.026,0.02 0.037,0.029c0.443,0.343 0.896,0.813 1.262,1.453c0.188,0.327 0.355,0.702 0.476,1.128c0.091,0.318 0.145,0.624 0.171,0.915c0.003,0.024 0.005,0.048 0.008,0.072c0.019,0.19 0.038,0.436 0.054,0.776c0.669,3.736 5.025,11.573 10.064,19.743c0.215,0.03 0.368,0.066 0.439,0.083c1.288,0.304 1.192,0.526 2.368,1.137c5.903,3.07 27.172,7.836 30.881,9.79c3.689,1.944 4.155,6.624 0.641,9.035c-3.804,2.61 -12.577,2.861 -18.702,3.903c0.783,1.18 1.301,1.977 1.466,2.283c0.205,0.382 0.801,1.484 0.651,3.034c-0.205,2.119 -1.813,3.94 -3.891,4.406c-0.745,0.167 -1.203,0.549 -13.385,-1.77c-3.857,-0.734 -8.637,-1.703 -12.431,-2.581c-0.044,0.783 -0.089,1.556 -0.133,2.319c6.145,2.472 17.518,6.671 19.681,8.31c3.251,2.464 2.946,6.771 0.347,15.174c-0.979,3.166 -4.456,13.472 -6.951,16.261c-0.883,0.987 -1.846,1.798 -5.347,2.371c0.039,0.032 0.064,0.052 0.069,0.057c-2.843,4.134 -6.195,14.063 -9.808,16.678c-3.273,2.369 -8.223,0.986 -8.922,-4.391c-0.222,-1.708 -0.705,-8.052 -1.619,-11.502c-1.112,-0.038 -2.044,-0.102 -2.614,-0.202c-5.06,-0.884 -5.821,-7.192 -6.116,-9.321c-0.635,-4.574 -0.727,-10.437 -1.203,-13.677c-9.098,-5.45 -21.448,-12.711 -32.215,-19.024c-5.552,2.626 -14.372,7.321 -17.634,7.692c-1.92,0.218 -6.09,-0.476 -6.071,-6.156c0,-0.12 0.002,-0.247 0.006,-0.383Zm1.203,-10.964c-0.439,0.07 -0.878,0.141 -1.311,0.212c0.408,0.144 0.816,0.29 1.219,0.439c0.03,-0.215 0.061,-0.433 0.092,-0.651Zm16.46,-21.113c-0.785,-0.539 -1.567,-1.064 -2.314,-1.541c-0.201,0.907 -0.411,1.906 -0.628,2.975c0.972,-0.474 1.954,-0.952 2.942,-1.434Zm29.417,-14.268c2.782,-1.336 5.324,-2.549 7.525,-3.589c-4.339,-0.479 -8.707,-1.018 -12.532,-1.503c2.371,2.543 3.958,4.113 5.007,5.092Zm23.317,0.523c-2.109,0.779 -4.443,1.63 -7.057,2.836c-6.344,2.928 -20.648,9.85 -33.526,16.113c-0.069,0.034 -0.137,0.068 -0.206,0.1c-6.1,2.967 -11.869,5.78 -16.304,7.943c13.93,8.177 40.977,23.936 54.146,31.988c0.245,-3.554 0.499,-7.581 0.752,-11.853c0.001,-0.186 0.012,-0.371 0.033,-0.554c0.216,-3.669 0.431,-7.509 0.637,-11.38c-0.014,-0.309 0.005,-0.602 0.046,-0.877c0.687,-13.009 1.27,-26.237 1.477,-34.315Zm-14.945,-14.084c-2.34,-3.955 -5.379,-8.703 -7.932,-12.462c-0.861,3.575 -1.605,7.891 -2.165,11.266c3.181,0.396 6.658,0.815 10.096,1.196Zm44.078,40.45c0.221,0.335 0.44,0.665 0.657,0.991c0.457,-0.134 0.929,-0.259 1.412,-0.376c-0.695,-0.203 -1.386,-0.409 -2.069,-0.616Zm-6.66,8.02c-3.886,-5.796 -8.758,-13.147 -12.97,-20.214c-0.242,5.771 -0.523,11.644 -0.816,17.29c3.547,0.882 8.91,2 13.787,2.924Zm-8.473,41.82c1.867,-3.753 4.905,-12.22 5.811,-16.77c-3.182,-1.385 -8.037,-3.265 -12.443,-5c-0.512,8.117 -0.908,13.503 -0.985,13.765c-0.035,0.121 -0.067,0.243 -0.096,0.366c-0.035,0.315 -0.087,0.625 -0.195,0.922c-0.303,0.833 -0.772,1.443 -1.226,1.878c-0.453,0.437 -1.082,0.88 -1.926,1.15c-0.449,0.143 -0.877,0.213 -1.274,0.233c-0.01,0.002 -0.018,0.004 -0.024,0.006c-0.046,0.011 -0.082,0.015 -0.128,-0.001c-1.297,0.026 -2.236,-0.465 -2.441,-0.572c-0.471,-0.246 -0.855,-0.541 -1.167,-0.847c-0.439,-0.302 -1.049,-0.701 -1.811,-1.185c0.169,2.532 0.349,4.969 0.672,6.772c4.73,0.098 13.305,-0.119 17.232,-0.715Zm-0.39,10.955c-0.04,0.035 -0.08,0.07 -0.119,0.107l0.135,-0.027l-0.015,-0.08Zm-70.67,-48.564c-0.818,-0.479 -1.609,-0.942 -2.371,-1.389c-0.132,0.941 -0.254,1.844 -0.363,2.697c0.892,-0.421 1.815,-0.864 2.734,-1.308Zm67.049,-46.335c-0,-0.002 -0,-0.004 -0,-0.005c-0.001,-0.004 -0.002,-0.008 -0.003,-0.01c-0,0.005 -0,0.011 -0,0.016l0.004,-0Z"/></g><g><path d="M706.359,447.467c-0.76,0.082 -1.603,-47.265 20.863,-64.749c32.695,-25.444 52.156,-20.166 83.186,10.135c7.051,6.885 22.463,9.288 28.98,26.462c9.499,25.033 8.175,52.837 1.845,78.159c-4.385,17.542 -28.544,44.373 -49.181,37.258c-12.468,-4.298 -12.239,-9.929 -37.258,-6.707c-12.312,1.586 -38.87,19.786 -45.824,10.664c-18.365,-24.092 -2.611,-62.155 -2.611,-91.223Z" style="fill:#edd5f5;"/><path d="M701.354,448.065c-0.241,-1.348 -0.311,-3.273 -0.267,-6.227c0.053,-3.568 0.626,-45.633 23.06,-63.063c28.458,-22.111 49.023,-23.068 74.904,-2.721c8.194,6.442 14.412,12.954 15.89,14.132c6.87,5.477 22.29,9.378 29.12,27.348c8.958,23.571 9.436,51.477 2.022,81.157c-4.888,19.565 -31.049,48.611 -55.063,40.966c-8.125,-2.587 -11.58,-6.36 -18.511,-7.276c-1.389,-0.184 -6.034,-0.834 -17.058,0.601c-9.52,1.24 -29.869,14.479 -42.159,13.157c-6.003,-0.646 -8.277,-4.172 -10.132,-7.015c-16.877,-25.855 -2.144,-63.337 -1.811,-90.37c0.003,-0.23 0.004,-0.459 0.006,-0.689Zm4.468,-5.57c0.224,0.032 0.449,0.042 0.676,0.047l0.001,-0.028l-0.676,-0.019Zm5.344,3.597c0.049,0.171 0.091,0.351 0.123,0.539c0.095,0.56 0.249,5.974 -1.018,16.372c-3.099,25.436 -11.157,54.258 2.49,72.409c0.006,0.008 0.272,1.231 4.233,0.684c10.085,-1.393 26.935,-11.69 37.143,-13.028c27.038,-3.544 28.425,3.324 39.731,6.999c17.08,5.552 38.57,-18.309 42.516,-33.812c6.199,-24.349 4.731,-43.119 4.722,-43.315c-0.376,-7.806 -1.682,-19.452 -6.39,-31.848c-5.81,-15.298 -19.769,-16.867 -27.785,-24.649c-23.577,-22.888 -39.105,-30.911 -60.336,-20.354c-4.655,2.315 -9.736,5.474 -16.297,10.569c-17.774,13.8 -19.731,50.922 -19.131,59.432Z" style="fill:#010023;"/><g><path d="M777.704,365.684c-0.046,0.365 3.615,-14.008 4.003,-40.53c0.306,-20.916 -2.876,-39.765 -2.876,-49.861" style="fill:#e5e7f2;"/><path d="M772.911,364.281l-0.003,0c1.306,-5.501 5.051,-27.468 3.387,-55.843c-0.816,-13.916 -2.426,-25.028 -2.463,-33.132c-0.001,-0.307 -0.01,-2.066 1.469,-3.544c0.452,-0.452 1,-0.828 1.59,-1.074c1.941,-0.81 3.592,-0.12 3.879,0c1.877,0.784 2.548,2.386 2.664,2.664c0.559,1.334 0.381,1.379 0.407,2.823c0.213,11.782 3.532,28.733 2.756,53.963c-0.712,23.125 -3.854,36.539 -4.221,37.339c-0.348,0.759 -0.304,0.789 -0.84,1.427c-1.25,1.489 -3.407,2.134 -5.27,1.574c-0.37,-0.111 -2.644,-0.795 -3.38,-3.455c-0.307,-1.108 -0.164,-2.083 0.026,-2.742Zm7.75,-0.615c0.543,0.639 1.209,1.414 2.031,2.352l-1.388,-2.403l-0.643,0.051Z" style="fill:#010023;"/><path d="M749.855,224.948c1.005,2.426 -3.476,-10.18 -4.305,-12.669c-1.956,-5.868 -9.661,-24.719 -5.503,-30.264c6.906,-9.208 17.026,-16.793 28.2,-13.068c4.936,1.645 7.369,6.436 11.693,8.598c0.38,0.19 0.358,1.137 1.032,0.688c6.817,-4.545 12.693,-11.849 19.947,-15.476c0.894,-0.447 6.586,1.455 7.91,1.72c2.451,0.49 11.563,1.804 12.725,4.127c3.995,7.991 4.288,19.238 8.254,27.169c1.568,3.137 6.312,3.429 9.629,5.503c3.185,1.99 6.032,5.595 9.285,7.222c1.166,0.583 3.729,0.634 4.471,1.376c1.412,1.412 0.871,7.541 1.032,9.629c0.526,6.843 6.033,19.917 2.407,27.169c-0.441,0.882 -5.202,1.968 -6.19,2.407c-7.063,3.139 -13.231,0.506 -19.259,6.534c-1.939,1.939 -1.106,7.205 -1.376,9.629c-0.571,5.14 -2.17,10.638 -3.783,15.476c-2.751,8.252 0.895,14.1 -10.661,14.1c-1.588,0 -2.902,-0.148 -4.471,-0.344c-2.575,-0.322 -5.087,2.099 -7.91,0.688c-6.361,-3.181 -11.284,-12.043 -14.788,-17.883c-0.642,-1.07 -3.356,-6.878 -4.815,-6.878c-8.877,0 -19.05,2.063 -28.544,2.063c-6.239,0 -7.181,3.256 -11.349,-1.376c-2.885,-3.206 -4.092,-6.989 -6.19,-10.661c-1.147,-2.007 -6.19,-7.917 -6.19,-10.317c0,-5.109 7.748,-12.907 11.005,-16.164c1.362,-1.362 6.196,-8.598 7.91,-8.598" style="fill:#ffaddb;"/><path d="M798.739,230.524c-0.071,4.194 -6.299,10.011 -7.938,14.63c-2.264,6.381 -3.699,9.257 -6.841,15.008c-4.15,7.598 -6.62,10.676 -13.283,15.494c-14.292,10.335 -28.235,1.077 -33.908,-13.575c-1.618,-4.178 -3.45,-9.342 -2.412,-14.402c3.423,-16.686 19.367,-19.424 28.808,-20.396c10.212,-1.051 28.262,-1.795 36.405,4.564c3.285,2.565 6.064,6.34 9.653,8.394c2.488,1.424 3.519,4.962 5.76,6.869c4.919,4.186 8.043,6.767 11.348,7.48c6.339,1.368 9.344,-5.957 16.033,-8.239c2.016,-0.688 5.365,-1.351 7.175,-3.555c2.127,-2.589 1.929,-8.48 2.763,-11.75c0.899,-3.524 3.381,-7.606 3.107,-11.182c-0.656,-8.55 -12.24,-15.599 -17.107,-18.832c-8.736,-5.804 -18.782,10.374 -27.476,18.593c-4.493,4.249 -9.993,5.943 -12.804,12.382" style="fill:#ff48a6;"/><path d="M777.704,276.709c-7.582,1.738 -24.457,7.089 -28.45,6.993c-2.888,-0.07 -4.058,-1.701 -6.069,-4.335c-2.064,-2.704 -14.802,-20.007 -16.193,-24.263c-0.537,-1.642 -0.614,-3.187 1.778,-7.895c3.546,-6.981 11.855,-18.225 15.554,-23.117c-12.849,-35.981 -11.968,-39.04 -11.931,-39.959c0.032,-0.785 0.188,-1.493 0.44,-2.118c0.368,-1.161 1.223,-2.025 6.212,-6.698c1.945,-1.822 13.23,-12.337 16.045,-14.336c1.298,-0.922 2.485,-1.074 2.718,-1.104c0.317,-0.041 1.632,0.08 2.098,0.249c2.077,0.753 5.405,2.638 5.86,2.896c5.516,3.124 9.742,6.297 14.302,8.696c5.913,-4.932 18.173,-15.69 20.937,-17.068c0.3,-0.15 2.114,-1.054 4.181,-0.321c1.305,0.463 1.022,1.086 7.265,3.424c4.524,1.694 9.627,3.341 13.611,6.605c1.426,1.169 1.609,1.238 5.118,13.065c1.488,5.016 3.522,12.087 4.576,15.767c20.962,9.296 22.663,12.968 23.424,14.526c0.66,1.352 0.691,2.06 0.813,6.972c0.13,5.222 0.442,27.749 -0.213,30.791c-0.644,2.991 -3.258,4.259 -5.353,4.094c-4.413,1.18 -15.883,7.281 -19.065,10.379c-0.352,1.688 -1.374,7.158 -4.322,26.103c-1.11,7.13 -1.051,7.143 -1.267,7.827c-0.876,2.763 -3.479,3.323 -3.883,3.41c-0.001,0 -10.854,1.968 -18.162,2.619c-8.126,0.723 -8.839,-0.32 -11.914,-3.549c-4.553,-4.781 -13.818,-15.216 -18.108,-19.652Zm-37.719,-88.605l0.028,-0.015l-0.001,-0.002c-0.009,0.006 -0.018,0.011 -0.027,0.017Zm2.587,-2.348c1.085,5.708 6.223,21.142 11.117,34.834c6.445,0.956 25.498,4.247 36.776,6.101c-4.626,-12.987 -13.606,-37.244 -14.659,-45.909c-5.945,-3.096 -10.974,-7.063 -16.841,-10.064c-4.208,3.624 -12.6,11.369 -16.392,15.038Zm9.448,44.7c-0.729,0.969 -1.785,2.394 -3.348,4.534c-7.804,10.688 -10.601,15.801 -11.598,18.009c2.755,4.746 10.444,15.575 14.111,20.358c7.058,-1.524 23.922,-6.771 27.618,-6.986c0.723,-2.716 1.885,-6.249 3.663,-10.916c3.314,-8.697 6.505,-15.397 8.154,-18.602c-10.827,-1.769 -31.784,-5.391 -38.601,-6.396Zm-17.011,-51.007c-0.001,-0.002 -0.002,-0.003 -0.003,-0.004l-0.115,0.068l0.004,0.006c0.038,-0.024 0.076,-0.047 0.114,-0.07Zm96.243,70.973c1.88,-1.378 4.466,-3.024 8.04,-4.97c0.836,-0.455 6.368,-3.462 10.8,-5.003c0.18,-7.233 0.064,-21.746 -0.193,-28.455c-2.826,-2.368 -10.725,-6.355 -18.154,-9.649c-3.96,4.033 -20.37,20.976 -24.613,29.151c-0.729,1.405 -0.472,1.578 -1.583,2.708c-0.051,0.052 -0.162,0.165 -0.329,0.306c3.833,4.039 15.734,12.369 22.472,16.336c0.944,-0.496 1.788,-0.553 1.992,-0.567c0.584,-0.04 1.11,0.026 1.568,0.144Zm-5.589,-56.155c-1.795,-6.27 -5.262,-18.291 -6.79,-22.804c-1.335,-0.92 -3.093,-1.793 -6.616,-3.119c-3.998,-1.505 -6.192,-2.231 -8.53,-3.405c-4.662,3.66 -13.489,11.356 -17.934,15.01c1.141,7.824 9.792,31.274 14.263,43.887c6.227,-9.646 19.444,-23.267 25.607,-29.57Zm-39.963,-15.096c0,-0.012 0.001,-0.024 0.001,-0.035c-0.001,0.012 -0.003,0.023 -0.004,0.035c0.001,0 0.002,0 0.003,0Zm2.546,94.154c5.175,5.605 12.2,13.469 15.443,16.791c3.958,-0.001 12.092,-1.259 16.924,-2.065c1.733,-11.207 3.345,-21.452 4.41,-27.255c-6.83,-3.66 -19.866,-12.526 -26.014,-18.384c-3.979,7.871 -10.438,23.851 -11.186,29.5c0.018,0.026 0.036,0.052 0.054,0.079c0.255,0.384 0.34,0.859 0.369,1.334Zm-2.988,-3.996l0.023,-0.051l-0.083,-0.036c0.02,0.03 0.04,0.059 0.06,0.088Zm19.636,-33.449c0.015,0.029 0.03,0.059 0.046,0.089l0.008,-0.084l-0.053,-0.005Z" style="fill:#010023;"/></g><ellipse cx="796.057" cy="231.796" rx="9.963" ry="9.954" style="fill:#fffec5;"/><path d="M796.057,217.573c0.069,0.002 6.22,-0.319 10.757,4.913c6.822,7.868 3.087,20.165 -6.865,22.991c-10.38,2.948 -20.192,-6.364 -17.758,-16.891c0.712,-3.08 2.436,-5.803 4.814,-7.764c4.106,-3.387 8.54,-3.237 9.051,-3.249Zm0,8.537c-6.15,0.155 -7.682,7.987 -2.71,10.687c4.504,2.446 9.755,-1.944 8.106,-6.822c-0.33,-0.977 -0.985,-1.982 -1.993,-2.736c-1.569,-1.173 -3.166,-1.123 -3.404,-1.129Z"/></g><g><path d="M104.28,1150.671c-1.49,0.004 -2.772,-6.147 -2.851,-7.223c-0.499,-6.82 18.568,-46.011 33.968,-48.159c3.604,-0.503 10.26,1.556 13.697,2.676c9.32,3.034 16.506,17.199 17.532,26.22c0.356,3.126 0,12.222 0,11.237c0,-1.258 9.315,-12.843 13.423,-16.856c3.182,-3.108 4.659,-7.119 8.218,-9.899c8.438,-6.593 18.613,-10.879 29.311,-12.04c3.789,-0.411 7.902,-2.095 11.779,-1.338c5.654,1.105 9.886,4.735 15.067,6.421c2.612,0.85 5.949,1.377 7.122,4.816c2.598,7.613 4.519,19.673 3.287,28.093c-1.275,8.715 -5.765,11.517 -11.231,16.856c-1.535,1.499 1.269,2.844 1.918,3.478c2.445,2.388 17.547,15.669 16.71,22.207c-0.94,7.345 -5.005,19.575 -11.779,23.545c-4.91,2.877 -12.821,3.605 -18.354,4.281c-3.401,0.415 -6.664,-1.895 -9.862,-2.676c-5.558,-1.357 -19.761,-7.98 -19.997,-9.364c-0.684,-4.011 -3.652,-18.372 -4.657,-17.391c-0.29,0.283 -2.866,7.533 -4.383,8.829c-3.875,3.311 -9.223,4.841 -13.697,7.224c-6.198,3.302 -12.247,7.733 -18.902,9.899c-9.145,2.977 -11.323,6.26 -20.856,7.692c-9.622,1.446 -19.522,9.592 -28.867,7.766c-6.31,-1.233 -19.342,-0.626 -25.061,-3.419c-3.638,-1.777 -10.016,-7.049 -12.327,-10.435c-0.934,-1.368 -0.181,-4.018 0.274,-5.351c2.166,-6.348 7.124,-11.32 13.971,-13.378c2.309,-0.694 4.789,-0.954 7.122,-1.605c1.086,-0.303 4.417,-0.803 3.287,-0.803c-3.117,0 -29.703,3.276 -34.516,3.746c-5.844,0.571 -15.454,-0.614 -20.819,-2.943c-3.698,-1.605 -4.586,-4.729 -6.848,-7.491c-6.424,-7.842 -10.657,-13.817 -3.835,-23.812c6.127,-8.976 37.927,-16.192 42.734,-14.18c4.746,1.987 32.872,16.786 32.872,16.588c0,-2.094 -3.013,-4.37 -3.013,-6.421" style="fill:#fff;"/><path d="M70.782,1190.782c-2.778,0.306 -5.73,0.495 -8.918,0.473c-8.892,-0.063 -19.491,-0.779 -28.885,-8.983c-13.817,-12.066 -13.839,-33.295 5.331,-45.048c14.59,-8.945 38.054,-10.225 54.072,-0.966c1.241,0.718 2.503,1.285 3.777,1.81c-0.005,-0.277 -0.006,-0.558 -0.003,-0.842c0.107,-8.839 4.357,-21.103 8.486,-27.589c21.757,-34.17 57.278,-20.315 66.272,9.94c3.862,-5.078 8.03,-9.488 14.362,-14.62c29.123,-23.607 55.331,-18.863 69.627,-2.697c9.098,10.288 11.287,23.126 7.46,33.657c-1.482,4.078 -5.683,9.414 -8.036,13.241c9.976,6.547 16.889,28.943 13.491,38.904c-7.464,21.879 -33.347,28.596 -55.422,17.817c-4.24,-2.07 -12.191,-7.605 -16.419,-14.303c-6.566,4.415 -16.383,8.496 -22.888,11.642c-19.069,9.223 -54.4,24.507 -86.973,17.996c-1.347,-0.269 -17.036,-2.801 -19.427,-15.289c-0.96,-5.016 0.635,-10.403 4.094,-15.144Zm30.279,-38.858c-3.303,-3.341 -7.239,-3.318 -13.997,-7.189c-16.278,-9.325 -46.261,-4.92 -52.792,11.24c-4.204,10.403 4.076,21.912 16.918,24.408c3.782,0.735 11.075,1.334 18.669,0.439c8.71,-1.026 16.436,-3.327 25.106,-3.405c0.635,-0.026 1.198,0.076 1.673,0.228c0.628,0.197 1.363,0.562 2.04,1.239c0.324,0.322 0.606,0.689 0.827,1.085c0.062,0.111 0.118,0.222 0.169,0.332c0.265,0.559 0.476,1.27 0.473,2.115c-0.001,0.115 -0.002,0.437 -0.082,0.872c-0.046,0.267 -0.1,0.454 -0.124,0.536c-0.568,1.954 -2.085,2.8 -2.348,2.946c-0.652,0.364 -0.981,0.488 -1.349,0.553c-0.316,0.087 -0.55,0.102 -0.86,0.102c-0.151,0.017 -0.321,0.039 -0.517,0.068c-12.524,1.852 -21.627,12.994 -17.394,18.745c1.121,1.522 4.283,5.015 18.207,6.233c32.378,2.832 66.167,-15.17 77.088,-20.161c2.312,-1.057 17.502,-7.739 20.608,-11.456c0.451,-2.163 1.911,-3.124 2.179,-3.3c0.534,-0.351 1.146,-0.609 1.774,-0.73c0.56,-0.109 1.077,-0.113 1.537,-0.059c0.444,0.048 0.932,0.163 1.444,0.386c1.868,0.813 2.512,2.425 2.623,2.705c0.443,1.109 0.457,2.212 0.255,3.218c0.004,0.195 0.011,0.343 0.024,0.412c0.711,3.796 7.708,10.799 14.789,13.979c16.028,7.197 34.792,3.243 40.279,-12.425c2.023,-5.776 -3.214,-22.865 -9.154,-27.317c-0.652,-0.489 -1.103,-0.61 -1.282,-0.635c-0.024,0 -0.049,0 -0.075,-0c-0.291,-0.003 -0.641,-0.032 -1.024,-0.115c-0.285,-0.061 -0.582,-0.151 -0.885,-0.278c-1.673,-0.698 -2.386,-2.043 -2.605,-2.527c-0.067,-0.144 -0.125,-0.286 -0.176,-0.427c-0.195,-0.478 -0.247,-0.666 -0.265,-1.074c-0.143,-1.029 0.051,-1.821 0.099,-2.021c0.01,-0.041 0.02,-0.081 0.031,-0.121c0.104,-0.6 0.279,-1.279 0.554,-2.039c1.99,-5.49 8.34,-12.412 9.645,-16.51c4.738,-14.872 -7.93,-30.683 -23.783,-32.973c-18.256,-2.637 -35.752,11.134 -44.474,19.683c-4.291,4.206 -8.098,9.786 -9.303,11.529c-0.81,1.596 -1.599,4.807 -2.532,6.508c-2.308,4.21 -7.593,3.758 -9.419,0.012c-0.066,-0.136 -0.262,-0.538 -0.413,-1.11c-0.339,-0.952 -0.177,-1.172 -0.211,-2.504c-0.617,-24.326 -22.444,-42.708 -40.807,-28.494c-4.813,3.726 -9.01,9.521 -10.98,13.785c-2.366,5.122 -6.335,16.067 -4.658,22.67c0.576,2.269 1.441,3.543 1.84,4.056c0.167,0.172 0.333,0.349 0.5,0.532c1.378,1.511 1.28,3.304 1.264,3.61c-0.032,0.591 -0.169,1.188 -0.407,1.732c-0.001,0.006 -0.002,0.009 -0.002,0.01c-0.002,0.002 -0.003,0.005 -0.005,0.007c-0.017,0.038 -0.034,0.075 -0.052,0.112c-0.267,0.56 -0.602,1.006 -0.949,1.359c-0.042,0.046 -0.085,0.09 -0.13,0.133c-0.209,0.2 -1.372,1.312 -3.264,1.371c-0.589,0.021 -1.305,-0.059 -2.067,-0.384c-0.035,-0.009 -0.07,-0.019 -0.106,-0.028c-0.464,-0.118 -1.246,-0.685 -2.125,-1.669Zm146.741,5.165c-0.014,-0 -0.025,-0.001 -0.032,-0.002c0.014,0.001 0.024,0.001 0.032,0.002Zm0,0c0.02,0 0.019,0.001 0,0Z" style="fill:#010023;"/></g><g><path d="M654.4,1090.869c-1.238,-0.166 -0.353,-3.533 -1.287,-8.204c-2.443,-12.215 -26.813,-32.199 -38.674,-36.944c-38.17,-15.268 -56.057,34.306 -62.702,48.313c-0.863,1.819 0.802,0.802 0,0c-3.729,-3.729 -8.111,-7.268 -12.317,-10.422c-7.782,-5.837 -28.541,-4.027 -36.003,0.947c-18.919,12.613 -21.164,39.691 -8.725,56.276c8.698,11.598 20.28,12.14 33.694,12.14c2.527,0 -2.917,4.723 -5.772,4.573c-26.873,-1.417 -69.271,27.549 -37.831,45.601c11.099,6.373 32.106,-1.568 40.426,-4.896c5.769,-2.307 46.425,-24.483 46.425,-26.529c0,-0.404 -5.338,4.304 -5.685,4.737c-2.638,3.297 -5.692,7.595 -7.58,11.369c-7.268,14.535 -9.604,35.985 10.422,38.845c32.371,4.624 51.356,-13.174 76.93,-33.065c6.368,-4.953 18.73,-14.606 23.132,-21.208c2.508,-3.762 7,-11.833 7,-7.311c0,23.619 19.488,44.066 40.488,46.691c21.207,2.651 33.524,-1.891 48.6,-21.274c6.73,-8.653 17.859,-10.919 21.763,-20.68c1.684,-4.211 2.842,-7.838 2.842,-12.317c0,-0.212 -0.204,-6.225 -0.947,-4.737c-2.084,4.168 -5.899,26.852 2.286,42.463c5.055,9.643 21.663,15.103 25.19,16.279c9.915,3.305 22.41,0.066 32.213,-1.895c12.185,-2.437 36.221,-18.146 38.845,-31.266c0.692,-3.459 -2.371,-15.631 0,-18.002c0.192,-0.192 9.893,1.317 11.369,0.947c8.918,-2.23 16.974,-29.049 18.949,-36.95c5.53,-22.118 -31.248,-30.318 -46.425,-30.318l-11.369,0c0,0 12.371,-7.77 14.212,-14.212c2.883,-10.092 0.806,-35.519 -9.474,-41.688c-20.391,-12.234 -28.662,0.791 -44.53,11.369c-2.052,1.368 -5.685,4.737 -5.685,4.737c0,0 -6.917,-3.411 -8.527,-6.632c-7.838,-15.676 -35.604,-29.658 -53.057,-27.476c-34.351,4.294 -58.556,14.216 -80.533,41.688c-1.65,2.062 -27.756,34.095 -17.662,29.048Z" style="fill:#fff;"/><path d="M546.262,1192.287c-3.411,2.03 -7.167,4.05 -11.431,6.11c-23.809,11.503 -41.404,12.928 -51.806,10.549c-10.899,-2.493 -15.344,-13.161 -8.61,-28.849c7.019,-16.352 22.553,-22.989 33.268,-26.553c-22.951,-11.448 -36.12,-38.235 -25.29,-58.514c0.127,-0.238 4.521,-8.515 13.25,-15.262c12.274,-9.487 26.271,-10.948 37.828,-9.269c4.499,0.653 11.818,3.696 16.887,7.983c1.151,-4.43 3.181,-8.793 6.122,-12.33c9.411,-11.319 23.229,-21.281 49.105,-26.223c25.651,-4.899 41.053,12.521 47.224,35.893c14.75,-34.744 46.69,-51.706 85.512,-61.322c22.926,-5.679 63.712,7.714 73.327,30.652c1.228,-0.979 2.654,-2.074 4.312,-3.303c3.842,-2.848 9.298,-6.643 12.046,-8.031c20.739,-10.475 48.938,-1.92 56.609,21.171c2.461,7.408 -2.034,22.403 -8.138,33.054c3.186,0.227 3.457,-0 6.429,0.386c4.857,0.631 16.197,2.86 29.563,16.215c19.892,19.877 9.589,56.35 -18.05,60.164c-3.824,46.506 -64.45,67.627 -100.562,40.542c-6.911,-5.184 -11.803,-14.727 -13.946,-24.708c-14.609,25.556 -39.763,46.13 -71.269,36.67c-18.758,-5.632 -31.534,-19.743 -36.022,-29.017c-1.585,-3.275 -2.85,-7.054 -3.718,-10.568c-1.967,2.618 -4.417,5.574 -7.471,8.896c-18.862,20.516 -53.354,42.653 -82.661,43.172c-1.441,0.026 -10.731,0.314 -19.931,-3.502c-13.416,-5.566 -16.084,-20.273 -12.578,-34.003Zm-20.667,-34.103c-11.977,4.494 -25.261,6.534 -35.146,16.004c-7.47,7.156 -9.583,16.754 -9.176,20.574c0.355,3.33 1.844,4.466 7.801,4.999c19.488,1.746 46.756,-11.627 60.182,-21.367c2.606,-1.891 5.094,-3.872 7.11,-5.54c2.604,-2.831 4.718,-4.112 5.404,-4.541c0.691,-0.432 1.384,-0.626 1.987,-0.698c0.71,-0.09 1.726,-0.067 2.807,0.462c0.902,0.441 0.914,0.443 1.578,1.198c0.165,0.188 0.967,1.101 1.184,2.557c0.114,0.746 0.045,1.409 -0.095,1.961c-0.082,0.332 -0.198,0.657 -0.347,0.961c-0.405,0.829 -0.575,1.047 -0.981,1.401c-0.193,0.205 -0.361,0.34 -0.542,0.463c-0.046,0.039 -0.093,0.081 -0.143,0.125c-1.319,1.156 -2.627,2.28 -3.942,3.38c-8.122,9.381 -13.324,30.496 -1.58,36.479c1.696,0.864 6.161,2.497 11.619,2.995c2.511,0.229 21.41,2.658 51.522,-15.995c16.736,-10.367 28.917,-22.2 36.509,-32.478c5.582,-7.556 5.585,-10.484 5.586,-10.812c0.004,-0.017 0.007,-0.034 0.01,-0.051c0.007,-0.705 0.162,-1.624 0.735,-2.562c0.144,-0.236 0.916,-1.499 2.566,-2.083c0.603,-0.247 0.753,-0.273 1.383,-0.288c2.403,-0.175 3.941,1.4 4.208,1.673c3.09,3.162 1.536,9.111 1.749,12.521c0.075,1.193 1.376,10.986 5.876,17.61c10.8,15.895 34.315,29.024 57.016,19c12.678,-5.598 23.273,-17.381 30.859,-30.638c1.646,-2.876 3.65,-9.569 5.631,-14.749c1.892,-4.948 3.278,-7.259 4.401,-8.688c0.043,-0.089 0.089,-0.179 0.137,-0.268c1.244,-2.294 4.279,-3.04 6.207,-2.259c0.248,0.101 1.897,0.768 2.597,2.111c0.324,0.622 0.368,0.602 0.556,1.28c0.206,0.747 0.183,1.403 0.178,1.526c-0.003,0.081 -0.023,0.249 -0.051,0.441c-0.011,0.16 -0.034,0.299 -0.068,0.438c-0.041,0.251 -0.082,0.467 -0.098,0.512c-0.066,0.185 -0.145,0.364 -0.23,0.533c-0.025,0.08 -0.051,0.166 -0.078,0.258c-0.859,2.905 -0.871,3.725 -1.573,8.737c-1.28,9.143 2.232,25.601 11.281,32.253c30.732,22.592 83.972,3.871 84.383,-37.007c0.012,-1.179 -0.07,-1.269 0.329,-2.248c0.029,-0.077 0.053,-0.135 0.068,-0.171c0.285,-0.682 0.678,-1.205 1.076,-1.6c0.394,-0.396 0.914,-0.785 1.592,-1.069c0.648,-0.271 0.847,-0.354 1.253,-0.381c0.367,-0.041 0.726,-0.003 1.467,-0.025c20.651,-0.619 28.791,-26.249 16.949,-41.224c-2.068,-2.616 -11.049,-11.811 -21.618,-14.721c-4.686,-1.29 -6.469,-0.854 -10.234,-1.173c-2.861,-0.242 -2.896,-0.195 -5.308,0.676c-0.964,0.348 -2.564,0.788 -4.452,1.315c-1.352,0.685 -2.902,1.18 -4.6,1.22c-0.536,0.033 -1.2,-0.008 -1.852,-0.265c-0.052,-0.021 -0.231,-0.091 -0.46,-0.198c-0.084,-0.038 -0.165,-0.078 -0.242,-0.118c-0.232,-0.118 -0.484,-0.262 -0.697,-0.423c-0.371,-0.279 -0.697,-0.612 -0.972,-0.983c-0.251,-0.33 -0.462,-0.691 -0.62,-1.07c-0.192,-0.46 -0.299,-0.903 -0.35,-1.316c-0.079,-0.576 -0.061,-1.164 0.067,-1.731c0.119,-0.527 0.327,-0.995 0.567,-1.398c0.177,-0.305 0.375,-0.57 0.579,-0.8c0.484,-0.563 0.934,-0.879 0.978,-0.907c0.701,-0.443 2.118,-0.875 3.752,-1.328c3.977,-2.795 10.574,-14.499 12.884,-25.875c0.584,-2.875 0.722,-5.562 0.358,-6.674c-5.482,-16.771 -26.809,-23.246 -42.439,-15.467c-3.437,1.711 -15.797,10.562 -19.211,14.173c-0.028,0.07 -0.058,0.146 -0.092,0.228c-0.093,0.346 -0.284,0.669 -0.504,0.968c-0.398,0.596 -1.09,1.359 -2.215,1.828c-0.059,0.025 -0.227,0.094 -0.47,0.169c-0.174,0.054 -0.357,0.1 -0.551,0.137c-0.275,0.053 -0.588,0.091 -0.921,0.089c-1.824,0.008 -3.003,-0.994 -3.219,-1.177c-1.038,-0.881 -1.507,-1.899 -1.701,-2.795c-0.054,-0.213 -0.079,-0.394 -0.091,-0.572c-0.043,-0.412 -0.033,-0.78 -0.008,-1.073c-0.005,-0.197 -0.015,-0.423 -0.038,-0.69c-1.688,-19.63 -41.452,-34.816 -62.689,-29.801c-6.753,1.595 -13.761,3.84 -14.944,4.219c-41.025,13.145 -63.656,35.252 -70.184,72.874c-0.02,0.113 -0.074,0.429 -0.225,0.842c-0.172,0.477 -0.443,1.004 -0.87,1.512c-0.093,0.111 -0.193,0.221 -0.302,0.329c-0.452,0.452 -0.999,0.828 -1.59,1.075c-0.212,0.088 -0.42,0.159 -0.623,0.214c-0.061,0.017 -0.122,0.032 -0.183,0.046c-0.918,0.212 -2.205,0.103 -3.074,-0.261c-0.37,-0.154 -0.693,-0.341 -0.974,-0.542c-1.063,-0.755 -1.561,-1.735 -1.787,-2.358c-0.233,-0.583 -0.292,-0.856 -0.304,-1.245c-0.06,-0.383 -0.05,-0.621 0.002,-0.945c-0,-0.03 -0,-0.06 -0,-0.092c-0.132,-19.577 -7.404,-49.993 -31.087,-50.697c-2.142,-0.064 -5.201,-0.1 -14.226,2.159c-14.282,3.574 -26.55,9.397 -36.428,21.263c-3.045,3.658 -4.888,9.256 -4.953,14.387c-0.005,0.374 0.039,2.686 -0.504,9.524c-0.013,0.159 -0.09,1.139 -0.455,1.94c-0.164,0.361 -1.182,2.597 -4.02,2.9c-2.838,0.303 -4.305,-1.668 -4.542,-1.986c-0.82,-1.101 -1.053,-2.7 -3.251,-9.543c-0.271,-0.843 -0.267,-1.823 -2.859,-3.897c-2.659,-2.128 -7.832,-4.968 -11.944,-5.523c-18.436,-2.489 -31.484,5.746 -39.427,17.731c-9.983,15.063 1.406,38.461 22.004,47.495c0.852,0.374 6.155,2.732 9.097,2.775c0.687,-0.274 1.372,-0.558 2.067,-0.862c0.209,-0.091 1.156,-0.504 2.426,-0.397c0.494,0.039 1.041,0.157 1.61,0.41c0.086,0.038 0.297,0.132 0.57,0.3c0.301,0.181 0.583,0.394 0.835,0.633c0.069,0.066 0.24,0.228 0.445,0.483c0.307,0.375 0.593,0.838 0.807,1.403c0.405,1.073 0.358,2.045 0.217,2.738c-0.135,0.668 -0.45,1.54 -1.179,2.347c-0.147,0.169 -0.302,0.327 -0.463,0.476c-0.143,0.138 -0.263,0.242 -0.379,0.327c-1.363,1.095 -2.936,1.564 -3.255,1.659c-0.453,0.135 -0.928,0.245 -1.428,0.325Zm260.553,-8.826c0,-0 0,-0.001 0,-0.001l-0.071,-0.004c0.002,0.001 0.003,0.002 0.005,0.003c0.022,0 0.044,0.001 0.066,0.002Z" style="fill:#010023;"/></g><g><path d="M350.983,1018.177c0.173,0.338 0.322,0.724 0.421,1.161c0.069,0.305 0.471,2.077 -0.675,3.847c-2.044,3.16 -7.299,3.266 -9.012,-1.191c-1.089,-2.834 -3.881,-14.862 -3.421,-42.641c0.419,-25.311 6.143,-42.531 7.65,-56.364c0.419,-3.843 0.185,-3.857 0.252,-4.186c0.132,-0.644 0.145,-1.325 0.398,-1.931c0.116,-0.278 0.787,-1.88 2.664,-2.664c0.286,-0.12 1.938,-0.81 3.879,-0c1.88,0.784 2.548,2.386 2.664,2.664c0.517,1.24 0.407,1.275 0.388,2.617c-0.173,12.76 -7.386,33.909 -7.869,58.54c-0.018,0.922 -0.65,23.531 1.977,37.229c0.288,1.5 0.553,2.47 0.684,2.918Zm-9.048,1.175l-0.253,-0.061l-0.075,0.312c0.113,-0.08 0.222,-0.163 0.328,-0.251Z" style="fill:#010023;"/><path d="M362.124,820.951c-2.205,1.67 9.451,-6.252 11.767,-7.76c5.46,-3.555 22.624,-16.425 29.383,-13.671c11.225,4.573 21.651,12.848 20.83,25.214c-0.363,5.463 -4.598,9.215 -5.65,14.193c-0.092,0.437 -1.064,0.668 -0.426,1.233c6.448,5.726 15.457,9.757 21.086,16.172c0.693,0.79 0.271,7.09 0.353,8.508c0.153,2.625 0.02,11.447 -0.818,14.05c-3.429,10.649 -7.846,9.938 -14.874,16.088c-2.78,2.433 -12.436,6.896 -13.666,10.825c-1.181,3.772 -4.097,7.631 -4.889,11.376c-0.284,1.342 0.347,3.964 -0.212,4.917c-1.063,1.814 -7.454,2.898 -9.541,3.618c-6.835,2.361 -18.696,11.452 -27.052,9.696c-1.017,-0.214 -3.391,-4.769 -4.102,-5.658c-5.08,-6.351 -4.039,-13.33 -11.789,-17.857c-2.493,-1.456 -7.639,0.796 -10.182,1.168c-5.392,0.79 -11.421,0.628 -16.782,0.277c-9.143,-0.599 -14.134,4.671 -17.211,-7.089c-0.423,-1.616 -0.622,-2.993 -0.84,-4.642c-0.358,-2.706 -3.494,-4.617 -2.807,-7.866c1.548,-7.322 9.271,-14.695 14.291,-19.819c0.92,-0.939 6.117,-5.25 5.729,-6.734c-2.364,-9.034 -7.176,-18.837 -9.704,-28.499c-1.661,-6.349 -5.231,-6.44 -1.62,-11.917c2.499,-3.791 6.034,-6.028 9.219,-9.143c1.74,-1.702 6.421,-8.411 8.868,-9.051c5.207,-1.363 15.219,4.443 19.406,6.889c1.752,1.023 10.413,4.012 10.87,5.757" style="fill:#ffa8bc;"/><path d="M357.871,871.632c-2.191,-0.168 -3.602,-1.692 -5.799,-1.949c-14.961,-1.749 -24.479,-1.629 -34.486,-14.732c-8.367,-10.955 -11.591,-24 -1.082,-33.828c3.102,-2.901 7.715,-2.843 11.447,-4.588c4.11,-1.922 9.566,-3.798 14.309,-3.059c5.765,0.899 16.045,3.987 19.318,8.068c8.456,10.545 2.759,22.316 2.759,35.138c0,4.984 0.793,11.135 -1.635,15.677c-5.397,10.095 -16.01,23.562 -14.182,35.529c1.287,8.428 11.088,24.179 21.541,25.266c5.938,0.617 11.657,-1.645 17.171,-2.676c3.024,-0.566 6.196,-0.167 8.994,-1.912c2.421,-1.51 2.719,-4.481 4.906,-6.118c1.915,-1.433 2.974,-3.268 4.088,-5.353c7.914,-14.804 5.039,-14.609 -8.134,-25.17c-3.566,-2.859 -11.221,-6.781 -15.169,-9.242c-5.825,-3.632 -12.383,-5.627 -17.988,-9.559c-0.734,-0.515 -5.724,-1.544 -5.724,-0.765" style="fill:#ff6084;"/><path d="M343.985,917.808c-1.742,-0.037 -7.525,-0.041 -28.223,0.608c-7.683,0.241 -7.685,0.3 -8.386,0.214c-2.91,-0.359 -3.924,-2.85 -4.081,-3.236c-0,-0 -4.033,-10.898 -6.041,-18.365c-2.18,-8.106 -1.261,-9.067 1.207,-12.446c4.03,-5.517 13.762,-17.799 17.675,-23.221c-2.944,-6.97 -11.7,-23.821 -12.498,-28.035c-0.574,-3.033 0.896,-4.536 2.976,-6.821c2.897,-3.182 18.591,-19.643 22.667,-21.854c1.391,-0.754 2.641,-1.019 5.93,-0.287c8.043,1.79 23.204,9.168 29.54,12.343c35.05,-20.246 38.651,-20.11 39.546,-20.253c0.838,-0.133 1.611,-0.118 2.31,0.016c1.237,0.137 2.215,0.793 8.077,5.112c2.523,1.86 15.346,11.372 17.91,13.87c1.604,1.562 1.721,3.032 1.75,3.658c0.03,0.643 -0.024,1.143 -0.57,3.143c-2.054,7.526 -5.81,14.454 -7.973,21.207c6.186,5.149 19.822,15.907 21.758,18.5c0.203,0.272 1.431,1.917 1.059,4.103c-0.239,1.404 -0.939,1.218 -2.261,8.226c-0.949,5.028 -1.739,10.618 -4.4,15.346c-0.898,1.595 -1.022,1.828 -11.313,7.075c-5.346,2.726 -13.258,6.661 -17.106,8.57c-5.897,23.589 -9.394,26.029 -10.666,27.032c-1.32,1.041 -2.325,1.226 -6.034,2.028c-6.31,1.364 -30.106,6.122 -33.338,6.038c-2.309,-0.06 -3.432,-1.356 -3.829,-1.76c-0.26,-0.265 -1.059,-1.375 -1.201,-2.842c-2.029,-4.387 -10.619,-15.281 -14.486,-17.969Zm-22.899,-46.354c-5.261,6.926 -12.114,15.619 -14.955,19.602c0.637,3.866 3.604,12.583 5.337,17.496c12.373,-0.4 23.585,-0.733 29.795,-0.75c2.538,-7.8 9.718,-23.695 14.766,-31.147c-9.073,-2.671 -27.639,-6.371 -33.474,-5.958c-0.048,0.051 -0.098,0.101 -0.149,0.15c-0.352,0.332 -0.833,0.498 -1.319,0.607Zm80.881,-66.845l0.02,0.025l0.001,-0.001c-0.007,-0.008 -0.015,-0.016 -0.022,-0.024Zm2.768,2.108c-2.007,0.766 -7.161,3.068 -20.328,10.351c-5.989,3.313 -11.591,6.528 -14.552,8.239c0.179,6.768 0.197,27.9 0.313,40.062c12.739,-7.332 37.239,-21.877 45.954,-24.504c2.138,-6.824 5.48,-12.986 7.587,-19.852c-4.567,-3.683 -14.454,-11.085 -18.972,-14.296Zm-44.884,18.716c-1.593,-0.795 -3.843,-1.901 -6.691,-3.252c-7.64,-3.624 -12.173,-5.384 -13.252,-5.803c-3.431,-1.332 -5.506,-1.938 -6.721,-2.218c-4.531,3.806 -14.891,14.383 -19.088,18.989c2.787,6.877 11.63,23.957 12.417,27.57c0.005,0.025 0.011,0.049 0.016,0.074c2.973,0.212 6.923,0.728 12.244,1.685c10.151,1.826 17.991,3.94 21.411,4.981c-0.122,-11.5 -0.141,-34.737 -0.335,-42.025Zm49.684,-27.343l-0.026,-0.03l-0.001,0.001c0.009,0.01 0.018,0.019 0.027,0.029Zm-58.67,117.462c0.036,-0.031 0.066,-0.059 0.091,-0.086c-0.035,0.032 -0.067,0.06 -0.094,0.083l0.002,0.003Zm1.864,-3.43c1.787,1.681 3.999,4.06 6.721,7.44c0.444,0.551 4.813,5.957 7.262,10.367c7.62,-1.22 23.195,-4.26 30.146,-5.841c2.118,-3.527 4.976,-13.193 6.974,-21.189c-4.724,-3.186 -25.732,-17.164 -35.19,-20.016c-1.563,-0.471 -1.691,-0.169 -3.047,-1.078c-0.088,-0.059 -0.326,-0.219 -0.614,-0.487c-3.527,4.536 -10.365,19.083 -13.365,27.135c0.717,0.874 0.938,1.75 0.99,1.956c0.158,0.627 0.177,1.207 0.124,1.714Zm58.023,-16.619c6.301,-3.126 18.778,-9.348 22.955,-11.685c0.827,-1.761 1.45,-3.933 2.279,-8.412c0.819,-4.427 1.23,-6.705 1.916,-8.948c-4.699,-4.163 -14.606,-12.028 -19.206,-15.916c-7.436,2.372 -31.718,16.71 -44.158,23.836c11.315,4.494 28.614,16.028 36.199,21.117c0.005,0.003 0.01,0.005 0.015,0.008Zm8.636,-45.159c0.017,-0.002 0.033,-0.005 0.048,-0.007c-0.017,0.001 -0.033,0.002 -0.049,0.003c0,0.001 0,0.003 0.001,0.004Zm-94.807,17.467l0.054,0.013l0.021,-0.087c-0.026,0.024 -0.051,0.049 -0.076,0.074Zm38.942,13.596c-0.026,0.02 -0.052,0.04 -0.078,0.061l0.083,-0.008l-0.005,-0.053Z" style="fill:#010023;"/><ellipse cx="365.615" cy="873.217" rx="9.963" ry="9.954" style="fill:#fffec5;"/><path d="M365.615,858.994c0.069,0.002 6.22,-0.319 10.757,4.913c6.822,7.868 3.087,20.165 -6.865,22.991c-10.38,2.948 -20.192,-6.364 -17.758,-16.891c0.712,-3.08 2.436,-5.803 4.814,-7.764c4.106,-3.387 8.54,-3.237 9.051,-3.249Zm-0,8.537c-6.15,0.155 -7.682,7.987 -2.71,10.687c4.504,2.446 9.755,-1.944 8.106,-6.822c-0.33,-0.977 -0.985,-1.982 -1.993,-2.736c-1.569,-1.173 -3.166,-1.123 -3.404,-1.129Z" style="fill:#010023;"/></g><g><path d="M127.116,641.861c-81.014,6.206 -12.402,-173.499 10.528,-205.844c10.251,-14.461 24.972,-28.405 40.603,-37.309c11.151,-6.352 30.726,-12.884 49.482,-16.718c73.896,-15.104 248.933,225.128 71.66,297.747c-107.583,44.071 -98.256,-37.877 -172.272,-37.877Z" style="fill:#ffffe8;"/><path d="M127.308,646.861l-0.007,0c-11.013,0.808 -19.563,-1.546 -26.095,-6.128c-9.666,-6.78 -15.065,-18.704 -16.843,-33.903c-6.296,-53.81 32.826,-150.605 49.202,-173.704c10.654,-15.028 25.963,-29.508 42.207,-38.761c11.487,-6.544 31.635,-13.323 50.955,-17.272c12.813,-2.619 28.508,1.547 44.92,11.218c23.245,13.698 48.223,38.408 68.423,68.245c35.601,52.583 56.023,120.925 27.833,172.54c-12.195,22.328 -33.429,41.674 -66.62,55.27c-33.638,13.78 -56.347,15.508 -73.688,11.498c-17.457,-4.036 -29.623,-13.949 -42.019,-24.111c-14.928,-12.237 -30.272,-24.835 -58.269,-24.892Zm-0.192,-10c31.094,0 48.256,13.596 64.801,27.159c11.233,9.209 22.113,18.443 37.932,22.101c15.935,3.685 36.732,1.654 67.644,-11.009c30.628,-12.547 50.381,-30.206 61.635,-50.81c26.522,-48.561 6.157,-112.668 -27.338,-162.14c-19.282,-28.48 -43.031,-52.161 -65.22,-65.236c-13.877,-8.178 -27.006,-12.251 -37.841,-10.036c-18.191,3.718 -37.193,10.003 -48.008,16.163c-15.017,8.554 -29.15,21.962 -38.999,35.856c-13.521,19.073 -43.134,90.308 -47.52,142.907c-2.666,31.978 3.488,57.285 32.531,55.06c0.127,-0.01 0.254,-0.015 0.382,-0.015Z" style="fill:#010023;"/><path d="M275.886,229.959c0.736,-0.591 -13.914,6.807 -15.499,7.619c-6.37,3.262 -17.088,17.222 -20.458,24.126c-11.128,22.793 -45.999,81.65 -32.857,108.568c5.244,10.742 30.438,16.941 42.777,19.047c43.069,7.351 83.339,16.84 125.23,2.54c10.399,-3.55 18.061,-22.122 24.178,-30.475c23.092,-31.532 38.832,-68.799 8.059,-100.315c-20.384,-20.875 -101.431,-37.83 -131.429,-31.11Z" style="fill:#edd6f5;"/><path d="M274.992,225.036c18.585,-4.072 55.874,0.355 87.267,9.321c21.432,6.122 40.074,14.453 48.634,23.219c32.728,33.518 16.957,73.226 -7.603,106.762c-3.668,5.009 -7.892,13.696 -12.929,20.61c-4.035,5.538 -8.672,9.937 -13.667,11.643c-42.711,14.58 -83.774,5.152 -127.686,-2.343c-7.714,-1.317 -20.243,-4.189 -30.218,-8.678c-7.619,-3.428 -13.707,-7.975 -16.211,-13.105c-5.711,-11.697 -3.561,-28.974 2.431,-47.047c8.349,-25.185 23.688,-52.105 30.427,-65.908c3.707,-7.592 15.667,-22.796 22.673,-26.383c1.459,-0.747 13.741,-6.94 15.634,-7.732l1.021,-0.339l0.229,-0.02Zm-3.535,7.244c-0.026,-0.05 -0.052,-0.101 -0.077,-0.153c-0.097,-0.202 -0.18,-0.408 -0.248,-0.616c0.085,0.268 0.193,0.525 0.325,0.769Zm5.85,2.486c-1.994,0.986 -13.369,6.611 -14.641,7.262c-5.735,2.937 -15.209,15.653 -18.244,21.869c-6.615,13.549 -21.725,39.947 -29.921,64.668c-5.039,15.2 -7.74,29.675 -2.936,39.513c1.692,3.466 6.18,6.056 11.328,8.373c9.172,4.127 20.704,6.729 27.797,7.939c42.226,7.207 81.703,16.757 122.773,2.736c3.325,-1.135 6.13,-4.381 8.816,-8.068c5.043,-6.921 9.272,-15.616 12.944,-20.63c21.627,-29.532 37.336,-64.352 8.516,-93.867c-7.748,-7.935 -24.824,-15.048 -44.225,-20.59c-29.558,-8.443 -64.614,-12.994 -82.206,-9.207Zm-6.336,-5.724c0.214,-1.144 0.825,-2.211 1.785,-2.982c-1.344,1.079 -1.685,2.244 -1.785,2.982Z" style="fill:#010023;"/><path d="M224.705,18.942c-0.038,-0.442 -41.919,-2.873 -72.725,2.524c-18.956,3.32 -35.714,11.767 -52.432,22.04c-53.366,32.792 -75.48,100.404 -21.683,144.479c64.33,52.705 160.213,66.566 228.3,14.27c11.837,-9.092 27.429,-25.644 31.083,-40.614c16.137,-66.103 -45.551,-142.699 -112.542,-142.699Z" style="fill:#ffffe8;"/><path d="M225.278,13.944c34.759,0.215 68.176,19.991 90.786,48.449c22.742,28.624 34.466,65.921 26.041,100.434c-3.891,15.938 -20.292,33.714 -32.895,43.394c-69.935,53.716 -168.438,39.768 -234.514,-14.367c-56.787,-46.526 -34.098,-117.992 22.234,-152.607c17.27,-10.612 34.606,-19.275 54.187,-22.705c28.242,-4.947 65.621,-3.439 72.842,-2.759c0.556,0.052 0.997,0.111 1.318,0.162Zm-1.827,9.839c-0.124,-0.014 -0.287,-0.032 -0.428,-0.046c-6.958,-0.655 -42.971,-2.113 -70.18,2.653c-18.331,3.211 -34.51,11.441 -50.677,21.375c-50.401,30.97 -71.94,94.725 -21.132,136.352c62.584,51.275 155.846,65.049 222.085,14.172c11.071,-8.504 25.853,-23.833 29.271,-37.835c7.711,-31.59 -3.34,-65.642 -24.156,-91.842c-20.824,-26.21 -51.502,-44.671 -83.529,-44.671c-0.432,0 -0.853,-0.055 -1.254,-0.159Zm-2.585,-1.637c-0.636,-0.761 -1.051,-1.718 -1.142,-2.774c0.075,0.873 0.356,1.849 1.142,2.774Z" style="fill:#010023;"/></g><g><path d="M472.443,530.269c-5.125,-1.564 12.125,-24.792 14.814,-27.592c14.841,-15.453 40.767,-29.794 65.456,-23.368c12.545,3.266 29.923,31.911 29.923,45.761c0,3.895 -0.921,7.567 -0.921,7.567c0,0 1.605,0.484 2.792,-0.751c7.191,-7.487 14.076,-16.108 22.442,-23.368c17.222,-14.944 43.022,-31.155 66.391,-26.288c36.125,7.523 25.731,57.421 15.816,57.421c-0.673,0 2.797,5.959 2.886,5.866c5.077,-5.287 10.54,-8.408 16.831,-11.684c13.628,-7.095 42.807,-19.616 57.04,-9.736c27.537,19.115 -19.424,76.113 -29.707,54.698c-1.277,-2.66 8.848,14.132 10.07,15.404c7.726,8.044 9.265,20.012 7.481,31.157c-2.42,15.122 -4.962,18.559 -18.702,21.42c-42.532,8.857 -57.792,-23.179 -57.831,-17.657c-0.009,1.298 -1.511,4.265 -1.814,5.524c-1.783,7.427 -10.001,11.922 -13.369,18.935c-7.567,15.758 -12.449,26.301 -29.844,26.301c-15.425,0 -30.89,4.488 -40.208,-11.684c-2.901,-5.034 -6.546,-14.604 -6.546,-20.447c0,-1.133 0.027,-10.682 0.935,-9.736c5.78,6.019 -14.197,27.705 -17.767,30.183c-22.046,15.304 -59.173,47.544 -86.962,30.183c-2.245,-1.402 -13.345,-10.582 -15.586,-9.416c-3.805,1.981 -6.426,58.982 -48.935,67.834c-10.814,2.252 -53.852,0.261 -63.235,-6.253c-9.923,-6.888 -15.918,-34.741 -23.727,-25.877c-39.439,44.769 -104.208,46.957 -112.608,20.715c-8.002,-24.995 27.189,-25.9 43.412,-34.346c0.394,-0.205 0.935,-0.515 0.935,-0.974c0,-0.225 -27.449,-3.66 -23.377,-18.499c7.414,-27.021 34.832,-35.812 58.91,-38.946c10.281,-1.338 25,-0.106 25,-0.106c0,0 -3.774,-2.727 -0.484,-10.062c4.326,-9.644 3.056,-22.686 14.757,-28.778c9.319,-4.852 21.347,-9.736 31.793,-9.736c2.123,0 -0.768,0.8 0,0c3.834,-3.993 7.098,-25.01 6.546,-30.183c-2.283,-21.393 15.512,-37.986 29.923,-49.656c13.969,-11.313 53.318,-8.566 67.473,6.172c2.318,2.413 0.68,3.564 5.463,3.564" style="fill:#fff;"/><path d="M259.945,710.486c-14.326,6.563 -31.995,-13.103 -17.658,-31.764c17.054,-22.197 56.51,-28.146 81.438,-28.146m-0,0c-2.779,2.05 -1.225,-14.438 -1.225,-16.567c0,-8.766 8.414,-26.261 17.825,-29.528c7.615,-2.643 20.932,-1.757 27.548,1.687c1.469,0.765 4.861,0.844 4.861,0.844c0,0 -0.383,-1.243 -0.81,-1.687c-4.28,-4.457 -1.62,-24.279 -1.62,-31.215c0,-17.479 11.446,-29.634 21.876,-40.495c18.385,-19.144 51.516,-20.482 71.3,-6.749c2.172,1.508 9.956,3.974 9.956,5.851m-0,0c-2.623,0.125 6.646,-20.303 7.902,-22.482c8.422,-14.616 26.48,-26.26 42.016,-30.882c31.924,-9.497 58.987,20.559 58.987,50.204m0,0c-2.231,-0.053 18.37,-18.805 21.339,-21.896c14.895,-15.51 40.812,-29.279 61.171,-32.812c22.937,-3.98 38.32,24.414 31.512,45.679c-1.475,4.606 -6.181,16.004 -6.181,19.106m0,0c0.007,2.329 6.799,-4.63 8.035,-5.595c5.097,-3.981 10.933,-7.301 16.683,-10.294c14.939,-7.778 38.487,-8.454 52.52,1.287c16.302,11.316 11.198,37.262 -3.707,47.609c-8.586,5.96 -17.871,5.147 -27.187,5.147m-60.182,47.671c10.71,25.223 45.274,33.02 66.979,17.953c8.023,-5.569 8.833,-14.535 12.358,-21.875c4.368,-9.097 -1.166,-26.949 -7.415,-33.455c-2.349,-2.445 -11.74,-7.251 -11.74,-10.294m-60.182,47.671c-1.318,3.546 -0.224,9.207 -1.607,12.806c-3.432,8.934 -7.893,17.154 -12.976,25.091c-18.138,28.328 -67.51,35.359 -77.236,-5.147c-2.402,-10.006 2.472,-15.959 2.472,-24.448m-119.241,55.001c23.259,41.229 119.241,-14.428 119.241,-55.001m-253.951,92.002c-0.812,-0.286 5.03,8.913 5.561,9.651c2.763,3.835 4.066,8.093 7.415,11.581c8.226,8.565 28.44,11.581 39.545,11.581c30.626,0 58.944,-9.518 72.911,-38.602c4.588,-9.554 9.279,-20.623 9.279,-31.211m-207.809,21.724c-4.709,3.59 -24.363,0.764 -33.177,6.27c-35.754,22.337 10.313,50.211 36.455,46.323c18.501,-2.752 40.606,-14.248 56.228,-25.091c2.905,-2.017 11.451,-12.224 13.593,-12.224" style="fill:none;stroke:#010023;stroke-width:10px;"/></g><defs><linearGradient id="_Linear1" x1="0" y1="0" x2="1" y2="0" gradientUnits="userSpaceOnUse" gradientTransform="matrix(-21.028246,1263.39027,-1263.39027,-21.028246,517.571146,41.669509)"><stop offset="0" style="stop-color:#4f7cf6;stop-opacity:1"/><stop offset="0.07" style="stop-color:#b34df5;stop-opacity:1"/><stop offset="0.14" style="stop-color:#d44bf4;stop-opacity:1"/><stop offset="0.23" style="stop-color:#f247b1;stop-opacity:1"/><stop offset="0.37" style="stop-color:#f1444e;stop-opacity:1"/><stop offset="0.55" style="stop-color:#ff8a2a;stop-opacity:1"/><stop offset="0.65" style="stop-color:#e4d929;stop-opacity:1"/><stop offset="0.75" style="stop-color:#e8ff5a;stop-opacity:1"/><stop offset="0.86" style="stop-color:#0fd85a;stop-opacity:1"/><stop offset="0.93" style="stop-color:#07d47c;stop-opacity:1"/><stop offset="1" style="stop-color:#00b2d1;stop-opacity:1"/></linearGradient><linearGradient id="_Linear2" x1="0" y1="0" x2="1" y2="0" gradientUnits="userSpaceOnUse" gradientTransform="matrix(-10.448555,1259.662293,-1259.662293,-10.448555,506.991455,45.397486)"><stop offset="0" style="stop-color:#4b41f5;stop-opacity:1"/><stop offset="0.04" style="stop-color:#4c6df5;stop-opacity:1"/><stop offset="0.11" style="stop-color:#9f60f5;stop-opacity:1"/><stop offset="0.16" style="stop-color:#d44bf4;stop-opacity:1"/><stop offset="0.23" style="stop-color:#f247b1;stop-opacity:1"/><stop offset="0.31" style="stop-color:#f1444e;stop-opacity:1"/><stop offset="0.48" style="stop-color:#ff4123;stop-opacity:1"/><stop offset="0.55" style="stop-color:#ff8826;stop-opacity:1"/><stop offset="0.65" style="stop-color:#fff158;stop-opacity:1"/><stop offset="0.75" style="stop-color:#e8ff5a;stop-opacity:1"/><stop offset="0.86" style="stop-color:#0fd85a;stop-opacity:1"/><stop offset="0.93" style="stop-color:#07d47c;stop-opacity:1"/><stop offset="1" style="stop-color:#00b2d1;stop-opacity:1"/></linearGradient></defs></svg>